<?xml version="1.0" standalone="no"?>
<!DOCTYPE svg PUBLIC "-//W3C//DTD SVG 1.1//EN" "http://www.w3.org/Graphics/SVG/1.1/DTD/svg11.dtd" >
<svg xmlns="http://www.w3.org/2000/svg" xmlns:xlink="http://www.w3.org/1999/xlink" version="1.1">
<metadata>
Created by FontForge 20181014 at Tue Jun  7 14:13:38 2016
 By convertio
Copyright \(c\) 2016 by THOMAS GILLETT. All rights reserved.
</metadata>
<defs>
<font id="Gordita-Regular" horiz-adv-x="1164" >
  <font-face 
    font-family="Gordita"
    font-weight="400"
    font-stretch="normal"
    units-per-em="2048"
    panose-1="0 0 0 0 0 0 0 0 0 0"
    ascent="1638"
    descent="-410"
    x-height="1093"
    cap-height="1604"
    bbox="-384 -661 2809 2298"
    underline-thickness="102"
    underline-position="-205"
    stemh="141"
    stemv="159"
    unicode-range="U+000D-FB04"
  />
<missing-glyph horiz-adv-x="1637" 
d="M185 0v1604l1350 1v-1605h-1350zM265 1514l1180 -1433v1433h-1180z" />
    <glyph glyph-name="ff" unicode="ff" horiz-adv-x="1404" 
d="M1265 1532c-44 0 -84 -13 -121 -45s-62 -98 -62 -186v-208h287v-139h-287v-954h-158v954h-504v-954h-159v954h-210v139h210v203c0 123 31 216 92 281c61 64 142 96 243 96c42 0 82 -7 120 -20v-136c-28 10 -66 15 -114 15c-44 0 -82 -13 -120 -45s-62 -98 -62 -186v-208
h504v203c0 123 31 216 92 281c61 64 142 96 243 96c42 0 82 -7 119 -20v-136c-27 10 -65 15 -113 15z" />
    <glyph glyph-name="fi" unicode="fi" horiz-adv-x="1265" 
d="M261 954h-210v139h210v203c0 123 31 216 92 281c61 64 142 96 243 96c42 0 82 -7 120 -20v-136c-28 10 -66 15 -114 15c-44 0 -82 -13 -120 -45s-62 -98 -62 -186v-208h664v-1093h-160v954h-504v-954h-159v954zM919 1400c-23 23 -35 52 -35 85s12 62 35 85s52 35 85 35
s62 -12 85 -35s35 -52 35 -85s-12 -62 -35 -85s-52 -35 -85 -35s-62 12 -85 35z" />
    <glyph glyph-name="fl" unicode="fl" horiz-adv-x="1265" 
d="M261 954h-210v139h210v203c0 123 31 216 92 281c61 64 142 96 243 96c42 0 82 -7 120 -20v-136c-28 10 -66 15 -114 15c-44 0 -82 -13 -120 -45s-62 -98 -62 -186v-208h504v576h160v-1669h-160v954h-504v-954h-159v954z" />
    <glyph glyph-name="ffi" unicode="ffi" horiz-adv-x="1929" 
d="M924 954h-504v-954h-159v954h-210v139h210v203c0 123 31 216 92 281c61 64 142 96 243 96c42 0 82 -7 119 -20v-136c-27 10 -65 15 -113 15c-44 0 -82 -13 -120 -45s-62 -98 -62 -186v-208h504v203c0 123 31 216 92 281c61 64 142 96 243 96c42 0 82 -7 120 -20v-136
c-28 10 -66 15 -114 15c-44 0 -82 -13 -120 -45s-62 -98 -62 -186v-208h665v-1093h-160v954h-505v-954h-159v954zM1583 1400c-23 23 -35 52 -35 85s12 62 35 85s52 35 85 35s62 -12 85 -35s35 -52 35 -85s-12 -62 -35 -85s-52 -35 -85 -35s-62 12 -85 35z" />
    <glyph glyph-name="ffl" unicode="ffl" horiz-adv-x="1930" 
d="M602 1532c-44 0 -84 -13 -121 -45s-62 -98 -62 -186v-208h505v203c0 123 31 216 92 281c61 64 142 96 243 96c42 0 82 -7 120 -20v-136c-28 10 -66 15 -114 15c-44 0 -82 -13 -120 -45s-62 -98 -62 -186v-208h506v576h160v-1669h-160v954h-506v-954h-159v954h-505v-954
h-158v954h-210v139h210v203c0 123 31 216 92 281c61 64 142 96 243 96c42 0 82 -7 119 -20v-136c-27 10 -65 15 -113 15z" />
    <glyph glyph-name=".notdef" horiz-adv-x="1637" 
d="M185 0v1604l1350 1v-1605h-1350zM265 1514l1180 -1433v1433h-1180z" />
    <glyph glyph-name="null" horiz-adv-x="0" 
 />
    <glyph glyph-name="nonmarkingreturn" horiz-adv-x="682" 
 />
    <glyph glyph-name="NULL" horiz-adv-x="0" 
 />
    <glyph glyph-name="NULL" horiz-adv-x="0" 
 />
    <glyph glyph-name="CR" unicode="&#xd;" horiz-adv-x="572" 
 />
    <glyph glyph-name="space" unicode=" " horiz-adv-x="572" 
 />
    <glyph glyph-name="exclam" unicode="!" horiz-adv-x="586" 
d="M218 465l-10 857v282h169v-282l-10 -857h-149zM208 17c-23 23 -35 52 -35 85s12 62 35 85s52 35 85 35s61 -12 85 -35c23 -23 35 -52 35 -85s-12 -62 -35 -85s-52 -35 -85 -35s-62 12 -85 35z" />
    <glyph glyph-name="quotedbl" unicode="&#x22;" horiz-adv-x="826" 
d="M129 1436c0 105 31 157 94 157s94 -52 94 -157c0 -15 -2 -36 -6 -64l-51 -422h-74l-51 422c-4 24 -6 45 -6 64zM508 1436c0 105 31 157 94 157s94 -52 94 -157c0 -15 -2 -36 -6 -64l-51 -422h-74l-51 422c-4 24 -6 45 -6 64z" />
    <glyph glyph-name="numbersign" unicode="#" horiz-adv-x="1698" 
d="M1295 1060l-106 -482h291v-134h-320l-98 -444h-149l97 444h-487l-97 -444h-150l97 444h-291v134h321l105 482h-291l1 135h320l90 409h151l-91 -409h488l90 409h149l-90 -409h291v-135h-321zM657 1060l-105 -482h489l106 482h-490z" />
    <glyph glyph-name="dollar" unicode="$" horiz-adv-x="1287" 
d="M1184 454c0 -129 -43 -235 -128 -318s-196 -131 -331 -144v-201h-140v201c-89 9 -171 37 -245 82c-75 45 -133 100 -176 165c-43 64 -68 131 -75 202l155 43c15 -83 55 -155 119 -217c64 -63 138 -101 223 -116v597l-70 14c-112 22 -203 67 -274 135
c-74 72 -111 164 -111 276c0 124 52 236 136 309c83 73 195 121 318 132v211h140v-214c136 -15 249 -70 318 -142c68 -73 108 -151 124 -234l-152 -47c-13 53 -40 106 -84 158c-45 52 -119 93 -207 109v-565l10 -2c138 -27 242 -74 311 -139c49 -46 85 -96 107 -150
c21 -54 32 -102 32 -145zM532 928l54 -11v543c-80 -10 -148 -40 -203 -90c-55 -51 -83 -114 -83 -189c0 -124 77 -221 232 -253zM728 720l-4 1v-571c83 11 152 41 207 90s82 114 82 197c0 128 -78 198 -151 237c-34 17 -80 33 -100 38c-10 3 -20 5 -29 7c-3 1 -4 1 -5 1z
" />
    <glyph glyph-name="percent" unicode="%" horiz-adv-x="1770" 
d="M803 1258c0 -99 -35 -184 -106 -255s-156 -106 -256 -106s-185 35 -256 106s-106 156 -106 255c0 100 35 185 106 256s156 106 256 106s185 -35 256 -106s106 -156 106 -256zM443 0h-163l1046 1604h162zM602 1098c44 44 66 97 66 160s-22 116 -66 161
c-45 44 -98 66 -161 66s-116 -22 -160 -66c-45 -45 -67 -98 -67 -161s22 -116 67 -160c44 -44 97 -66 160 -66s116 22 161 66zM1691 349c0 -99 -35 -184 -106 -255s-156 -106 -256 -106s-185 35 -256 106s-106 156 -106 255c0 100 35 185 106 256s156 106 256 106
s185 -35 256 -106s106 -156 106 -256zM1490 189c44 44 66 97 66 160s-22 116 -66 161c-45 44 -98 66 -161 66s-116 -22 -160 -66c-44 -45 -66 -98 -66 -161s22 -116 66 -160s97 -66 160 -66s116 22 161 66z" />
    <glyph glyph-name="ampersand" unicode="&#x26;" horiz-adv-x="1466" 
d="M1229 706h166c-23 -66 -58 -136 -105 -210s-100 -144 -161 -210l248 -286h-203l-156 180c-153 -129 -305 -194 -454 -194c-251 -5 -459 158 -456 393c0 81 32 162 75 222c21 29 48 59 81 89c65 59 118 94 194 141l-117 135c-64 73 -112 175 -112 267
c-4 223 205 392 419 386c202 5 410 -165 406 -375c0 -109 -45 -198 -106 -254c-31 -29 -71 -59 -122 -90l-149 -92l357 -411c89 103 154 206 195 309zM822 1405c-50 47 -109 70 -177 70s-127 -23 -178 -70s-77 -104 -77 -172c0 -48 14 -92 44 -136c15 -23 28 -41 40 -56
s29 -35 51 -59s37 -41 46 -51l18 -21l162 98c97 58 145 133 145 226c0 67 -25 124 -74 171zM583 134c109 0 223 51 342 154l-377 438c-32 -19 -58 -35 -77 -48c-20 -13 -44 -31 -71 -54s-49 -44 -64 -65c-32 -41 -59 -101 -59 -162c0 -79 28 -142 84 -190
c56 -49 130 -73 222 -73z" />
    <glyph glyph-name="quotesingle" unicode="'" horiz-adv-x="446" 
d="M129 1436c0 105 31 157 94 157s94 -52 94 -157c0 -15 -2 -36 -6 -64l-51 -422h-74l-51 422c-4 24 -6 45 -6 64z" />
    <glyph glyph-name="parenleft" unicode="(" horiz-adv-x="814" 
d="M110 733v52c0 211 51 404 153 577s245 314 429 421l68 -104c-329 -212 -487 -503 -487 -895v-50c0 -393 156 -680 485 -892l-66 -108c-184 108 -327 249 -429 422s-153 366 -153 577z" />
    <glyph glyph-name="parenright" unicode=")" horiz-adv-x="814" 
d="M704 785v-52c0 -212 -51 -405 -152 -578c-102 -173 -245 -314 -430 -421l-66 108c329 212 485 499 485 892v50c0 392 -158 683 -487 895l68 104c185 -107 328 -247 430 -420c101 -173 152 -366 152 -578z" />
    <glyph glyph-name="asterisk" unicode="*" horiz-adv-x="1039" 
d="M622 1147l194 -271l-97 -72l-201 272l-198 -271l-96 71l194 271l-317 105l38 113l319 -104v343h122v-343l319 104l39 -113z" />
    <glyph glyph-name="plus" unicode="+" horiz-adv-x="1210" 
d="M681 697v-425h-152v425h-427v150h427v421h152v-421h427v-150h-427z" />
    <glyph glyph-name="comma" unicode="," horiz-adv-x="587" 
d="M161 -299v83c44 9 82 34 115 76c32 43 48 88 49 137c-15 -9 -32 -13 -52 -13c-77 0 -131 59 -131 136c0 38 14 70 43 96c28 26 61 39 100 39c49 0 88 -19 116 -56c27 -37 41 -82 41 -133c0 -93 -25 -174 -74 -243c-50 -69 -119 -110 -207 -122z" />
    <glyph glyph-name="hyphen" unicode="-" horiz-adv-x="893" 
d="M153 556v169h587v-169h-587z" />
    <glyph glyph-name="period" unicode="." horiz-adv-x="572" 
d="M182 25c-29 29 -43 63 -43 104s14 75 43 104s63 43 104 43s75 -14 104 -43s43 -63 43 -104s-14 -75 -43 -104s-63 -43 -104 -43s-75 14 -104 43z" />
    <glyph glyph-name="slash" unicode="/" horiz-adv-x="1007" 
d="M239 -10h-168l699 1678h169z" />
    <glyph glyph-name="zero" unicode="0" horiz-adv-x="1572" 
d="M783 -17c-171 0 -322 67 -425 172c-51 53 -95 114 -132 184c-73 139 -107 296 -107 457c-3 239 85 488 243 649c104 107 256 175 428 175c171 0 321 -66 424 -172c51 -53 95 -115 132 -184c73 -140 107 -298 107 -459c3 -239 -84 -488 -242 -647
c-104 -107 -256 -175 -428 -175zM969 1423c-56 28 -117 42 -184 42s-128 -14 -183 -41c-56 -27 -103 -63 -140 -108c-75 -89 -129 -212 -152 -332c-35 -176 -22 -362 57 -538c52 -117 123 -210 236 -266c56 -28 117 -42 184 -42s128 14 184 41c55 27 102 63 139 108
c75 89 129 210 153 330c34 177 21 361 -58 539c-53 118 -124 211 -236 267z" />
    <glyph glyph-name="one" unicode="1" horiz-adv-x="878" 
d="M655 0h-167v1426l-386 -230l-76 128l466 280h163v-1604z" />
    <glyph glyph-name="two" unicode="2" horiz-adv-x="1311" 
d="M1193 0h-1083v50c0 223 124 410 371 563l243 150c45 27 82 52 111 75c29 22 57 49 86 80c56 62 84 135 84 226c0 85 -33 159 -100 224s-150 97 -251 97c-81 0 -150 -20 -207 -60c-57 -41 -98 -89 -123 -145c-19 -45 -30 -97 -33 -158l-168 24c0 138 70 284 198 386
c83 67 204 109 336 109c145 0 282 -56 374 -143c91 -87 148 -206 148 -329c0 -107 -28 -199 -83 -274s-140 -149 -254 -220l-253 -158c-176 -110 -268 -224 -275 -342h879v-155z" />
    <glyph glyph-name="three" unicode="3" horiz-adv-x="1333" 
d="M660 -16c-160 0 -302 57 -394 145c-93 88 -153 202 -168 322l163 30c16 -168 166 -342 399 -342c146 0 383 91 383 345c0 93 -35 167 -105 224c-70 56 -162 84 -275 84c-58 0 -108 -8 -151 -24l-79 133l526 549h-823v154h1038v-147l-497 -512c129 6 244 -26 345 -97
c119 -83 191 -213 191 -358c0 -99 -25 -188 -75 -266c-51 -78 -118 -137 -201 -178c-84 -41 -176 -62 -277 -62z" />
    <glyph glyph-name="four" unicode="4" horiz-adv-x="1395" 
d="M1059 385v-385h-163v385h-835v184l786 1035h212v-1074h269v-145h-269zM896 1429l-685 -899h685v899z" />
    <glyph glyph-name="five" unicode="5" horiz-adv-x="1301" 
d="M1133 1446h-677l-124 -533c44 41 98 70 163 88c64 18 121 27 172 27c154 0 280 -47 379 -141c98 -94 147 -220 147 -377c0 -168 -70 -309 -177 -393c-108 -85 -243 -132 -384 -132c-177 0 -343 71 -451 207c-54 67 -86 144 -97 231l163 36c14 -93 57 -170 129 -229
c72 -60 159 -90 261 -90c160 0 388 103 388 366c0 127 -47 228 -122 286s-166 87 -266 87c-60 0 -121 -15 -183 -44s-113 -69 -154 -119l-157 61l190 827h800v-158z" />
    <glyph glyph-name="six" unicode="6" horiz-adv-x="1381" 
d="M910 1460c-183 0 -338 -71 -438 -190c-101 -120 -165 -277 -182 -458c52 81 131 145 212 180s159 51 231 51c165 0 308 -59 398 -154s141 -222 141 -358c0 -176 -72 -324 -181 -411c-109 -88 -245 -136 -388 -136c-92 0 -183 25 -274 74s-160 114 -206 196
c-39 69 -65 135 -79 198c-15 63 -22 144 -22 244c0 255 71 483 200 652c129 168 337 272 586 272c135 0 245 -25 330 -75l-63 -152c-74 45 -185 67 -265 67zM709 895c-102 0 -192 -32 -271 -97s-127 -169 -127 -277c0 -77 20 -145 59 -204s88 -104 148 -133
c59 -29 123 -44 191 -44c201 0 397 131 397 383c0 103 -36 190 -109 263s-169 109 -288 109z" />
    <glyph glyph-name="seven" unicode="7" horiz-adv-x="1207" 
d="M223 0l745 1448h-910v156h1091v-156l-739 -1448h-187z" />
    <glyph glyph-name="eight" unicode="8" horiz-adv-x="1372" 
d="M852 2c-163 -38 -340 -20 -482 54c-143 70 -247 200 -247 382c0 86 29 164 88 234c59 69 141 121 248 155c-93 27 -166 76 -219 148c-53 71 -79 144 -79 219c0 278 290 426 525 426c242 0 526 -141 526 -426c0 -79 -27 -153 -80 -222c-54 -69 -127 -118 -219 -145
c107 -31 190 -81 249 -152c58 -71 87 -150 87 -237c0 -235 -181 -385 -397 -436zM686 1469c-79 0 -164 -25 -236 -69c-72 -45 -123 -123 -123 -212c0 -202 221 -295 359 -295c72 0 156 26 231 71s129 128 129 221c0 89 -50 168 -122 213s-158 71 -238 71zM686 136
c88 0 180 25 260 72c79 47 133 130 133 230c0 101 -53 186 -132 235s-172 76 -261 76c-88 0 -180 -26 -259 -74s-134 -133 -134 -232c0 -104 53 -188 132 -235c79 -48 170 -72 261 -72z" />
    <glyph glyph-name="nine" unicode="9" horiz-adv-x="1384" 
d="M506 145c361 0 565 281 594 651c-50 -79 -119 -139 -206 -180c-88 -41 -171 -62 -249 -62c-164 0 -306 64 -394 162s-139 224 -139 356c-1 363 283 550 569 549c91 0 181 -24 270 -73s156 -114 202 -197c39 -69 66 -138 83 -208c17 -71 25 -152 25 -243
c0 -264 -65 -489 -188 -653c-123 -165 -319 -262 -560 -262c-54 0 -117 8 -190 25c-73 16 -134 40 -182 71l62 153c49 -30 101 -52 158 -67s105 -22 145 -22zM670 702c97 0 198 36 273 99c77 64 127 173 127 284c0 77 -19 145 -58 204s-88 103 -147 132
c-60 29 -124 44 -192 44c-103 0 -198 -34 -272 -97s-122 -166 -122 -289c0 -195 141 -378 391 -377z" />
    <glyph glyph-name="colon" unicode=":" horiz-adv-x="602" 
d="M197 859c-29 29 -43 63 -43 104s14 75 43 104s63 43 104 43s75 -14 104 -43s43 -63 43 -104s-14 -75 -43 -104s-63 -43 -104 -43s-75 14 -104 43zM197 25c-29 29 -43 63 -43 104s14 75 43 104s63 43 104 43s75 -14 104 -43s43 -63 43 -104s-14 -75 -43 -104
s-63 -43 -104 -43s-75 14 -104 43z" />
    <glyph glyph-name="semicolon" unicode=";" horiz-adv-x="619" 
d="M203 859c-29 29 -43 63 -43 104s14 75 43 104s63 43 104 43s75 -14 104 -43s43 -63 43 -104s-14 -75 -43 -104s-63 -43 -104 -43s-75 14 -104 43zM179 -299v83c44 9 82 34 115 76c32 43 48 88 49 137c-14 -9 -31 -13 -52 -13c-77 0 -131 59 -131 136c0 38 14 70 43 96
c28 26 61 39 100 39c49 0 88 -19 116 -56c27 -37 41 -82 41 -133c0 -93 -25 -174 -74 -243c-50 -69 -119 -110 -207 -122z" />
    <glyph glyph-name="less" unicode="&#x3c;" horiz-adv-x="1312" 
d="M82 700v147l1061 505v-159l-885 -416l885 -419v-161z" />
    <glyph glyph-name="equal" unicode="=" horiz-adv-x="1267" 
d="M159 924v159h949v-159h-949zM159 462v157h949v-157h-949z" />
    <glyph glyph-name="greater" unicode="&#x3e;" horiz-adv-x="1312" 
d="M169 197v159l885 419l-885 416v161l1061 -505v-147z" />
    <glyph glyph-name="question" unicode="?" horiz-adv-x="1113" 
d="M605 465h-157c-1 16 -2 28 -2 36c0 53 7 100 26 143s30 69 62 108c16 19 28 34 37 43s23 24 42 43s32 32 38 39c9 10 25 26 47 48c21 21 37 38 48 49s24 28 41 49c33 42 46 68 59 112c6 22 9 44 9 67c0 73 -25 135 -76 186s-126 76 -224 76c-101 0 -179 -33 -234 -98
s-80 -148 -74 -249l-164 7c-1 21 -2 37 -2 48c0 85 22 163 66 232c43 69 101 123 174 161c72 37 150 56 234 56c140 0 264 -50 344 -126c80 -77 127 -183 127 -292c0 -77 -19 -143 -68 -212c-25 -35 -48 -65 -71 -90c-23 -26 -57 -61 -100 -104l-14 -14
c-31 -31 -54 -55 -68 -71c-15 -16 -31 -37 -49 -64c-37 -54 -50 -108 -51 -183zM435 187c-23 -23 -35 -52 -35 -85s12 -62 35 -85s52 -35 85 -35s62 12 85 35s35 52 35 85s-12 62 -35 85s-52 35 -85 35s-62 -12 -85 -35z" />
    <glyph glyph-name="at" unicode="@" horiz-adv-x="1771" 
d="M1547 613c18 55 27 110 27 165c0 173 -74 326 -189 425c-116 99 -275 157 -444 157c-96 0 -188 -19 -275 -58c-88 -39 -164 -90 -227 -155c-64 -65 -115 -141 -152 -229c-38 -89 -57 -181 -57 -276c0 -133 30 -252 91 -358c60 -106 143 -188 250 -247
c107 -60 226 -89 358 -89c155 0 298 47 429 140l59 -94c-59 -48 -135 -87 -227 -116c-93 -29 -180 -43 -261 -43c-229 0 -437 86 -581 227s-233 348 -233 579c0 112 22 219 66 322c43 102 102 190 176 265c73 74 161 133 263 178c102 44 209 66 321 66
c200 0 388 -70 524 -188s223 -300 223 -505c0 -91 -20 -182 -60 -273s-97 -158 -172 -202c-61 -35 -117 -53 -169 -53c-92 0 -168 59 -195 148c-75 -98 -171 -147 -287 -147c-174 -4 -328 174 -323 343c0 153 69 300 195 388c63 44 133 66 211 66c105 0 203 -57 250 -149
l24 143h149l-85 -513c-7 -40 -11 -144 90 -144c53 0 101 24 142 71s70 99 89 156zM908 921c-80 0 -146 -31 -199 -94s-80 -136 -80 -219c0 -63 19 -117 58 -161s89 -66 150 -66c53 0 100 17 143 50s75 75 97 124s33 99 33 150c0 61 -19 112 -56 154c-37 41 -86 62 -146 62z
" />
    <glyph glyph-name="A" unicode="A" horiz-adv-x="1588" 
d="M1403 0l-175 410h-873l-176 -410h-172l691 1604h191l692 -1604h-178zM1163 563l-373 867l-372 -867h745z" />
    <glyph glyph-name="B" unicode="B" horiz-adv-x="1501" 
d="M820 0h-597v1604h576c291 4 517 -146 516 -403c0 -37 -2 -71 -21 -131c-10 -31 -23 -59 -39 -85c-33 -53 -99 -114 -184 -151c112 -29 203 -98 249 -175s67 -152 67 -219c0 -149 -64 -267 -170 -336s-242 -104 -397 -104zM785 1450h-395v-559h382c125 0 219 27 280 82
c61 54 92 123 92 208c0 196 -176 269 -359 269zM793 741h-403v-587h434c174 0 390 70 390 298c0 137 -85 214 -193 253c-76 27 -148 36 -228 36z" />
    <glyph glyph-name="C" unicode="C" horiz-adv-x="1719" 
d="M910 -17c-220 0 -423 85 -566 226c-72 70 -129 156 -170 258c-42 102 -63 212 -63 330c0 119 22 230 65 334c43 103 101 191 174 262c147 142 351 228 568 228c168 0 322 -50 427 -122c52 -36 99 -77 140 -124c82 -94 126 -189 149 -282l-161 -57c-13 52 -34 110 -94 194
c-30 42 -64 79 -103 112s-91 61 -154 84s-133 35 -208 35c-169 0 -329 -68 -442 -181s-186 -284 -186 -473c0 -125 27 -239 81 -340s129 -181 226 -238c96 -57 204 -86 323 -86c147 0 275 51 352 112c38 30 73 67 104 110s53 80 68 111c14 31 27 63 38 97l162 -58
c-25 -87 -66 -173 -148 -272c-41 -49 -88 -93 -140 -130c-105 -75 -265 -130 -442 -130z" />
    <glyph glyph-name="D" unicode="D" horiz-adv-x="1657" 
d="M223 0v1604h477c123 0 237 -20 343 -61c105 -41 195 -97 269 -168c147 -142 235 -346 235 -570c0 -117 -22 -226 -66 -327c-45 -101 -105 -186 -181 -255c-152 -140 -367 -223 -600 -223h-477zM391 1446v-1288h303c133 0 251 28 354 83s183 131 240 228
c56 97 84 208 84 332c0 183 -67 346 -183 461s-293 184 -497 184h-301z" />
    <glyph glyph-name="E" unicode="E" horiz-adv-x="1359" 
d="M223 0v1604h1003v-156h-835v-555h764v-155h-764v-582h843v-156h-1011z" />
    <glyph glyph-name="F" unicode="F" horiz-adv-x="1300" 
d="M391 1446v-576h755v-156h-755v-714h-168v1604h993v-158h-825z" />
    <glyph glyph-name="G" unicode="G" horiz-adv-x="1756" 
d="M1626 1143l-161 -57c-19 59 -47 117 -109 189c-31 35 -67 67 -106 94c-79 54 -202 95 -338 95c-119 0 -227 -30 -324 -91s-172 -142 -225 -242s-79 -208 -79 -325c0 -181 61 -348 168 -469s273 -196 464 -196c143 0 278 45 382 125s174 206 183 354h-670v156h849v-61
c0 -203 -72 -385 -198 -517s-322 -214 -550 -214c-239 0 -447 89 -584 234s-218 351 -218 579c0 152 35 291 105 417c70 125 167 224 291 297c123 73 261 109 412 109c189 0 356 -54 471 -145s193 -201 237 -332z" />
    <glyph glyph-name="H" unicode="H" horiz-adv-x="1696" 
d="M1305 0v734h-914v-734h-168v1604h168v-710h914v710h168v-1604h-168z" />
    <glyph glyph-name="I" unicode="I" horiz-adv-x="614" 
d="M223 0v1604h168v-1604h-168z" />
    <glyph glyph-name="J" unicode="J" horiz-adv-x="1275" 
d="M902 1604h168v-1104c0 -149 -46 -273 -137 -370s-208 -146 -350 -146c-153 0 -274 46 -365 139s-136 217 -136 373v158h167v-152c0 -121 40 -219 104 -275c63 -56 140 -85 224 -85c93 0 171 34 233 102c61 67 92 151 92 250v1110z" />
    <glyph glyph-name="K" unicode="K" horiz-adv-x="1387" 
d="M391 0h-168v1604h168v-709h11l719 709h234l-786 -768l824 -836h-238l-752 772h-12v-772z" />
    <glyph glyph-name="L" unicode="L" horiz-adv-x="1194" 
d="M223 0v1604h168v-1446h761v-158h-929z" />
    <glyph glyph-name="M" unicode="M" horiz-adv-x="2120" 
d="M1655 1604h242v-1604h-167v1375h-1l-597 -1375h-150l-592 1364h-1v-1364h-166v1604h238l600 -1375z" />
    <glyph glyph-name="N" unicode="N" horiz-adv-x="1753" 
d="M1364 1604h166v-1604h-184l-957 1365v-1365h-166v1604h194l947 -1348v1348z" />
    <glyph glyph-name="O" unicode="O" horiz-adv-x="1833" 
d="M1723 806c0 -152 -35 -291 -104 -416c-70 -125 -167 -224 -291 -297s-262 -110 -414 -110c-113 0 -219 21 -319 64c-100 42 -185 99 -256 172c-71 72 -126 158 -167 259c-41 100 -62 206 -62 319c0 151 35 290 105 416c69 125 166 225 290 298s262 109 414 109
c113 0 219 -21 319 -63c100 -43 185 -100 256 -172c71 -73 127 -159 168 -259c41 -101 61 -207 61 -320zM1548 797c0 179 -66 348 -176 469c-110 120 -275 197 -458 197c-120 0 -228 -30 -325 -89c-97 -60 -171 -140 -224 -239c-53 -100 -80 -210 -80 -329
c0 -179 67 -348 177 -468s274 -197 457 -197c120 0 228 30 325 89s172 139 225 239c53 99 79 209 79 328z" />
    <glyph glyph-name="P" unicode="P" horiz-adv-x="1395" 
d="M732 627h-341v-627h-168v1604h536c391 1 563 -233 563 -481c0 -139 -52 -260 -148 -350c-97 -90 -253 -146 -442 -146zM746 1446h-355v-663h347c141 0 254 42 318 107c63 64 95 143 95 227c0 157 -91 329 -405 329z" />
    <glyph glyph-name="Q" unicode="Q" horiz-adv-x="1837" 
d="M1730 88l-110 -127l-209 189c-143 -111 -309 -167 -497 -167c-113 0 -220 21 -319 64c-100 42 -185 99 -256 172c-71 72 -126 158 -167 259c-41 100 -62 206 -62 319c0 152 35 291 105 416c69 125 166 225 290 298c123 73 261 109 413 109c113 0 220 -21 320 -63
c99 -43 184 -100 255 -172c71 -73 127 -159 168 -259c41 -101 61 -207 61 -320c0 -207 -70 -397 -195 -544zM285 806c0 -120 27 -230 80 -331s128 -182 225 -243s207 -91 328 -91c139 0 263 39 370 118l-306 268l111 125l311 -282c96 121 144 264 144 427
c0 179 -66 348 -176 469c-110 120 -275 197 -458 197c-120 0 -228 -30 -325 -89c-97 -60 -171 -140 -224 -239c-53 -100 -80 -210 -80 -329z" />
    <glyph glyph-name="R" unicode="R" horiz-adv-x="1475" 
d="M1396 0h-204l-474 649h-327v-649h-168v1604h556c189 0 340 -53 429 -140c88 -88 134 -200 134 -328c0 -271 -202 -428 -440 -459zM391 1446v-644h373c140 0 250 40 313 104c63 63 94 140 94 224c0 159 -98 316 -404 316h-376z" />
    <glyph glyph-name="S" unicode="S" horiz-adv-x="1313" 
d="M666 -16c-152 0 -296 57 -392 142c-97 85 -162 199 -174 312l158 44c18 -95 66 -175 144 -241s166 -99 264 -99c93 0 179 24 248 71c68 47 112 126 112 222c0 113 -60 185 -135 229c-53 31 -99 44 -151 55l-213 42c-43 9 -90 24 -140 47s-94 52 -132 89
c-75 73 -112 165 -112 277c0 89 24 168 72 237s110 121 187 157c77 35 160 53 250 53c344 0 497 -212 529 -384l-153 -48c-28 114 -131 277 -380 277c-170 4 -338 -117 -336 -284c0 -124 78 -222 233 -253l204 -40c136 -27 240 -73 311 -140c49 -46 85 -96 106 -149
c21 -54 32 -103 32 -146c3 -283 -235 -475 -532 -470z" />
    <glyph glyph-name="T" unicode="T" horiz-adv-x="1328" 
d="M749 1446v-1446h-169v1446h-536v158h1240v-158h-535z" />
    <glyph glyph-name="U" unicode="U" horiz-adv-x="1609" 
d="M1239 1604h168v-977c0 -203 -53 -360 -158 -473c-106 -113 -254 -170 -445 -170s-339 57 -444 172c-105 114 -158 267 -158 460v988h168v-980c0 -169 47 -298 128 -372s185 -110 313 -110c137 0 243 41 317 124s111 199 111 349v989z" />
    <glyph glyph-name="V" unicode="V" horiz-adv-x="1573" 
d="M1525 1604l-645 -1604h-187l-645 1604h185l554 -1414l557 1414h181z" />
    <glyph glyph-name="W" unicode="W" horiz-adv-x="2349" 
d="M744 0h-185l-502 1604h177l420 -1361h4l423 1361h191l426 -1368h3l422 1368h170l-504 -1604h-187l-428 1377z" />
    <glyph glyph-name="X" unicode="X" horiz-adv-x="1464" 
d="M1252 0l-521 701l-518 -701h-197l615 821l-588 783h197l495 -661l490 661h196l-587 -781l614 -823h-196z" />
    <glyph glyph-name="Y" unicode="Y" horiz-adv-x="1518" 
d="M762 837l511 767h193l-622 -927v-677h-170v676l-621 928h202z" />
    <glyph glyph-name="Z" unicode="Z" horiz-adv-x="1318" 
d="M1231 155v-155h-1157v155l956 1295h-923v154h1120v-155l-958 -1294h962z" />
    <glyph glyph-name="bracketleft" unicode="[" horiz-adv-x="848" 
d="M211 -248v2013h561v-138h-405v-1736h405v-139h-561z" />
    <glyph glyph-name="backslash" unicode="\" horiz-adv-x="1007" 
d="M68 1668h169l699 -1678h-167z" />
    <glyph glyph-name="bracketright" unicode="]" horiz-adv-x="848" 
d="M76 -248v139h405v1736h-405v138h561v-2013h-561z" />
    <glyph glyph-name="asciicircum" unicode="^" horiz-adv-x="1206" 
d="M908 923l-305 520l-306 -520h-186l423 681h137l424 -681h-187z" />
    <glyph glyph-name="underscore" unicode="_" horiz-adv-x="1093" 
d="M1093 -313h-1093v134h1093v-134z" />
    <glyph glyph-name="grave" unicode="`" horiz-adv-x="489" 
d="M455 1280h-153l-263 352h194z" />
    <glyph glyph-name="a" unicode="a" 
d="M537 631h303v74c0 175 -97 265 -278 265c-88 0 -163 -28 -207 -72c-45 -45 -72 -95 -81 -151l-153 33c3 57 54 163 155 243c64 51 170 90 290 90c199 0 332 -75 398 -226c22 -50 33 -110 33 -181v-308c0 -183 6 -316 18 -398h-160c-9 49 -14 113 -14 192h-1
c-91 -141 -214 -211 -369 -211c-109 0 -198 30 -265 91c-68 61 -102 138 -102 231v12c0 237 238 316 433 316zM840 461v38h-305c-65 0 -123 -10 -178 -36c-56 -26 -92 -78 -92 -147c0 -60 22 -107 67 -142c44 -35 100 -52 167 -52c98 0 179 32 244 95s97 145 97 244z" />
    <glyph glyph-name="b" unicode="b" horiz-adv-x="1378" 
d="M1276 548c0 -199 -85 -377 -244 -484c-80 -53 -170 -80 -271 -80c-179 0 -321 82 -424 246v-230h-156v1668h159v-809c111 169 251 254 421 254c152 0 288 -69 376 -175c87 -106 139 -247 139 -390zM730 124c117 0 210 40 279 121c69 80 104 180 104 299
c0 153 -59 287 -177 367c-59 39 -128 59 -206 59c-221 4 -398 -203 -392 -420c0 -115 37 -215 111 -299c74 -85 168 -127 281 -127z" />
    <glyph glyph-name="c" unicode="c" horiz-adv-x="1259" 
d="M264 552c0 -153 63 -288 185 -368c61 -41 131 -61 211 -61c92 0 174 31 224 68c25 19 47 41 68 67c41 52 57 87 73 128l148 -50c-25 -85 -83 -168 -167 -238s-211 -117 -348 -117c-312 -6 -562 240 -557 562c0 108 26 206 77 294c51 87 119 155 205 204
c85 48 179 72 282 72c123 0 232 -34 326 -102c94 -69 153 -151 176 -247l-147 -48c-24 86 -135 255 -361 255c-114 0 -208 -41 -283 -122s-112 -180 -112 -297z" />
    <glyph glyph-name="d" unicode="d" horiz-adv-x="1378" 
d="M102 548c0 143 52 284 140 390c87 106 223 175 372 175c101 0 191 -28 260 -77c68 -49 116 -101 164 -172v804h159v-1668h-157l1 234c-101 -167 -244 -250 -427 -250c-152 0 -287 66 -374 170s-138 245 -138 394zM647 124c225 -4 398 206 393 426c0 144 -69 280 -191 360
c-61 40 -129 60 -202 60c-117 0 -209 -40 -278 -121s-104 -183 -104 -305c0 -152 60 -283 178 -361c59 -39 127 -59 204 -59z" />
    <glyph glyph-name="e" unicode="e" horiz-adv-x="1244" 
d="M1147 497h-885c6 -107 46 -196 121 -267c74 -71 164 -107 271 -107c164 0 287 82 338 234l142 -45c-31 -103 -91 -184 -179 -243s-188 -88 -299 -88c-104 0 -199 25 -284 76s-152 119 -199 206c-48 87 -72 182 -72 285c0 99 23 191 68 278c45 86 109 155 192 208
c82 53 173 79 272 79c109 0 204 -25 283 -74c79 -50 137 -117 176 -200c38 -84 57 -180 57 -288c0 -12 -1 -30 -2 -54zM264 633h723c-11 102 -47 184 -109 246s-144 93 -245 93c-93 0 -174 -33 -244 -99c-70 -67 -112 -147 -125 -240z" />
    <glyph glyph-name="f" unicode="f" horiz-adv-x="742" 
d="M602 1532c-44 0 -82 -13 -120 -45s-62 -98 -62 -186v-208h286v-139h-286v-954h-159v954h-210v139h210v203c0 123 31 216 92 281c61 64 142 96 243 96c42 0 82 -7 120 -20v-136c-28 10 -66 15 -114 15z" />
    <glyph glyph-name="g" unicode="g" horiz-adv-x="1379" 
d="M1039 16v228c-99 -166 -241 -249 -424 -249c-101 0 -191 26 -270 78c-79 51 -139 119 -180 203s-62 176 -62 276c0 96 21 187 63 272c41 85 102 154 181 208s169 81 268 81c103 0 193 -28 262 -76c68 -49 116 -102 164 -173v229h157v-1067c0 -187 -51 -329 -154 -427
c-103 -97 -242 -146 -415 -146c-136 0 -252 36 -347 107c-96 72 -154 161 -175 268l147 49c25 -112 126 -284 373 -284c116 0 212 31 289 96s123 179 123 327zM648 136c113 0 206 41 281 124c75 82 112 180 112 295c5 212 -173 420 -393 416c-117 0 -210 -40 -279 -119
c-69 -80 -103 -181 -103 -303c-5 -224 147 -415 382 -413z" />
    <glyph glyph-name="h" unicode="h" horiz-adv-x="1295" 
d="M1128 0h-159v636c0 101 -26 181 -77 242c-52 60 -127 90 -226 90c-95 0 -173 -33 -234 -99s-92 -148 -92 -246v-623h-159v1668h159v-771c87 145 212 217 374 217c131 0 233 -40 306 -120c72 -81 108 -187 108 -318v-676z" />
    <glyph glyph-name="i" unicode="i" horiz-adv-x="522" 
d="M176 1400c-23 23 -35 52 -35 85s12 62 35 85s52 35 85 35s62 -12 85 -35s35 -52 35 -85s-12 -62 -35 -85s-52 -35 -85 -35s-62 12 -85 35zM181 0v1093h160v-1093h-160z" />
    <glyph glyph-name="j" unicode="j" horiz-adv-x="538" 
d="M157 1485c0 66 54 120 120 120c33 0 62 -12 85 -35s35 -52 35 -85s-12 -62 -35 -85s-52 -35 -85 -35s-61 12 -84 36c-24 23 -36 51 -36 84zM197 1093h160v-1327c0 -203 -107 -312 -311 -312c-25 0 -59 5 -102 16v132c24 -5 50 -7 79 -7c112 0 174 63 174 175v1323z" />
    <glyph glyph-name="k" unicode="k" horiz-adv-x="1116" 
d="M347 547h-7v-547h-159v1669h159v-1020l520 444h227l-576 -491l603 -602h-224z" />
    <glyph glyph-name="l" unicode="l" horiz-adv-x="522" 
d="M181 0v1669h160v-1669h-160z" />
    <glyph glyph-name="m" unicode="m" horiz-adv-x="1996" 
d="M1083 0h-157v642c0 96 -24 174 -71 235s-118 91 -211 91c-92 0 -166 -34 -221 -102s-83 -149 -83 -243v-623h-159v1093h156v-189c95 140 198 210 354 210c159 0 283 -77 350 -220c93 146 221 219 384 219c129 0 228 -40 299 -120c70 -81 105 -186 105 -317v-676h-159v636
c0 98 -23 178 -70 239s-118 92 -213 92c-93 0 -167 -32 -222 -97s-82 -146 -82 -241v-629z" />
    <glyph glyph-name="n" unicode="n" horiz-adv-x="1295" 
d="M1128 0h-159v636c0 101 -26 181 -77 242c-52 60 -127 90 -226 90c-95 0 -173 -33 -234 -99s-92 -148 -92 -246v-623h-159v1093h156v-200c87 147 212 221 377 221c131 0 233 -40 306 -120c72 -81 108 -187 108 -318v-676z" />
    <glyph glyph-name="o" unicode="o" horiz-adv-x="1332" 
d="M663 -19c-103 0 -198 25 -284 75c-87 50 -155 118 -204 204s-74 180 -74 283c0 161 54 297 163 406c108 109 242 164 403 164c310 6 570 -254 564 -562c6 -317 -254 -577 -568 -570zM667 123c115 0 211 41 287 123s114 181 114 297c0 117 -38 218 -115 303
c-77 84 -173 126 -290 126c-116 0 -211 -41 -286 -123s-113 -181 -113 -298c-5 -227 170 -432 403 -428z" />
    <glyph glyph-name="p" unicode="p" horiz-adv-x="1378" 
d="M1276 548c0 -199 -85 -377 -244 -484c-80 -53 -170 -80 -271 -80c-179 0 -319 80 -421 241v-764h-159v1632h156v-237c112 171 253 257 424 257c152 0 288 -69 376 -175c87 -106 139 -247 139 -390zM730 124c117 0 210 40 279 121c69 80 104 180 104 299
c0 153 -59 287 -177 367c-59 39 -128 59 -206 59c-221 4 -398 -203 -392 -420c0 -115 37 -215 111 -299c74 -85 168 -127 281 -127z" />
    <glyph glyph-name="q" unicode="q" horiz-adv-x="1378" 
d="M102 548c0 143 52 284 140 390c87 106 223 175 372 175c104 0 194 -28 263 -79c68 -51 115 -102 163 -174v233h157v-1632h-159v769c-99 -164 -241 -246 -424 -246c-152 0 -287 66 -374 170s-138 245 -138 394zM647 124c225 -4 398 206 393 426c0 144 -69 280 -191 360
c-61 40 -129 60 -202 60c-117 0 -209 -40 -278 -121s-104 -183 -104 -305c0 -152 60 -283 178 -361c59 -39 127 -59 204 -59z" />
    <glyph glyph-name="r" unicode="r" horiz-adv-x="778" 
d="M181 1093h156v-216c53 108 141 182 225 212c41 15 84 22 128 22c25 0 43 -1 54 -4v-169c-19 3 -40 4 -62 4c-259 0 -342 -213 -342 -408v-534h-159v1093z" />
    <glyph glyph-name="s" unicode="s" horiz-adv-x="1006" 
d="M902 311c0 -97 -38 -176 -113 -237s-167 -92 -275 -92c-176 1 -289 72 -348 159c-44 60 -61 113 -68 166l146 38c18 -100 94 -223 269 -223c62 0 115 16 160 49c45 32 67 76 67 131c0 43 -18 79 -53 106c-36 27 -78 46 -126 57l-167 37c-181 40 -272 135 -272 285
c0 113 57 206 135 254s160 72 235 72c166 -1 272 -66 328 -145c41 -55 58 -101 66 -148l-145 -41c-11 43 -28 80 -64 123c-37 43 -103 71 -184 71c-59 0 -109 -17 -150 -51s-61 -75 -61 -124c0 -85 61 -125 158 -148l177 -40c143 -33 285 -124 285 -299z" />
    <glyph glyph-name="t" unicode="t" horiz-adv-x="779" 
d="M563 -9c-237 0 -310 132 -310 292v669h-202v141h202v316h159v-316h277v-141h-277v-665c0 -103 59 -154 177 -154c39 0 72 3 99 8v-132c-35 -12 -76 -18 -125 -18z" />
    <glyph glyph-name="u" unicode="u" horiz-adv-x="1294" 
d="M167 1093h159v-636c0 -101 26 -181 78 -241c51 -61 126 -91 225 -91c94 0 172 33 234 99c61 66 92 148 92 246v623h158v-1093h-156v200c-87 -147 -212 -221 -376 -221c-131 0 -232 40 -305 121s-109 186 -109 317v676z" />
    <glyph glyph-name="v" unicode="v" horiz-adv-x="1196" 
d="M682 0h-169l-465 1093h176l375 -916l379 916h171z" />
    <glyph glyph-name="w" unicode="w" horiz-adv-x="1774" 
d="M885 889l-292 -889h-175l-366 1093h169l287 -907h1l297 907h161l299 -908h1l290 908h165l-368 -1093h-178l-290 889h-1z" />
    <glyph glyph-name="x" unicode="x" horiz-adv-x="1129" 
d="M901 0l-338 445l-339 -445h-186l432 556l-416 537h188l324 -424l322 424h186l-415 -535l432 -558h-190z" />
    <glyph glyph-name="y" unicode="y" horiz-adv-x="1216" 
d="M431 -539h-173l283 613l-497 1019h183l401 -845l379 845h172z" />
    <glyph glyph-name="z" unicode="z" horiz-adv-x="1053" 
d="M276 137h685v-137h-876v137l683 819h-667v137h858v-135z" />
    <glyph glyph-name="braceleft" unicode="{" horiz-adv-x="865" 
d="M45 689v141c80 1 143 17 200 57c56 39 82 115 67 219l-33 230c-49 342 119 430 429 430h80v-139h-67c-199 0 -279 -46 -289 -145c-5 -49 -2 -112 10 -189l28 -187c14 -92 1 -306 -228 -347v-2c229 -42 245 -230 230 -334l-30 -198c-12 -77 -16 -140 -11 -189
s29 -86 74 -110c45 -23 117 -35 216 -35h67v-139h-80c-309 0 -479 87 -429 431l33 229c31 221 -118 273 -267 277z" />
    <glyph glyph-name="bar" unicode="|" horiz-adv-x="578" 
d="M211 -238v2063h156v-2063h-156z" />
    <glyph glyph-name="braceright" unicode="}" horiz-adv-x="865" 
d="M820 830v-141c-149 -4 -298 -56 -267 -277l33 -229c24 -169 -1 -282 -80 -345c-80 -63 -185 -86 -348 -86h-81v139h68c197 0 279 46 289 145c5 49 1 112 -11 189l-29 198c-15 103 1 293 230 334v2c-228 41 -244 255 -229 347l28 187c12 77 16 140 11 189s-30 86 -74 110
c-45 23 -116 35 -215 35h-68v139h81c309 0 477 -88 428 -430l-33 -230c-15 -104 11 -180 68 -219c56 -40 119 -56 199 -57z" />
    <glyph glyph-name="asciitilde" unicode="~" horiz-adv-x="1311" 
d="M882 470c-40 0 -82 10 -127 29s-84 39 -117 62s-70 44 -109 63c-40 19 -76 28 -107 28c-65 0 -105 -29 -160 -89l-100 94c63 95 161 156 270 156c45 0 90 -9 137 -28s86 -40 118 -63s67 -43 105 -62c37 -19 71 -29 100 -29c64 0 107 33 162 94l98 -94
c-59 -99 -158 -161 -270 -161z" />
    <glyph glyph-name="uni00A0" unicode="&#xa0;" horiz-adv-x="572" 
 />
    <glyph glyph-name="exclamdown" unicode="&#xa1;" horiz-adv-x="542" 
d="M186 908c-23 23 -35 52 -35 85s12 62 35 85s52 35 85 35c66 0 120 -54 120 -120c0 -33 -12 -61 -35 -84c-24 -24 -52 -36 -85 -36s-62 12 -85 35zM345 630l10 -857v-282h-169v282l10 857h149z" />
    <glyph glyph-name="cent" unicode="&#xa2;" horiz-adv-x="1276" 
d="M1034 386l148 -50c-23 -79 -75 -157 -150 -224c-76 -68 -187 -118 -310 -129v-192h-133v195c-140 17 -255 78 -344 181s-134 228 -134 376s45 274 136 378s205 166 342 186v197h133v-193c113 -9 212 -47 297 -113c84 -67 137 -145 158 -234l-147 -48
c-13 44 -42 93 -90 146c-49 52 -130 95 -221 106v-842c122 17 201 73 250 143c36 48 50 78 65 117zM274 552c0 -105 29 -197 86 -276s134 -128 232 -146v834c-95 -19 -171 -66 -230 -143s-88 -166 -88 -269z" />
    <glyph glyph-name="sterling" unicode="&#xa3;" horiz-adv-x="1327" 
d="M1076 393l159 -16c0 -131 -57 -247 -178 -321c-61 -37 -132 -56 -213 -56h-720v156c75 37 137 94 186 169s73 154 73 236c0 45 -7 94 -20 147h-233v154h182c-16 44 -28 79 -37 105s-17 59 -25 99s-12 77 -12 112c-5 250 219 448 468 442c139 0 248 -36 327 -108
s121 -165 126 -280l-161 -28c-3 65 -21 121 -61 174c-41 53 -121 87 -226 87c-85 0 -156 -28 -213 -84c-58 -56 -87 -126 -87 -209c0 -24 3 -52 7 -72c3 -21 14 -62 18 -77c2 -8 6 -22 13 -42s11 -32 13 -37c1 -5 6 -19 14 -42s13 -37 14 -40h449v-154h-401
c13 -49 19 -95 19 -138c0 -170 -68 -308 -203 -414h468c99 0 171 32 206 83s48 99 48 154z" />
    <glyph glyph-name="currency" unicode="&#xa4;" horiz-adv-x="1357" 
d="M1171 553c0 -109 -35 -206 -106 -291l172 -173l-99 -100l-178 178c-85 -56 -179 -84 -282 -84c-104 0 -197 28 -280 85l-178 -179l-100 100l174 174c-69 85 -103 181 -103 290c0 108 34 205 102 291l-173 173l100 100l177 -177c83 58 177 87 281 87s198 -29 283 -86
l177 176l99 -100l-172 -172c71 -85 106 -183 106 -292zM341 553c0 -96 32 -174 96 -235c63 -61 144 -92 241 -92c98 0 180 31 245 92s97 139 97 235c0 97 -33 176 -98 239s-147 94 -244 94s-178 -31 -241 -94c-64 -63 -96 -142 -96 -239z" />
    <glyph glyph-name="yen" unicode="&#xa5;" horiz-adv-x="1510" 
d="M1335 414v-136h-496v-278h-170v278h-495v136h495v203h-495v136h447l-543 851h203l476 -777l481 777h194l-546 -851h449v-136h-496v-203h496z" />
    <glyph glyph-name="brokenbar" unicode="&#xa6;" horiz-adv-x="572" 
d="M364 1026h-156v799h156v-799zM208 -238v800h156v-800h-156z" />
    <glyph glyph-name="section" unicode="&#xa7;" horiz-adv-x="1331" 
d="M233 1305c0 225 219 316 410 316c147 0 275 -47 352 -114c77 -68 124 -144 137 -219l-145 -37c-13 60 -51 113 -113 158c-63 45 -141 68 -235 68c-71 0 -141 -17 -196 -69c-27 -27 -41 -59 -41 -96c0 -91 97 -141 269 -185l199 -51c84 -21 145 -42 212 -75
c33 -17 61 -35 83 -54c43 -40 73 -98 73 -163c0 -161 -155 -240 -296 -263c96 -48 165 -126 165 -222c0 -108 -54 -196 -134 -247c-80 -52 -177 -78 -276 -78c-155 0 -289 54 -371 131s-132 165 -147 250l145 37c15 -67 55 -132 116 -185s156 -89 261 -89
c68 0 142 21 197 77c27 27 41 60 41 97c0 54 -38 92 -93 122c-34 19 -95 39 -139 52c-22 6 -50 13 -83 22l-104 27c-41 11 -75 20 -104 29s-61 20 -96 33s-65 28 -88 43c-74 44 -134 109 -130 200c0 77 37 144 96 185c59 40 125 66 201 78c-96 48 -166 126 -166 222z
M829 607c71 0 130 15 176 46c45 30 68 67 68 110c0 41 -23 77 -70 108s-130 61 -248 90c-95 23 -177 35 -244 35c-71 0 -130 -15 -175 -45c-46 -31 -69 -68 -69 -111c0 -40 24 -75 71 -106s129 -62 247 -91c99 -24 180 -36 244 -36z" />
    <glyph glyph-name="dieresis" unicode="&#xa8;" horiz-adv-x="684" 
d="M228 1314c-49 -49 -119 -49 -168 0c-49 48 -49 124 0 173c49 48 119 48 168 0c49 -49 49 -125 0 -173zM618 1314c-49 -49 -119 -49 -168 0c-49 48 -49 124 0 173c49 48 119 48 168 0c49 -49 49 -125 0 -173z" />
    <glyph glyph-name="copyright" unicode="&#xa9;" horiz-adv-x="1847" 
d="M1239 49c-199 -86 -431 -86 -630 0c-100 43 -186 101 -259 174s-130 160 -173 261s-64 206 -64 317s21 218 64 319s100 188 173 261s159 132 259 175s205 65 315 65s215 -22 315 -65s186 -102 259 -175c72 -73 129 -160 172 -261s64 -208 64 -319s-21 -216 -64 -317
s-100 -188 -172 -261c-73 -73 -159 -131 -259 -174zM1281 1426c-109 65 -228 97 -357 97s-248 -32 -356 -97c-109 -65 -194 -152 -256 -263s-93 -231 -93 -362c0 -98 18 -191 55 -280s86 -165 149 -229c62 -64 137 -115 224 -153s180 -57 277 -57s189 19 276 57
s162 89 225 153s112 140 149 229s55 182 55 280c0 131 -31 251 -93 362s-147 198 -255 263zM1246 662l144 -48c-25 -85 -79 -159 -162 -222c-83 -64 -183 -96 -300 -96c-143 0 -263 48 -358 143s-143 215 -143 360c-5 292 234 517 507 511c109 0 206 -30 291 -90
c85 -61 138 -135 159 -223l-142 -46c-13 45 -43 92 -92 140s-130 81 -221 81c-99 0 -181 -35 -246 -106s-98 -157 -98 -259c0 -103 31 -191 94 -263c63 -73 146 -109 250 -109c96 0 177 34 226 86c48 51 72 92 91 141z" />
    <glyph glyph-name="ordfeminine" unicode="&#xaa;" horiz-adv-x="1159" 
d="M825 920h-5c-45 -85 -147 -141 -263 -141c-109 0 -198 39 -267 117c-69 77 -104 169 -104 276c0 99 39 198 103 272c63 74 161 123 268 123c116 0 212 -61 263 -146h5v133h146v-765h-146v131zM826 1174c0 69 -24 129 -71 181c-47 51 -105 77 -173 77
c-73 0 -132 -25 -177 -74c-46 -50 -69 -113 -69 -188c0 -71 24 -132 71 -182c47 -51 105 -76 175 -76s128 26 175 78c46 51 69 113 69 184zM166 564h777v-135h-777v135z" />
    <glyph glyph-name="guillemotleft" unicode="&#xab;" horiz-adv-x="1161" 
d="M97 617l369 370l98 -97l-260 -269l260 -271l-98 -96zM548 617l370 370l97 -97l-260 -269l260 -271l-97 -96z" />
    <glyph glyph-name="logicalnot" unicode="&#xac;" horiz-adv-x="1349" 
d="M1027 540v380h-900v150h1052v-530h-152z" />
    <glyph glyph-name="uni00AD" unicode="&#xad;" horiz-adv-x="893" 
d="M153 556v169h587v-169h-587z" />
    <glyph glyph-name="registered" unicode="&#xae;" horiz-adv-x="1260" 
d="M629 562c-94 0 -181 24 -261 71s-143 112 -189 193c-47 81 -70 169 -70 265c0 144 59 280 152 374s227 154 368 154c282 6 528 -244 522 -528c6 -286 -240 -535 -522 -529zM629 1541c-120 0 -223 -44 -308 -132s-128 -194 -128 -318c-5 -243 201 -457 436 -451
c234 -6 444 208 438 451c0 124 -43 230 -128 318c-86 88 -189 132 -310 132zM421 1409h215c148 0 229 -82 229 -194c0 -97 -62 -161 -149 -184l176 -258h-122l-165 241h-82v-241h-102v636zM731 1143c59 58 39 173 -99 167h-109v-199l108 1c45 1 79 11 100 31z" />
    <glyph glyph-name="degree" unicode="&#xb0;" horiz-adv-x="935" 
d="M466 903c-98 0 -182 35 -251 105c-70 69 -105 154 -105 254c0 97 35 181 105 251s154 105 251 105c100 0 185 -35 255 -105c69 -70 104 -154 104 -251c0 -101 -35 -186 -104 -255s-154 -104 -255 -104zM466 1482c-62 0 -114 -21 -156 -64c-43 -43 -64 -95 -64 -156
s21 -114 64 -157c43 -44 95 -66 156 -66c62 0 115 22 158 66c43 43 64 96 64 157c0 59 -22 110 -66 154c-45 44 -97 66 -156 66z" />
    <glyph glyph-name="plusminus" unicode="&#xb1;" horiz-adv-x="1334" 
d="M589 835v371h156v-371h444v-149h-444v-376h-156v376h-444v149h444zM149 168v-148h1036v148h-1036z" />
    <glyph glyph-name="uni00B2" unicode="&#xb2;" horiz-adv-x="957" 
d="M136 872v44c3 67 15 119 50 168c24 35 38 55 75 86c18 15 32 28 43 37s27 20 50 35c22 14 38 24 49 31c10 6 27 16 52 31c24 14 40 23 48 28c103 61 158 122 158 198c0 45 -17 83 -50 115c-34 31 -78 47 -131 47c-127 0 -187 -72 -196 -183l-137 21
c10 154 117 294 335 294c94 0 171 -28 232 -85c60 -57 90 -125 90 -205c0 -109 -71 -217 -180 -285l-159 -98c-93 -57 -143 -106 -149 -149h494v-130h-674z" />
    <glyph glyph-name="uni00B3" unicode="&#xb3;" horiz-adv-x="923" 
d="M800 1146c0 -59 -17 -112 -51 -158c-35 -46 -78 -80 -130 -103s-107 -35 -165 -35c-95 0 -174 27 -236 81c-63 54 -98 128 -106 222l134 22c11 -124 86 -195 210 -195c53 0 100 16 140 48s60 74 60 126c0 48 -19 87 -58 117c-39 29 -84 44 -133 44c-35 0 -66 -7 -93 -21
l-68 108l317 273h-482v130h646v-152l-255 -219c77 -10 142 -41 193 -94s77 -117 77 -194z" />
    <glyph glyph-name="acute" unicode="&#xb4;" horiz-adv-x="491" 
d="M265 1632h194l-263 -352h-153z" />
    <glyph glyph-name="uni00B5" unicode="&#xb5;" horiz-adv-x="1353" 
d="M362 1093v-636c0 -101 26 -181 78 -241c51 -61 126 -91 225 -91c94 0 172 33 234 99c61 66 92 148 92 246v623h158v-1093h-156v200c-87 -147 -212 -221 -376 -221c-104 0 -190 26 -257 79v-394h-157v1429h159z" />
    <glyph glyph-name="paragraph" unicode="&#xb6;" horiz-adv-x="1038" 
d="M643 781h-154c-113 0 -210 40 -291 121s-121 178 -121 292s40 211 121 291c80 79 177 119 291 119h317v-1604h-163v781z" />
    <glyph glyph-name="middot" unicode="&#xb7;" horiz-adv-x="600" 
d="M196 544c-29 29 -43 63 -43 104s14 75 43 104s63 43 104 43s75 -14 104 -43s43 -63 43 -104s-14 -75 -43 -104s-63 -43 -104 -43s-75 14 -104 43z" />
    <glyph glyph-name="uni00B9" unicode="&#xb9;" horiz-adv-x="623" 
d="M325 1805h129v-933l-143 -1v780l-193 -112l-62 106z" />
    <glyph glyph-name="ordmasculine" unicode="&#xba;" horiz-adv-x="1137" 
d="M567 779c-111 0 -204 38 -281 114c-77 75 -116 168 -116 277c0 113 38 207 115 283s172 114 285 114c111 0 205 -38 282 -113c77 -76 115 -169 115 -278c0 -113 -38 -207 -115 -283s-172 -114 -285 -114zM567 1433c-71 0 -130 -25 -176 -74c-47 -50 -70 -111 -70 -183
c0 -73 24 -135 71 -186s106 -77 178 -77c71 0 130 25 177 75s70 111 70 182c0 73 -24 135 -71 186s-107 77 -179 77zM180 564h777v-135h-777v135z" />
    <glyph glyph-name="guillemotright" unicode="&#xbb;" horiz-adv-x="1149" 
d="M244 254l-98 96l260 265l-260 275l98 97l369 -370zM683 254l-98 96l261 265l-261 275l98 97l369 -370z" />
    <glyph glyph-name="onequarter" unicode="&#xbc;" horiz-adv-x="1766" 
d="M328 1450v-780h143v933l-129 1l-269 -161l62 -105zM1410 1604l-1046 -1604h-163l1046 1604h163zM1336 935h174v-601h168v-130h-168v-204h-142v204h-509v158zM1003 334h365v438z" />
    <glyph glyph-name="onehalf" unicode="&#xbd;" horiz-adv-x="1786" 
d="M329 1450v-780h143v933l-129 1l-269 -161l62 -105zM345 0h-163l1046 1604h163zM1186 130h494v-130h-674v44c3 67 15 119 50 169c24 35 38 56 74 86c39 32 49 41 94 71c21 14 38 24 49 31s29 17 52 31c23 13 39 23 48 29c105 63 157 129 157 198c0 44 -17 82 -50 114
c-34 31 -77 47 -130 47c-127 0 -187 -72 -196 -183l-138 21c6 83 38 153 95 210c57 56 138 84 241 84c94 0 171 -28 231 -85s90 -125 90 -205c0 -109 -71 -218 -180 -285l-159 -97c-93 -56 -142 -106 -148 -150z" />
    <glyph glyph-name="threequarters" unicode="&#xbe;" horiz-adv-x="1982" 
d="M781 945c0 -59 -17 -112 -51 -158c-35 -46 -78 -80 -130 -103s-107 -35 -165 -35c-95 0 -174 27 -236 81c-63 54 -98 128 -106 222l134 22c12 -124 86 -195 210 -195c53 0 100 16 140 48s60 74 60 126c0 49 -19 88 -58 117s-83 44 -133 44c-35 0 -66 -7 -93 -21l-68 108
l317 273h-482v130h646v-152l-255 -219c77 -10 142 -41 193 -94s77 -117 77 -194zM1471 1604h163l-1046 -1604h-163zM1083 362l477 573h174v-601h169v-130h-169v-204h-141v204h-510v158zM1593 334v438l-365 -438h365z" />
    <glyph glyph-name="questiondown" unicode="&#xbf;" horiz-adv-x="1089" 
d="M698 993c0 66 -54 120 -120 120s-120 -54 -120 -120s54 -120 120 -120c33 0 62 12 85 36c23 23 35 51 35 84zM493 630h157c1 -16 2 -28 2 -36c0 -53 -7 -100 -26 -143s-30 -69 -62 -108c-16 -19 -28 -34 -37 -43s-23 -24 -42 -43s-32 -32 -38 -39c-9 -10 -25 -26 -46 -47
c-22 -22 -38 -39 -49 -50s-24 -27 -41 -48c-33 -42 -46 -69 -58 -113c-7 -22 -10 -44 -10 -67c0 -73 26 -135 77 -186s125 -76 223 -76c101 0 179 33 234 98s80 148 74 249l164 -7c1 -21 2 -37 2 -48c0 -85 -22 -163 -65 -232c-44 -69 -102 -123 -174 -161
c-73 -37 -151 -56 -235 -56c-140 0 -264 50 -344 126c-80 77 -127 183 -127 292c0 77 19 143 68 212c25 35 49 65 72 91c23 25 56 60 99 103l14 14c31 31 54 55 69 71c14 16 30 38 49 65c36 54 49 107 50 182z" />
    <glyph glyph-name="Agrave" unicode="&#xc0;" horiz-adv-x="1588" 
d="M872 1751h-153l-263 352h194zM889 1604l692 -1604h-178l-175 410h-873l-176 -410h-172l691 1604h191zM1163 563l-373 867l-372 -867h745z" />
    <glyph glyph-name="Aacute" unicode="&#xc1;" horiz-adv-x="1588" 
d="M938 2103h194l-263 -352h-153zM889 1604l692 -1604h-178l-175 410h-873l-176 -410h-172l691 1604h191zM1163 563l-373 867l-372 -867h745z" />
    <glyph glyph-name="Acircumflex" unicode="&#xc2;" horiz-adv-x="1588" 
d="M709 2102h159l282 -353h-170l-186 242h-5l-183 -242h-171zM889 1604l692 -1604h-178l-175 410h-873l-176 -410h-172l691 1604h191zM1163 563l-373 867l-372 -867h745z" />
    <glyph glyph-name="Atilde" unicode="&#xc3;" horiz-adv-x="1588" 
d="M929 1792c-53 0 -106 25 -138 50c-33 25 -83 50 -131 50c-44 0 -71 -33 -82 -98h-115c1 69 17 125 49 170c32 44 81 66 147 66c88 4 191 -102 272 -98c45 0 75 31 90 94h100c-1 -69 -17 -126 -47 -169c-31 -43 -79 -65 -145 -65zM889 1604l692 -1604h-178l-175 410h-873
l-176 -410h-172l691 1604h191zM1163 563l-373 867l-372 -867h745z" />
    <glyph glyph-name="Adieresis" unicode="&#xc4;" horiz-adv-x="1588" 
d="M669 1794c-49 -49 -119 -49 -168 0c-49 48 -49 124 0 173c49 48 119 48 168 0c49 -49 49 -125 0 -173zM1079 1794c-49 -49 -119 -49 -168 0c-49 48 -49 124 0 173c49 48 119 48 168 0c49 -49 49 -125 0 -173zM889 1604l692 -1604h-178l-175 410h-873l-176 -410h-172
l691 1604h191zM1163 563l-373 867l-372 -867h745z" />
    <glyph glyph-name="Aring" unicode="&#xc5;" horiz-adv-x="1588" 
d="M7 0l645 1497c-89 48 -147 138 -147 241c0 74 28 138 84 192c56 53 123 80 201 80c79 0 147 -27 203 -80s84 -117 84 -192c0 -100 -56 -190 -143 -238l647 -1500h-178l-175 410h-873l-176 -410h-172zM790 1896c-46 0 -85 -15 -116 -45c-32 -31 -48 -68 -48 -113
s16 -83 48 -114c31 -32 70 -48 116 -48s85 16 117 48c32 31 48 69 48 114c0 42 -16 79 -49 111c-33 31 -72 47 -116 47zM418 563h745l-373 867z" />
    <glyph glyph-name="AE" unicode="&#xc6;" horiz-adv-x="2145" 
d="M2013 1448h-836v-555h764v-155h-764v-582h844l-1 -156h-1009v410h-613l-233 -410h-183l921 1604h1109zM989 1453l-505 -890h527v890h-22z" />
    <glyph glyph-name="Ccedilla" unicode="&#xc7;" horiz-adv-x="1719" 
d="M1478 573l162 -58c-24 -83 -61 -164 -136 -258c-37 -47 -80 -89 -127 -126c-95 -73 -238 -133 -397 -145c47 -58 70 -119 70 -184c0 -93 -32 -166 -96 -220c-65 -54 -145 -81 -242 -81c-56 0 -107 8 -154 23v126c46 -12 93 -18 140 -18c133 0 208 71 208 194
c0 59 -22 113 -67 160c-204 16 -387 107 -518 246s-210 341 -210 565c0 119 22 230 65 334c43 103 102 191 175 262s158 126 257 167s202 61 311 61c168 0 321 -50 426 -122c52 -36 99 -77 140 -124c82 -94 126 -189 149 -282l-161 -57c-13 52 -34 110 -94 194
c-30 42 -64 79 -103 112s-91 61 -154 84s-132 35 -207 35c-169 0 -328 -68 -442 -181s-186 -284 -186 -473c-6 -374 272 -671 629 -664c147 0 275 51 352 112c38 30 73 67 104 110s53 80 68 111c14 31 27 63 38 97z" />
    <glyph glyph-name="Egrave" unicode="&#xc8;" horiz-adv-x="1360" 
d="M837 1751h-154l-262 352h194zM1156 893v-155h-764v-582h843v-156h-1012v1604h1004v-156h-835v-555h764z" />
    <glyph glyph-name="Eacute" unicode="&#xc9;" horiz-adv-x="1360" 
d="M1037 2103h-194l-222 -352h153zM392 1448v-555h764v-155h-764v-582h843v-156h-1012v1604h1004v-156h-835z" />
    <glyph glyph-name="Ecircumflex" unicode="&#xca;" horiz-adv-x="1360" 
d="M646 2102h159l282 -353h-170l-186 242h-5l-183 -242h-171zM1156 893v-155h-764v-582h843v-156h-1012v1604h1004v-156h-835v-555h764z" />
    <glyph glyph-name="Edieresis" unicode="&#xcb;" horiz-adv-x="1359" 
d="M603 1794c-49 -49 -119 -49 -168 0c-49 48 -49 124 0 173c49 48 119 48 168 0c49 -49 49 -125 0 -173zM1013 1794c-49 -49 -119 -49 -168 0c-49 48 -49 124 0 173c49 48 119 48 168 0c49 -49 49 -125 0 -173zM1155 893v-155h-764v-582h843v-156h-1011v1604h1003v-156
h-835v-555h764z" />
    <glyph glyph-name="Igrave" unicode="&#xcc;" horiz-adv-x="614" 
d="M385 1751h-153l-263 352h194zM391 1604v-1604h-168v1604h168z" />
    <glyph glyph-name="Iacute" unicode="&#xcd;" horiz-adv-x="614" 
d="M645 2103h-194l-222 -352h153zM223 0v1604h168v-1604h-168z" />
    <glyph glyph-name="Icircumflex" unicode="&#xce;" horiz-adv-x="614" 
d="M224 2102h159l282 -353h-170l-186 242h-5l-183 -242h-171zM391 1604v-1604h-168v1604h168z" />
    <glyph glyph-name="Idieresis" unicode="&#xcf;" horiz-adv-x="614" 
d="M186 1794c-49 -49 -119 -49 -168 0c-49 48 -49 124 0 173c49 48 119 48 168 0c49 -49 49 -125 0 -173zM596 1794c-49 -49 -119 -49 -168 0c-49 48 -49 124 0 173c49 48 119 48 168 0c49 -49 49 -125 0 -173zM391 1604v-1604h-168v1604h168z" />
    <glyph glyph-name="Eth" unicode="&#xd0;" horiz-adv-x="1680" 
d="M247 1604h476c123 0 238 -20 344 -61s196 -97 269 -168c147 -142 234 -346 234 -570c0 -156 -38 -296 -113 -419c-76 -123 -178 -218 -306 -285c-129 -67 -271 -101 -428 -101h-476v736h-217v157h217v711zM415 158h303c133 0 251 28 354 83s183 131 240 228
c56 97 84 208 84 332c0 245 -113 448 -320 561c-104 56 -224 84 -360 84h-301v-553h392v-157h-392v-578z" />
    <glyph glyph-name="Ntilde" unicode="&#xd1;" horiz-adv-x="1756" 
d="M1055 1792c-53 0 -106 25 -138 50c-33 25 -83 50 -131 50c-44 0 -71 -33 -82 -98h-115c1 69 17 125 49 170c32 44 81 66 147 66c88 4 191 -102 272 -98c45 0 75 31 90 94h100c-1 -69 -17 -126 -47 -169c-31 -43 -79 -65 -145 -65zM223 0v1604h197l947 -1348v1348h166
v-1604h-184l-957 1365v-1365h-169z" />
    <glyph glyph-name="Ograve" unicode="&#xd2;" horiz-adv-x="1834" 
d="M852 1751h153l-222 352h-194zM1724 806c0 -152 -35 -291 -104 -416c-70 -125 -167 -224 -291 -297s-262 -110 -414 -110c-113 0 -219 21 -319 64c-100 42 -185 99 -256 172c-71 72 -127 158 -168 259c-41 100 -62 206 -62 319c0 151 35 290 105 416
c70 125 167 225 291 298s262 109 414 109c113 0 219 -21 319 -63c100 -43 185 -100 256 -172c71 -73 127 -159 168 -259c41 -101 61 -207 61 -320zM1549 797c0 179 -66 348 -176 469c-110 120 -275 197 -458 197c-180 0 -345 -75 -454 -194s-176 -286 -176 -463
c0 -120 27 -230 80 -331s129 -182 227 -243c97 -61 207 -91 328 -91c120 0 228 30 325 89s172 139 225 239c53 99 79 209 79 328z" />
    <glyph glyph-name="Oacute" unicode="&#xd3;" horiz-adv-x="1834" 
d="M1245 2103h-194l-222 -352h153zM1724 806c0 -152 -35 -291 -104 -416c-70 -125 -167 -224 -291 -297s-262 -110 -414 -110c-113 0 -219 21 -319 64c-100 42 -185 99 -256 172c-71 72 -127 158 -168 259c-41 100 -62 206 -62 319c0 151 35 290 105 416
c70 125 167 225 291 298s262 109 414 109c113 0 219 -21 319 -63c100 -43 185 -100 256 -172c71 -73 127 -159 168 -259c41 -101 61 -207 61 -320zM1549 797c0 179 -66 348 -176 469c-110 120 -275 197 -458 197c-180 0 -345 -75 -454 -194s-176 -286 -176 -463
c0 -120 27 -230 80 -331s129 -182 227 -243c97 -61 207 -91 328 -91c120 0 228 30 325 89s172 139 225 239c53 99 79 209 79 328z" />
    <glyph glyph-name="Ocircumflex" unicode="&#xd4;" horiz-adv-x="1834" 
d="M992 2102h-159l-273 -353h170l183 242h5l186 -242h170zM1724 806c0 -152 -35 -291 -104 -416c-70 -125 -167 -224 -291 -297s-262 -110 -414 -110c-113 0 -219 21 -319 64c-100 42 -185 99 -256 172c-71 72 -127 158 -168 259c-41 100 -62 206 -62 319
c0 151 35 290 105 416c70 125 167 225 291 298s262 109 414 109c113 0 219 -21 319 -63c100 -43 185 -100 256 -172c71 -73 127 -159 168 -259c41 -101 61 -207 61 -320zM1549 797c0 179 -66 348 -176 469c-110 120 -275 197 -458 197c-180 0 -345 -75 -454 -194
s-176 -286 -176 -463c0 -120 27 -230 80 -331s129 -182 227 -243c97 -61 207 -91 328 -91c120 0 228 30 325 89s172 139 225 239c53 99 79 209 79 328z" />
    <glyph glyph-name="Otilde" unicode="&#xd5;" horiz-adv-x="1834" 
d="M1054 1792c-53 0 -106 25 -138 50c-33 25 -83 50 -131 50c-44 0 -71 -33 -82 -98h-115c1 69 17 125 49 170c32 44 81 66 147 66c88 4 191 -102 272 -98c45 0 75 31 90 94h100c-1 -69 -17 -126 -47 -169c-31 -43 -79 -65 -145 -65zM1724 806c0 -152 -35 -291 -104 -416
c-70 -125 -167 -224 -291 -297s-262 -110 -414 -110c-113 0 -219 21 -319 64c-100 42 -185 99 -256 172c-71 72 -127 158 -168 259c-41 100 -62 206 -62 319c0 151 35 290 105 416c70 125 167 225 291 298s262 109 414 109c113 0 219 -21 319 -63c100 -43 185 -100 256 -172
c71 -73 127 -159 168 -259c41 -101 61 -207 61 -320zM1549 797c0 179 -66 348 -176 469c-110 120 -275 197 -458 197c-180 0 -345 -75 -454 -194s-176 -286 -176 -463c0 -120 27 -230 80 -331s129 -182 227 -243c97 -61 207 -91 328 -91c120 0 228 30 325 89
s172 139 225 239c53 99 79 209 79 328z" />
    <glyph glyph-name="Odieresis" unicode="&#xd6;" horiz-adv-x="1833" 
d="M798 1794c49 48 49 124 0 173c-49 48 -119 48 -168 0c-49 -49 -49 -125 0 -173c49 -49 119 -49 168 0zM1208 1794c49 48 49 124 0 173c-49 48 -119 48 -168 0c-49 -49 -49 -125 0 -173c49 -49 119 -49 168 0zM1723 806c0 -152 -35 -291 -104 -416
c-70 -125 -167 -224 -291 -297s-262 -110 -414 -110c-113 0 -219 21 -319 64c-100 42 -185 99 -256 172c-71 72 -126 158 -167 259c-41 100 -62 206 -62 319c0 151 35 290 105 416c69 125 166 225 290 298s262 109 414 109c113 0 219 -21 319 -63c100 -43 185 -100 256 -172
c71 -73 127 -159 168 -259c41 -101 61 -207 61 -320zM1548 797c0 179 -66 348 -176 469c-110 120 -275 197 -458 197c-120 0 -228 -30 -325 -89c-97 -60 -171 -140 -224 -239c-53 -100 -80 -210 -80 -329c0 -179 67 -348 177 -468s274 -197 457 -197c120 0 228 30 325 89
s172 139 225 239c53 99 79 209 79 328z" />
    <glyph glyph-name="multiply" unicode="&#xd7;" horiz-adv-x="1274" 
d="M249 1229l389 -393l388 393l102 -104l-388 -389l388 -389l-102 -104l-388 391l-389 -391l-102 104l389 389l-389 389z" />
    <glyph glyph-name="Oslash" unicode="&#xd8;" horiz-adv-x="1844" 
d="M1734 1581l-208 -228c129 -145 203 -338 203 -547c0 -152 -35 -291 -104 -416c-70 -125 -167 -224 -291 -297s-262 -110 -414 -110c-187 0 -351 54 -492 163l-210 -228l-104 100l207 227c-131 147 -205 340 -205 552c0 151 35 290 105 416c69 125 166 225 290 298
s262 109 414 109c187 0 352 -56 496 -168l209 229zM291 806c0 -167 49 -311 146 -434l873 956c-111 90 -241 135 -390 135c-120 0 -228 -30 -325 -89c-97 -60 -171 -140 -224 -239c-53 -100 -80 -210 -80 -329zM1554 797c0 164 -48 307 -144 429l-872 -955
c111 -87 240 -130 387 -130c120 0 228 30 325 89s172 139 225 239c53 99 79 209 79 328z" />
    <glyph glyph-name="Ugrave" unicode="&#xd9;" horiz-adv-x="1610" 
d="M893 1751h-153l-263 352h194zM1408 1604v-977c0 -203 -53 -360 -158 -473c-106 -113 -254 -170 -445 -170s-340 57 -445 172c-105 114 -158 267 -158 460v988h169v-980c0 -169 47 -298 128 -372s185 -110 313 -110c137 0 243 41 317 124s111 199 111 349v989h168z" />
    <glyph glyph-name="Uacute" unicode="&#xda;" horiz-adv-x="1610" 
d="M1133 2103h-194l-222 -352h153zM1240 615v989h168v-977c0 -203 -53 -360 -158 -473c-106 -113 -254 -170 -445 -170s-340 57 -445 172c-105 114 -158 267 -158 460v988h169v-980c0 -169 47 -298 128 -372s185 -110 313 -110c137 0 243 41 317 124s111 199 111 349z" />
    <glyph glyph-name="Ucircumflex" unicode="&#xdb;" horiz-adv-x="1610" 
d="M721 2102h159l282 -353h-170l-186 242h-5l-183 -242h-170zM1408 1604v-977c0 -203 -53 -360 -158 -473c-106 -113 -254 -170 -445 -170s-340 57 -445 172c-105 114 -158 267 -158 460v988h169v-980c0 -169 47 -298 128 -372s185 -110 313 -110c137 0 243 41 317 124
s111 199 111 349v989h168z" />
    <glyph glyph-name="Udieresis" unicode="&#xdc;" horiz-adv-x="1609" 
d="M684 1794c-49 -49 -119 -49 -168 0c-49 48 -49 124 0 173c49 48 119 48 168 0c49 -49 49 -125 0 -173zM1094 1794c-49 -49 -119 -49 -168 0c-49 48 -49 124 0 173c49 48 119 48 168 0c49 -49 49 -125 0 -173zM1407 1604v-977c0 -203 -53 -360 -158 -473
c-106 -113 -254 -170 -445 -170s-339 57 -444 172c-105 114 -158 267 -158 460v988h168v-980c0 -169 47 -298 128 -372s185 -110 313 -110c137 0 243 41 317 124s111 199 111 349v989h168z" />
    <glyph glyph-name="Yacute" unicode="&#xdd;" horiz-adv-x="1519" 
d="M1088 2103h-194l-222 -352h153zM1274 1604h193l-622 -927v-677h-170v676l-622 928h203l507 -767z" />
    <glyph glyph-name="Thorn" unicode="&#xde;" horiz-adv-x="1393" 
d="M1321 816c0 -139 -52 -260 -148 -351c-96 -92 -253 -147 -442 -147h-340v-318h-168v1604h168v-307l367 -1c187 0 339 -57 428 -147c88 -90 135 -205 135 -333zM1151 810c0 96 -33 192 -126 259c-60 42 -159 70 -280 70h-354v-666h346c141 0 255 43 319 108
c63 65 95 144 95 229z" />
    <glyph glyph-name="germandbls" unicode="&#xdf;" horiz-adv-x="1304" 
d="M1236 297c0 -94 -35 -170 -105 -228c-71 -58 -155 -87 -254 -87c-113 0 -210 40 -265 100c-56 59 -86 130 -87 201l147 37c3 -74 45 -201 209 -201c51 0 96 15 135 45c39 29 58 70 58 121c0 56 -18 99 -66 136c-24 18 -44 31 -59 40s-40 21 -74 37c-5 2 -8 4 -10 5
l-21 10c-67 32 -112 58 -137 77c-57 47 -86 109 -86 187c-5 66 32 128 63 165c9 12 24 26 43 42c19 15 32 26 41 33c9 6 24 17 45 32l24 17c45 32 66 48 97 83s44 75 44 124c0 79 -30 142 -89 189c-60 47 -131 70 -213 70c-228 0 -338 -195 -338 -396v-1136h-157v1151
c0 157 44 283 133 379c88 95 209 143 362 143c117 0 229 -33 318 -96s147 -169 147 -298c0 -79 -23 -146 -63 -197c-41 -51 -76 -79 -129 -115l-22 -15c-53 -36 -90 -64 -109 -85c-20 -21 -30 -48 -30 -80c0 -41 11 -69 47 -94c17 -13 34 -23 51 -31c16 -8 41 -19 75 -34
l21 -9c73 -31 134 -74 182 -128c48 -55 72 -119 72 -194z" />
    <glyph glyph-name="agrave" unicode="&#xe0;" 
d="M664 1280h-153l-263 352h194zM840 631v74c0 175 -97 265 -278 265c-88 0 -163 -28 -207 -72c-45 -45 -72 -95 -81 -151l-153 33c3 57 54 163 155 243c64 51 170 90 290 90c199 0 332 -75 398 -226c22 -50 33 -110 33 -181v-308c0 -183 6 -316 18 -398h-160
c-9 49 -14 113 -14 192h-1c-91 -141 -214 -211 -369 -211c-109 0 -198 30 -265 91c-68 61 -102 138 -102 231v12c0 237 238 316 433 316h303zM840 499h-305c-65 0 -123 -10 -178 -36c-56 -26 -92 -78 -92 -147c0 -60 22 -107 67 -142c44 -35 100 -52 167 -52
c98 0 179 32 244 95s97 145 97 244v38z" />
    <glyph glyph-name="aacute" unicode="&#xe1;" 
d="M689 1632h194l-263 -352h-153zM840 631v74c0 175 -97 265 -278 265c-88 0 -163 -28 -207 -72c-45 -45 -72 -95 -81 -151l-153 33c3 57 54 163 155 243c64 51 170 90 290 90c199 0 332 -75 398 -226c22 -50 33 -110 33 -181v-308c0 -183 6 -316 18 -398h-160
c-9 49 -14 113 -14 192h-1c-91 -141 -214 -211 -369 -211c-109 0 -198 30 -265 91c-68 61 -102 138 -102 231v12c0 237 238 316 433 316h303zM840 499h-305c-65 0 -123 -10 -178 -36c-56 -26 -92 -78 -92 -147c0 -60 22 -107 67 -142c44 -35 100 -52 167 -52
c98 0 179 32 244 95s97 145 97 244v38z" />
    <glyph glyph-name="acircumflex" unicode="&#xe2;" 
d="M492 1633h159l282 -353h-170l-186 242h-5l-183 -242h-171zM840 631v74c0 175 -97 265 -278 265c-88 0 -163 -28 -207 -72c-45 -45 -72 -95 -81 -151l-153 33c3 57 54 163 155 243c64 51 170 90 290 90c199 0 332 -75 398 -226c22 -50 33 -110 33 -181v-308
c0 -183 6 -316 18 -398h-160c-9 49 -14 113 -14 192h-1c-91 -141 -214 -211 -369 -211c-109 0 -198 30 -265 91c-68 61 -102 138 -102 231v12c0 237 238 316 433 316h303zM840 499h-305c-65 0 -123 -10 -178 -36c-56 -26 -92 -78 -92 -147c0 -60 22 -107 67 -142
c44 -35 100 -52 167 -52c98 0 179 32 244 95s97 145 97 244v38z" />
    <glyph glyph-name="atilde" unicode="&#xe3;" 
d="M693 1280c-53 0 -106 25 -138 50c-33 25 -83 50 -131 50c-44 0 -71 -33 -82 -98h-116c1 69 17 125 49 170c32 44 81 66 148 66c88 4 191 -102 272 -98c45 0 75 31 90 94h100c-1 -69 -17 -126 -47 -169c-31 -43 -79 -65 -145 -65zM840 631v74c0 175 -97 265 -278 265
c-88 0 -163 -28 -207 -72c-45 -45 -72 -95 -81 -151l-153 33c3 57 54 163 155 243c64 51 170 90 290 90c199 0 332 -75 398 -226c22 -50 33 -110 33 -181v-308c0 -183 6 -316 18 -398h-160c-9 49 -14 113 -14 192h-1c-91 -141 -214 -211 -369 -211c-109 0 -198 30 -265 91
c-68 61 -102 138 -102 231v12c0 237 238 316 433 316h303zM840 499h-305c-65 0 -123 -10 -178 -36c-56 -26 -92 -78 -92 -147c0 -60 22 -107 67 -142c44 -35 100 -52 167 -52c98 0 179 32 244 95s97 145 97 244v38z" />
    <glyph glyph-name="adieresis" unicode="&#xe4;" 
d="M457 1314c49 48 49 124 0 173c-49 48 -119 48 -168 0c-49 -49 -49 -125 0 -173c49 -49 119 -49 168 0zM847 1314c49 48 49 124 0 173c-49 48 -119 48 -168 0c-49 -49 -49 -125 0 -173c49 -49 119 -49 168 0zM537 631h303v74c0 175 -97 265 -278 265
c-88 0 -163 -28 -207 -72c-45 -45 -72 -95 -81 -151l-153 33c3 57 54 163 155 243c64 51 170 90 290 90c199 0 332 -75 398 -226c22 -50 33 -110 33 -181v-308c0 -183 6 -316 18 -398h-160c-9 49 -14 113 -14 192h-1c-91 -141 -214 -211 -369 -211c-109 0 -198 30 -265 91
c-68 61 -102 138 -102 231v12c0 237 238 316 433 316zM840 461v38h-305c-65 0 -123 -10 -178 -36c-56 -26 -92 -78 -92 -147c0 -60 22 -107 67 -142c44 -35 100 -52 167 -52c98 0 179 32 244 95s97 145 97 244z" />
    <glyph glyph-name="aring" unicode="&#xe5;" 
d="M997 706v-308c0 -183 6 -316 18 -398h-160c-9 49 -14 113 -14 192h-1c-91 -141 -214 -211 -369 -211c-109 0 -198 30 -265 91c-68 61 -102 138 -102 231v12c0 237 238 316 433 316h303v74c0 175 -97 265 -278 265c-88 0 -163 -28 -207 -72c-45 -45 -72 -95 -81 -151
l-153 33c5 53 33 122 110 202c38 39 83 70 134 92c-57 53 -85 117 -85 193c0 75 28 139 84 192s123 80 202 80s147 -27 203 -80c55 -53 83 -117 83 -192c0 -73 -27 -137 -80 -190c89 -37 153 -100 192 -190c22 -50 33 -110 33 -181zM566 1426c-47 0 -86 -15 -117 -46
c-32 -31 -48 -68 -48 -113s16 -83 48 -114s71 -47 117 -47s85 16 117 47c31 31 47 69 47 114c0 42 -16 79 -49 111s-72 48 -115 48zM840 499h-305c-65 0 -123 -10 -178 -36c-56 -26 -92 -78 -92 -147c0 -60 22 -107 67 -142c44 -35 100 -52 167 -52c98 0 179 32 244 95
s97 145 97 244v38z" />
    <glyph glyph-name="ae" unicode="&#xe6;" horiz-adv-x="1981" 
d="M844 630v75c0 175 -98 265 -279 265c-89 0 -157 -21 -205 -64s-77 -96 -88 -157l-151 31c2 57 55 163 156 243c64 51 171 90 291 90c197 0 335 -89 386 -228c43 69 102 125 177 166s155 62 242 62c163 0 290 -52 379 -156c89 -105 134 -240 134 -406c0 -12 -1 -30 -2 -54
h-887c3 -104 43 -192 120 -265c76 -73 167 -109 274 -109c164 0 287 82 338 234l142 -45c-31 -103 -91 -184 -180 -243s-189 -88 -300 -88c-99 0 -188 23 -269 69s-145 108 -194 187c-99 -171 -246 -256 -443 -256h-6c-111 0 -202 30 -271 91s-104 138 -104 231v12
c0 113 57 200 145 247c87 47 184 68 288 68h307zM998 633h727c-9 101 -44 183 -107 246c-63 62 -146 93 -248 93c-93 0 -176 -34 -248 -101c-73 -68 -114 -147 -124 -238zM844 499h-309c-65 0 -123 -10 -178 -36c-56 -26 -92 -78 -92 -147c0 -60 23 -107 68 -142
s101 -52 169 -52c98 0 180 32 245 95s97 145 97 244v38z" />
    <glyph glyph-name="ccedilla" unicode="&#xe7;" horiz-adv-x="1258" 
d="M1024 386l148 -50c-23 -77 -73 -154 -145 -220c-73 -66 -180 -118 -297 -131c47 -57 71 -118 71 -183c0 -93 -32 -166 -96 -220c-65 -54 -145 -81 -242 -81c-56 0 -107 8 -154 23v126c45 -12 91 -18 140 -18c133 0 207 71 207 194c0 60 -22 113 -65 159
c-143 15 -261 75 -352 178c-92 103 -138 229 -138 380c0 108 26 206 77 294c51 87 119 155 205 204c85 48 179 72 281 72c124 0 233 -34 327 -102c94 -69 153 -151 176 -247l-147 -48c-24 86 -135 255 -362 255c-114 0 -208 -41 -282 -122c-75 -81 -112 -180 -112 -297
c0 -153 62 -288 184 -368c61 -41 131 -61 211 -61c92 0 174 31 224 68c25 19 47 41 68 67c41 52 57 87 73 128z" />
    <glyph glyph-name="egrave" unicode="&#xe8;" horiz-adv-x="1244" 
d="M721 1280h-153l-263 352h194zM1147 497h-885c6 -107 46 -196 121 -267c74 -71 164 -107 271 -107c164 0 287 82 338 234l142 -45c-31 -103 -91 -184 -179 -243s-188 -88 -299 -88c-104 0 -199 25 -284 76s-152 119 -199 206c-48 87 -72 182 -72 285c0 99 23 191 68 278
c45 86 109 155 192 208c82 53 173 79 272 79c109 0 204 -25 283 -74c79 -50 137 -117 176 -200c38 -84 57 -180 57 -288c0 -12 -1 -30 -2 -54zM264 633h723c-11 102 -47 184 -109 246s-144 93 -245 93c-93 0 -174 -33 -244 -99c-70 -67 -112 -147 -125 -240z" />
    <glyph glyph-name="eacute" unicode="&#xe9;" horiz-adv-x="1244" 
d="M765 1632h194l-263 -352h-153zM1147 497h-885c6 -107 46 -196 121 -267c74 -71 164 -107 271 -107c164 0 287 82 338 234l142 -45c-31 -103 -91 -184 -179 -243s-188 -88 -299 -88c-104 0 -199 25 -284 76s-152 119 -199 206c-48 87 -72 182 -72 285c0 99 23 191 68 278
c45 86 109 155 192 208c82 53 173 79 272 79c109 0 204 -25 283 -74c79 -50 137 -117 176 -200c38 -84 57 -180 57 -288c0 -12 -1 -30 -2 -54zM264 633h723c-11 102 -47 184 -109 246s-144 93 -245 93c-93 0 -174 -33 -244 -99c-70 -67 -112 -147 -125 -240z" />
    <glyph glyph-name="ecircumflex" unicode="&#xea;" horiz-adv-x="1244" 
d="M556 1633h159l282 -353h-170l-186 242h-5l-183 -242h-171zM1147 497h-885c6 -107 46 -196 121 -267c74 -71 164 -107 271 -107c164 0 287 82 338 234l142 -45c-31 -103 -91 -184 -179 -243s-188 -88 -299 -88c-104 0 -199 25 -284 76s-152 119 -199 206
c-48 87 -72 182 -72 285c0 99 23 191 68 278c45 86 109 155 192 208c82 53 173 79 272 79c109 0 204 -25 283 -74c79 -50 137 -117 176 -200c38 -84 57 -180 57 -288c0 -12 -1 -30 -2 -54zM264 633h723c-11 102 -47 184 -109 246s-144 93 -245 93c-93 0 -174 -33 -244 -99
c-70 -67 -112 -147 -125 -240z" />
    <glyph glyph-name="edieresis" unicode="&#xeb;" horiz-adv-x="1244" 
d="M520 1314c-49 -49 -119 -49 -168 0c-49 48 -49 124 0 173c49 48 119 48 168 0c49 -49 49 -125 0 -173zM910 1314c-49 -49 -119 -49 -168 0c-49 48 -49 124 0 173c49 48 119 48 168 0c49 -49 49 -125 0 -173zM1147 497h-885c6 -107 46 -196 121 -267
c74 -71 164 -107 271 -107c164 0 287 82 338 234l142 -45c-31 -103 -91 -184 -179 -243s-188 -88 -299 -88c-104 0 -199 25 -284 76s-152 119 -199 206c-48 87 -72 182 -72 285c0 99 23 191 68 278c45 86 109 155 192 208c82 53 173 79 272 79c109 0 204 -25 283 -74
c79 -50 137 -117 176 -200c38 -84 57 -180 57 -288c0 -12 -1 -30 -2 -54zM264 633h723c-11 102 -47 184 -109 246s-144 93 -245 93c-93 0 -174 -33 -244 -99c-70 -67 -112 -147 -125 -240z" />
    <glyph glyph-name="igrave" unicode="&#xec;" horiz-adv-x="522" 
d="M338 1280h-153l-263 352h194zM341 1093v-1093h-160v1093h160z" />
    <glyph glyph-name="iacute" unicode="&#xed;" horiz-adv-x="522" 
d="M600 1632h-194l-222 -352h153zM181 0v1093h160v-1093h-160z" />
    <glyph glyph-name="icircumflex" unicode="&#xee;" horiz-adv-x="522" 
d="M177 1633h159l282 -353h-170l-186 242h-5l-183 -242h-171zM341 1093v-1093h-160v1093h160z" />
    <glyph glyph-name="idieresis" unicode="&#xef;" horiz-adv-x="522" 
d="M155 1314c-49 -49 -119 -49 -168 0c-49 48 -49 124 0 173c49 48 119 48 168 0c49 -49 49 -125 0 -173zM536 1314c-49 -49 -119 -49 -168 0c-49 48 -49 124 0 173c49 48 119 48 168 0c49 -49 49 -125 0 -173zM341 1093v-1093h-160v1093h160z" />
    <glyph glyph-name="eth" unicode="&#xf0;" horiz-adv-x="1343" 
d="M1067 1595l51 -122l-207 -97c201 -196 312 -460 312 -764c0 -189 -53 -342 -159 -457c-107 -115 -243 -173 -409 -173c-156 0 -300 61 -396 159c-97 98 -157 237 -157 389c0 141 59 275 153 369s233 154 384 154c44 0 99 -9 176 -35c76 -26 164 -86 229 -166l5 2
c-39 182 -132 335 -281 459l-354 -166l-49 119l290 131c-95 62 -205 112 -331 149l61 129c156 -47 295 -115 418 -205zM662 121c213 -5 405 197 399 403c0 66 -12 123 -37 172c-34 66 -85 120 -152 162c-67 41 -141 62 -221 62c-113 0 -205 -39 -278 -116
c-73 -78 -109 -172 -109 -282c0 -139 69 -268 193 -344c61 -38 130 -57 205 -57z" />
    <glyph glyph-name="ntilde" unicode="&#xf1;" horiz-adv-x="1297" 
d="M793 1280c-53 0 -106 25 -138 50c-33 25 -83 50 -131 50c-44 0 -71 -33 -82 -98h-115c1 69 17 125 49 170c32 44 81 66 147 66c88 4 191 -102 272 -98c45 0 75 31 90 94h100c-1 -69 -17 -126 -47 -169c-31 -43 -79 -65 -145 -65zM971 0v636c0 101 -26 181 -77 242
c-52 60 -127 90 -226 90c-95 0 -173 -33 -234 -99s-92 -148 -92 -246v-623h-161v1093h158v-200c87 147 212 221 377 221c131 0 233 -40 306 -120c72 -81 108 -187 108 -318v-676h-159z" />
    <glyph glyph-name="ograve" unicode="&#xf2;" horiz-adv-x="1332" 
d="M747 1280h-153l-263 352h194zM663 -19c-103 0 -198 25 -284 75c-87 50 -155 118 -204 204s-74 180 -74 283c0 161 54 297 163 406c108 109 242 164 403 164c310 6 570 -254 564 -562c6 -317 -254 -577 -568 -570zM667 123c115 0 211 41 287 123s114 181 114 297
c0 117 -38 218 -115 303c-77 84 -173 126 -290 126c-116 0 -211 -41 -286 -123s-113 -181 -113 -298c-5 -227 170 -432 403 -428z" />
    <glyph glyph-name="oacute" unicode="&#xf3;" horiz-adv-x="1332" 
d="M811 1632h194l-263 -352h-153zM663 -19c-103 0 -198 25 -284 75c-87 50 -155 118 -204 204s-74 180 -74 283c0 161 54 297 163 406c108 109 242 164 403 164c310 6 570 -254 564 -562c6 -317 -254 -577 -568 -570zM667 123c115 0 211 41 287 123s114 181 114 297
c0 117 -38 218 -115 303c-77 84 -173 126 -290 126c-116 0 -211 -41 -286 -123s-113 -181 -113 -298c-5 -227 170 -432 403 -428z" />
    <glyph glyph-name="ocircumflex" unicode="&#xf4;" horiz-adv-x="1332" 
d="M585 1633h159l282 -353h-170l-186 242h-5l-183 -242h-170zM663 -19c-103 0 -198 25 -284 75c-87 50 -155 118 -204 204s-74 180 -74 283c0 161 54 297 163 406c108 109 242 164 403 164c310 6 570 -254 564 -562c6 -317 -254 -577 -568 -570zM667 123
c115 0 211 41 287 123s114 181 114 297c0 117 -38 218 -115 303c-77 84 -173 126 -290 126c-116 0 -211 -41 -286 -123s-113 -181 -113 -298c-5 -227 170 -432 403 -428z" />
    <glyph glyph-name="otilde" unicode="&#xf5;" horiz-adv-x="1332" 
d="M806 1280c-53 0 -106 25 -138 50c-33 25 -83 50 -131 50c-44 0 -71 -33 -82 -98h-115c1 69 17 125 49 170c32 44 81 66 147 66c88 4 191 -102 272 -98c45 0 75 31 90 94h100c-1 -69 -17 -126 -47 -169c-31 -43 -79 -65 -145 -65zM663 -19c-103 0 -198 25 -284 75
c-87 50 -155 118 -204 204s-74 180 -74 283c0 161 54 297 163 406c108 109 242 164 403 164c310 6 570 -254 564 -562c6 -317 -254 -577 -568 -570zM667 123c115 0 211 41 287 123s114 181 114 297c0 117 -38 218 -115 303c-77 84 -173 126 -290 126
c-116 0 -211 -41 -286 -123s-113 -181 -113 -298c-5 -227 170 -432 403 -428z" />
    <glyph glyph-name="odieresis" unicode="&#xf6;" horiz-adv-x="1332" 
d="M556 1314c-49 -49 -119 -49 -168 0c-49 48 -49 124 0 173c49 48 119 48 168 0c49 -49 49 -125 0 -173zM946 1314c-49 -49 -119 -49 -168 0c-49 48 -49 124 0 173c49 48 119 48 168 0c49 -49 49 -125 0 -173zM663 -19c-103 0 -198 25 -284 75c-87 50 -155 118 -204 204
s-74 180 -74 283c0 161 54 297 163 406c108 109 242 164 403 164c310 6 570 -254 564 -562c6 -317 -254 -577 -568 -570zM667 123c115 0 211 41 287 123s114 181 114 297c0 117 -38 218 -115 303c-77 84 -173 126 -290 126c-116 0 -211 -41 -286 -123s-113 -181 -113 -298
c-5 -227 170 -432 403 -428z" />
    <glyph glyph-name="divide" unicode="&#xf7;" horiz-adv-x="1261" 
d="M718 1261c-24 25 -53 37 -87 37c-35 0 -64 -12 -88 -37c-25 -25 -37 -54 -37 -88s12 -63 37 -88c24 -25 53 -37 88 -37c34 0 63 12 87 37s36 54 36 88s-12 63 -36 88zM144 699v157h973v-157h-973zM718 472c-24 25 -53 37 -87 37c-35 0 -64 -12 -88 -37
c-25 -25 -37 -54 -37 -88s12 -63 37 -88c24 -25 53 -37 88 -37c34 0 63 12 87 37s36 54 36 88s-12 63 -36 88z" />
    <glyph glyph-name="oslash" unicode="&#xf8;" horiz-adv-x="1340" 
d="M1237 1071l-139 -152c91 -104 137 -227 137 -368c6 -317 -253 -577 -568 -570c-122 0 -232 35 -329 106l-138 -151l-94 87l138 150c-92 106 -138 229 -138 370c0 159 62 306 162 407c99 100 244 163 403 163c123 0 233 -36 332 -108l140 153zM267 551
c0 -97 27 -185 82 -263l555 607c-69 52 -147 78 -236 78c-233 3 -406 -195 -401 -422zM1074 543c0 97 -27 184 -82 261l-556 -606c69 -51 147 -77 235 -77c115 0 211 41 288 124c77 82 115 181 115 298z" />
    <glyph glyph-name="ugrave" unicode="&#xf9;" horiz-adv-x="1295" 
d="M576 1280h153l-222 352h-194zM167 417v676h160v-636c0 -101 26 -181 78 -241c51 -61 126 -91 225 -91c95 0 173 33 234 99s92 148 92 246v623h158v-1093h-156v200c-87 -147 -212 -221 -376 -221c-131 0 -233 40 -306 121c-73 80 -109 186 -109 317z" />
    <glyph glyph-name="uacute" unicode="&#xfa;" horiz-adv-x="1295" 
d="M785 1632h194l-263 -352h-153zM327 1093v-636c0 -101 26 -181 78 -241c51 -61 126 -91 225 -91c95 0 173 33 234 99s92 148 92 246v623h158v-1093h-156v200c-87 -147 -212 -221 -376 -221c-131 0 -233 40 -306 121c-73 80 -109 186 -109 317v676h160z" />
    <glyph glyph-name="ucircumflex" unicode="&#xfb;" horiz-adv-x="1295" 
d="M716 1633h-159l-273 -353h170l183 242h5l186 -242h170zM167 417v676h160v-636c0 -101 26 -181 78 -241c51 -61 126 -91 225 -91c95 0 173 33 234 99s92 148 92 246v623h158v-1093h-156v200c-87 -147 -212 -221 -376 -221c-131 0 -233 40 -306 121
c-73 80 -109 186 -109 317z" />
    <glyph glyph-name="udieresis" unicode="&#xfc;" horiz-adv-x="1294" 
d="M529 1314c49 48 49 124 0 173c-49 48 -119 48 -168 0c-49 -49 -49 -125 0 -173c49 -49 119 -49 168 0zM919 1314c49 48 49 124 0 173c-49 48 -119 48 -168 0c-49 -49 -49 -125 0 -173c49 -49 119 -49 168 0zM167 417v676h159v-636c0 -101 26 -181 78 -241
c51 -61 126 -91 225 -91c94 0 172 33 234 99c61 66 92 148 92 246v623h158v-1093h-156v200c-87 -147 -212 -221 -376 -221c-131 0 -233 40 -305 121c-73 80 -109 186 -109 317z" />
    <glyph glyph-name="yacute" unicode="&#xfd;" horiz-adv-x="1218" 
d="M627 1632h194l-263 -352h-153zM1009 1093h172l-748 -1632h-173l283 613l-499 1019h184l402 -845z" />
    <glyph glyph-name="thorn" unicode="&#xfe;" horiz-adv-x="1297" 
d="M339 1668v-745c36 57 87 102 152 136s130 51 195 51c152 0 287 -69 372 -174s136 -245 136 -388c0 -148 -51 -289 -136 -394s-220 -173 -372 -173c-137 0 -266 67 -347 192v-612h-158v2107h158zM321 548c0 -147 53 -276 163 -356c55 -40 119 -60 192 -60
c111 0 207 55 266 135s92 182 92 281c0 101 -33 202 -92 280s-155 130 -266 130s-197 -39 -260 -116s-95 -175 -95 -294z" />
    <glyph glyph-name="ydieresis" unicode="&#xff;" horiz-adv-x="1216" 
d="M509 1314c49 48 49 124 0 173c-49 48 -119 48 -168 0c-49 -49 -49 -125 0 -173c49 -49 119 -49 168 0zM899 1314c49 48 49 124 0 173c-49 48 -119 48 -168 0c-49 -49 -49 -125 0 -173c49 -49 119 -49 168 0zM431 -539h-173l283 613l-497 1019h183l401 -845l379 845h172z
" />
    <glyph glyph-name="Amacron" unicode="&#x100;" horiz-adv-x="1588" 
d="M1138 1811h-690v144h690v-144zM889 1604l692 -1604h-178l-175 410h-873l-176 -410h-172l691 1604h191zM1163 563l-373 867l-372 -867h745z" />
    <glyph glyph-name="amacron" unicode="&#x101;" 
d="M902 1311h-692v144h692v-144zM840 631v74c0 175 -97 265 -278 265c-88 0 -163 -28 -207 -72c-45 -45 -72 -95 -81 -151l-153 33c3 57 54 163 155 243c64 51 170 90 290 90c199 0 332 -75 398 -226c22 -50 33 -110 33 -181v-308c0 -183 6 -316 18 -398h-160
c-9 49 -14 113 -14 192h-1c-91 -141 -214 -211 -369 -211c-109 0 -198 30 -265 91c-68 61 -102 138 -102 231v12c0 237 238 316 433 316h303zM840 499h-305c-65 0 -123 -10 -178 -36c-56 -26 -92 -78 -92 -147c0 -60 22 -107 67 -142c44 -35 100 -52 167 -52
c98 0 179 32 244 95s97 145 97 244v38z" />
    <glyph glyph-name="Abreve" unicode="&#x102;" horiz-adv-x="1588" 
d="M794 1751c-113 0 -213 47 -279 155c-33 53 -51 117 -54 190h126c7 -132 86 -217 207 -217c119 0 199 81 208 217h123c-3 -104 -36 -187 -99 -250s-141 -95 -232 -95zM889 1604l692 -1604h-178l-175 410h-873l-176 -410h-172l691 1604h191zM1163 563l-373 867l-372 -867
h745z" />
    <glyph glyph-name="abreve" unicode="&#x103;" 
d="M558 1276c-115 0 -214 47 -281 155c-33 53 -51 117 -54 190h126c7 -132 88 -217 209 -217c119 0 199 81 208 217h123c-3 -104 -36 -187 -99 -250s-141 -95 -232 -95zM840 631v74c0 175 -97 265 -278 265c-88 0 -163 -28 -207 -72c-45 -45 -72 -95 -81 -151l-153 33
c3 57 54 163 155 243c64 51 170 90 290 90c199 0 332 -75 398 -226c22 -50 33 -110 33 -181v-308c0 -183 6 -316 18 -398h-160c-9 49 -14 113 -14 192h-1c-91 -141 -214 -211 -369 -211c-109 0 -198 30 -265 91c-68 61 -102 138 -102 231v12c0 237 238 316 433 316h303z
M840 499h-305c-65 0 -123 -10 -178 -36c-56 -26 -92 -78 -92 -147c0 -60 22 -107 67 -142c44 -35 100 -52 167 -52c98 0 179 32 244 95s97 145 97 244v38z" />
    <glyph glyph-name="Aogonek" unicode="&#x104;" horiz-adv-x="1588" 
d="M1618 -371v-123c-17 -3 -36 -5 -59 -5c-75 0 -140 20 -193 59c-53 40 -80 96 -80 168c0 87 59 177 178 272h-61l-175 410h-873l-176 -410h-172l691 1604h191l692 -1604c-37 -32 -70 -69 -98 -112c-29 -43 -43 -84 -43 -124c0 -100 74 -138 178 -135zM1163 563l-373 867
l-372 -867h745z" />
    <glyph glyph-name="aogonek" unicode="&#x105;" 
d="M1051 -371v-123c-17 -3 -36 -5 -59 -5c-75 0 -140 20 -193 59c-53 40 -80 96 -80 168c0 87 59 177 178 272h-42c-9 49 -14 113 -14 192h-1c-91 -141 -214 -211 -369 -211c-109 0 -198 30 -265 91c-68 61 -102 138 -102 231v12c0 237 238 316 433 316h303v74
c0 175 -97 265 -278 265c-88 0 -163 -28 -207 -72c-45 -45 -72 -95 -81 -151l-153 33c3 57 54 163 155 243c64 51 170 90 290 90c199 0 332 -75 398 -226c22 -50 33 -110 33 -181v-308c0 -188 6 -321 17 -398c-37 -32 -70 -69 -98 -112c-29 -43 -43 -84 -43 -124
c0 -100 74 -138 178 -135zM840 499h-305c-65 0 -123 -10 -178 -36c-56 -26 -92 -78 -92 -147c0 -60 22 -107 67 -142c44 -35 100 -52 167 -52c98 0 179 32 244 95s97 145 97 244v38z" />
    <glyph glyph-name="Cacute" unicode="&#x106;" horiz-adv-x="1720" 
d="M1060 2103h194l-263 -352h-153zM911 -17c-220 0 -423 85 -566 226c-72 70 -129 156 -171 258s-63 212 -63 330c0 119 22 230 65 334c43 103 102 191 175 262s158 126 257 167s202 61 311 61c168 0 322 -50 427 -122c52 -36 99 -77 140 -124c82 -94 126 -189 149 -282
l-161 -57c-13 52 -34 110 -94 194c-30 42 -64 79 -103 112s-91 61 -154 84s-133 35 -208 35c-169 0 -329 -68 -442 -181s-186 -284 -186 -473c0 -125 27 -239 81 -340s129 -181 226 -238c96 -57 204 -86 323 -86c147 0 275 51 352 112c38 30 73 67 104 110s53 80 68 111
c14 31 27 63 38 97l162 -58c-25 -87 -66 -173 -148 -272c-41 -49 -88 -93 -140 -130c-105 -75 -265 -130 -442 -130z" />
    <glyph glyph-name="cacute" unicode="&#x107;" horiz-adv-x="1269" 
d="M807 1632h194l-263 -352h-155zM271 552c0 -153 62 -288 186 -368c61 -41 132 -61 213 -61c92 0 174 31 224 68c25 19 47 41 68 67c41 52 57 87 73 128l148 -50c-25 -85 -83 -168 -167 -238s-211 -117 -348 -117c-159 0 -303 59 -403 158c-101 99 -164 244 -164 404
c0 108 26 206 79 294c52 87 122 155 209 204c87 48 183 72 286 72c123 0 232 -34 326 -102c94 -69 153 -151 176 -247l-147 -48c-24 86 -135 255 -361 255c-229 4 -403 -194 -398 -419z" />
    <glyph glyph-name="Ccircumflex" unicode="&#x108;" horiz-adv-x="1720" 
d="M993 2102h-159l-273 -353h170l183 242h5l186 -242h170zM911 -17c-220 0 -423 85 -566 226c-72 70 -129 156 -171 258s-63 212 -63 330c0 119 22 230 65 334c43 103 102 191 175 262s158 126 257 167s202 61 311 61c168 0 322 -50 427 -122c52 -36 99 -77 140 -124
c82 -94 126 -189 149 -282l-161 -57c-13 52 -34 110 -94 194c-30 42 -64 79 -103 112s-91 61 -154 84s-133 35 -208 35c-169 0 -329 -68 -442 -181s-186 -284 -186 -473c0 -125 27 -239 81 -340s129 -181 226 -238c96 -57 204 -86 323 -86c147 0 275 51 352 112
c38 30 73 67 104 110s53 80 68 111c14 31 27 63 38 97l162 -58c-25 -87 -66 -173 -148 -272c-41 -49 -88 -93 -140 -130c-105 -75 -265 -130 -442 -130z" />
    <glyph glyph-name="ccircumflex" unicode="&#x109;" horiz-adv-x="1269" 
d="M751 1633h-159l-275 -353h171l184 242h5l186 -242h170zM271 552c0 -153 62 -288 186 -368c61 -41 132 -61 213 -61c92 0 174 31 223 68c25 19 48 41 69 68c42 52 56 84 73 127l148 -50c-25 -85 -83 -168 -167 -238s-211 -117 -348 -117c-159 0 -303 59 -403 158
c-101 99 -164 244 -164 404c0 108 26 206 79 294c52 87 122 155 209 204c87 48 183 72 286 72c123 0 232 -34 326 -102c94 -69 153 -151 176 -247l-147 -48c-15 49 -48 102 -104 159c-56 56 -150 96 -257 96c-229 4 -403 -194 -398 -419z" />
    <glyph glyph-name="Cdotaccent" unicode="&#x10a;" horiz-adv-x="1720" 
d="M1004 1793c25 25 37 54 37 89c0 34 -12 63 -37 88s-54 37 -86 37s-60 -12 -85 -37s-38 -54 -38 -88c0 -35 13 -64 38 -89s53 -37 85 -37s61 12 86 37zM911 -17c-220 0 -423 85 -566 226c-72 70 -129 156 -171 258s-63 212 -63 330c0 119 22 230 65 334
c43 103 102 191 175 262s158 126 257 167s202 61 311 61c168 0 322 -50 427 -122c52 -36 99 -77 140 -124c82 -94 126 -189 149 -282l-161 -57c-13 52 -34 110 -94 194c-30 42 -64 79 -103 112s-91 61 -154 84s-133 35 -208 35c-169 0 -329 -68 -442 -181
s-186 -284 -186 -473c0 -125 27 -239 81 -340s129 -181 226 -238c96 -57 204 -86 323 -86c147 0 275 51 352 112c38 30 73 67 104 110s53 80 68 111c14 31 27 63 38 97l162 -58c-25 -87 -66 -173 -148 -272c-41 -49 -88 -93 -140 -130c-105 -75 -265 -130 -442 -130z" />
    <glyph glyph-name="cdotaccent" unicode="&#x10b;" horiz-adv-x="1267" 
d="M758 1314c25 25 37 54 37 89c0 34 -12 63 -37 88s-54 37 -86 37s-60 -12 -85 -37s-38 -54 -38 -88c0 -35 13 -64 38 -89s53 -37 85 -37s61 12 86 37zM269 552c0 -153 62 -288 186 -368c61 -41 132 -61 213 -61c92 0 174 31 224 68c25 19 47 41 68 67c41 52 57 87 73 128
l148 -50c-25 -85 -83 -168 -167 -238s-211 -117 -348 -117c-321 0 -565 235 -565 562c0 108 26 206 78 294c52 87 122 155 209 204c87 48 182 72 285 72c123 0 232 -34 326 -102c94 -69 153 -151 176 -247l-147 -48c-24 86 -135 255 -361 255c-229 4 -403 -194 -398 -419z
" />
    <glyph glyph-name="Ccaron" unicode="&#x10c;" horiz-adv-x="1720" 
d="M1106 2107h170l-282 -353h-159l-274 353h171l183 -242h5zM911 -17c-220 0 -423 85 -566 226c-72 70 -129 156 -171 258s-63 212 -63 330c0 119 22 230 65 334c43 103 102 191 175 262s158 126 257 167s202 61 311 61c168 0 322 -50 427 -122c52 -36 99 -77 140 -124
c82 -94 126 -189 149 -282l-161 -57c-13 52 -34 110 -94 194c-30 42 -64 79 -103 112s-91 61 -154 84s-133 35 -208 35c-169 0 -329 -68 -442 -181s-186 -284 -186 -473c0 -125 27 -239 81 -340s129 -181 226 -238c96 -57 204 -86 323 -86c147 0 275 51 352 112
c38 30 73 67 104 110s53 80 68 111c14 31 27 63 38 97l162 -58c-25 -87 -66 -173 -148 -272c-41 -49 -88 -93 -140 -130c-105 -75 -265 -130 -442 -130z" />
    <glyph glyph-name="ccaron" unicode="&#x10d;" horiz-adv-x="1267" 
d="M680 1391l186 242h170l-282 -353h-159l-275 353h171l184 -242h5zM269 552c0 -153 62 -288 186 -368c61 -41 132 -61 213 -61c92 0 174 31 224 68c25 19 47 41 68 67c41 52 57 87 73 128l148 -50c-25 -85 -83 -168 -167 -238s-211 -117 -348 -117
c-321 0 -565 235 -565 562c0 108 26 206 78 294c52 87 122 155 209 204c87 48 182 72 285 72c123 0 232 -34 326 -102c94 -69 153 -151 176 -247l-147 -48c-24 86 -135 255 -361 255c-229 4 -403 -194 -398 -419z" />
    <glyph glyph-name="Dcaron" unicode="&#x10e;" horiz-adv-x="1657" 
d="M1071 2107h-170l-186 -242h-5l-183 242h-170l273 -353h159zM700 0h-477v1604h477c123 0 237 -20 343 -61c105 -41 195 -97 269 -168c147 -142 235 -346 235 -570c0 -117 -22 -226 -66 -327c-45 -101 -105 -186 -181 -255c-152 -140 -367 -223 -600 -223zM696 1446h-301
v-1288h303c133 0 251 28 354 83s183 131 240 228c56 97 84 208 84 332c0 183 -67 346 -183 461s-293 184 -497 184z" />
    <glyph glyph-name="dcaron" unicode="&#x10f;" horiz-adv-x="1418" 
d="M1553 1669h-176l-30 -459h136zM102 548c0 143 52 284 140 390c87 106 223 175 372 175c101 0 191 -28 260 -77c68 -49 116 -101 164 -172v804h159v-1668h-157l1 234c-101 -167 -244 -250 -427 -250c-152 0 -287 66 -374 170s-138 245 -138 394zM647 124
c225 -4 398 206 393 426c0 144 -69 280 -191 360c-61 40 -129 60 -202 60c-117 0 -209 -40 -278 -121s-104 -183 -104 -305c0 -152 60 -283 178 -361c59 -39 127 -59 204 -59z" />
    <glyph glyph-name="Dcroat" unicode="&#x110;" horiz-adv-x="1680" 
d="M247 1604h476c123 0 238 -20 344 -61s196 -97 269 -168c147 -142 234 -346 234 -570c0 -156 -38 -296 -113 -419c-76 -123 -178 -218 -306 -285c-129 -67 -271 -101 -428 -101h-476v736h-217v157h217v711zM415 158h303c133 0 251 28 354 83s183 131 240 228
c56 97 84 208 84 332c0 245 -113 448 -320 561c-104 56 -224 84 -360 84h-301v-553h392v-157h-392v-578z" />
    <glyph glyph-name="dslash" unicode="&#x111;" horiz-adv-x="1377" 
d="M1334 1440v-142h-138v-1298h-156v234c-100 -167 -242 -250 -427 -250c-101 0 -191 26 -270 79s-138 122 -179 207s-62 177 -62 278c0 96 21 187 62 272s102 156 182 211c79 55 169 82 268 82c97 0 179 -23 246 -68s126 -106 177 -181v434h-398v142h398v228h159v-228h138z
M647 124c225 -4 398 206 393 426c0 144 -69 280 -191 360c-61 40 -129 60 -202 60c-236 1 -387 -190 -382 -426c0 -152 60 -283 178 -361c59 -39 127 -59 204 -59z" />
    <glyph glyph-name="Emacron" unicode="&#x112;" horiz-adv-x="1362" 
d="M385 1811h690v144h-690v-144zM394 1448v-555h764v-155h-764v-582h843v-156h-1014v1604h1006v-156h-835z" />
    <glyph glyph-name="emacron" unicode="&#x113;" horiz-adv-x="1244" 
d="M977 1311h-692v144h692v-144zM1147 497h-885c6 -107 46 -196 121 -267c74 -71 164 -107 271 -107c164 0 287 82 338 234l142 -45c-31 -103 -91 -184 -179 -243s-188 -88 -299 -88c-104 0 -199 25 -284 76s-152 119 -199 206c-48 87 -72 182 -72 285c0 99 23 191 68 278
c45 86 109 155 192 208c82 53 173 79 272 79c109 0 204 -25 283 -74c79 -50 137 -117 176 -200c38 -84 57 -180 57 -288c0 -12 -1 -30 -2 -54zM264 633h723c-11 102 -47 184 -109 246s-144 93 -245 93c-93 0 -174 -33 -244 -99c-70 -67 -112 -147 -125 -240z" />
    <glyph glyph-name="Edotaccent" unicode="&#x116;" horiz-adv-x="1360" 
d="M815 1793c-50 -49 -121 -49 -171 0c-25 25 -38 54 -38 89c0 34 13 63 38 88s53 37 85 37s61 -12 86 -37s37 -54 37 -88c0 -35 -12 -64 -37 -89zM1156 893v-155h-764v-582h843v-156h-1012v1604h1004v-156h-835v-555h764z" />
    <glyph glyph-name="edotaccent" unicode="&#x117;" horiz-adv-x="1244" 
d="M728 1314c-50 -49 -121 -49 -171 0c-25 25 -38 54 -38 89c0 34 13 63 38 88s53 37 85 37s61 -12 86 -37s37 -54 37 -88c0 -35 -12 -64 -37 -89zM1147 497h-885c6 -107 46 -196 121 -267c74 -71 164 -107 271 -107c164 0 287 82 338 234l142 -45
c-31 -103 -91 -184 -179 -243s-188 -88 -299 -88c-104 0 -199 25 -284 76s-152 119 -199 206c-48 87 -72 182 -72 285c0 99 23 191 68 278c45 86 109 155 192 208c82 53 173 79 272 79c109 0 204 -25 283 -74c79 -50 137 -117 176 -200c38 -84 57 -180 57 -288
c0 -12 -1 -30 -2 -54zM264 633h723c-11 102 -47 184 -109 246s-144 93 -245 93c-93 0 -174 -33 -244 -99c-70 -67 -112 -147 -125 -240z" />
    <glyph glyph-name="Eogonek" unicode="&#x118;" horiz-adv-x="1361" 
d="M1273 -371v-123c-16 -3 -36 -5 -59 -5c-75 0 -139 20 -192 59c-53 40 -80 96 -80 168c0 87 59 178 177 272h-896v1604h1005v-156h-835v-555h764v-155h-764v-582h843v-156c-37 -32 -70 -70 -98 -113s-42 -84 -42 -123c0 -100 73 -138 177 -135z" />
    <glyph glyph-name="eogonek" unicode="&#x119;" horiz-adv-x="1244" 
d="M1147 497h-885c6 -107 46 -196 121 -267c74 -71 164 -107 271 -107c164 0 287 82 338 234l142 -45c-48 -159 -174 -270 -334 -313c-37 -33 -70 -70 -98 -113c-28 -42 -42 -83 -42 -122c0 -100 74 -138 178 -135v-123c-16 -3 -36 -5 -59 -5c-75 0 -139 20 -192 59
c-53 40 -80 96 -80 168c0 82 52 166 155 253h-6c-104 0 -199 25 -284 76s-152 119 -199 206c-48 87 -72 182 -72 285c0 99 23 191 68 278c45 86 109 155 192 208c82 53 173 79 272 79c109 0 204 -25 283 -74c79 -50 137 -117 176 -200c38 -84 57 -180 57 -288
c0 -12 -1 -30 -2 -54zM264 633h723c-11 102 -47 184 -109 246s-144 93 -245 93c-93 0 -174 -33 -244 -99c-70 -67 -112 -147 -125 -240z" />
    <glyph glyph-name="Ecaron" unicode="&#x11a;" horiz-adv-x="1362" 
d="M1087 2107h-170l-186 -242h-5l-184 242h-169l273 -353h159zM394 1448v-555h764v-155h-764v-582h843v-156h-1014v1604h1006v-156h-835z" />
    <glyph glyph-name="ecaron" unicode="&#x11b;" horiz-adv-x="1244" 
d="M639 1391l186 242h170l-282 -353h-159l-275 353h171l184 -242h5zM1147 497h-885c6 -107 46 -196 121 -267c74 -71 164 -107 271 -107c164 0 287 82 338 234l142 -45c-31 -103 -91 -184 -179 -243s-188 -88 -299 -88c-104 0 -199 25 -284 76s-152 119 -199 206
c-48 87 -72 182 -72 285c0 99 23 191 68 278c45 86 109 155 192 208c82 53 173 79 272 79c109 0 204 -25 283 -74c79 -50 137 -117 176 -200c38 -84 57 -180 57 -288c0 -12 -1 -30 -2 -54zM264 633h723c-11 102 -47 184 -109 246s-144 93 -245 93c-93 0 -174 -33 -244 -99
c-70 -67 -112 -147 -125 -240z" />
    <glyph glyph-name="Gcircumflex" unicode="&#x11c;" horiz-adv-x="1760" 
d="M1000 2102h-159l-273 -353h170l183 242h5l186 -242h170zM1630 1143l-161 -57c-19 59 -47 117 -109 189c-31 35 -67 67 -106 94c-79 54 -202 95 -338 95c-180 0 -345 -77 -454 -197s-177 -286 -177 -461c0 -364 244 -665 635 -665c143 0 278 45 382 125s174 206 183 354
h-670v156h849v-61c0 -203 -72 -385 -198 -517s-322 -214 -550 -214c-239 0 -448 89 -586 234s-220 351 -220 579c0 152 35 291 106 417c71 125 168 224 293 297c124 73 262 109 413 109c189 0 356 -54 471 -145s193 -201 237 -332z" />
    <glyph glyph-name="gcircumflex" unicode="&#x11d;" horiz-adv-x="1379" 
d="M571 1633h159l282 -353h-170l-186 242h-5l-184 -242h-171zM1039 16v228c-99 -166 -241 -249 -424 -249c-101 0 -191 26 -270 78c-79 51 -139 119 -180 203s-62 176 -62 276c0 96 21 187 63 272c41 85 102 154 181 208s169 81 268 81c103 0 193 -28 262 -76
c68 -49 116 -102 164 -173v229h157v-1067c0 -187 -51 -329 -154 -427c-103 -97 -242 -146 -415 -146c-136 0 -252 36 -347 107c-96 72 -154 161 -175 268l147 49c25 -112 126 -284 373 -284c116 0 212 31 289 96s123 179 123 327zM648 136c113 0 206 41 281 124
c75 82 112 180 112 295c5 212 -173 420 -393 416c-117 0 -210 -40 -279 -119c-69 -80 -103 -181 -103 -303c-5 -224 147 -415 382 -413z" />
    <glyph glyph-name="Gbreve" unicode="&#x11e;" horiz-adv-x="1760" 
d="M926 1751c-113 0 -213 47 -279 155c-33 53 -51 117 -54 190h126c7 -132 86 -217 207 -217c119 0 199 81 208 217h123c-3 -104 -36 -187 -99 -250s-141 -95 -232 -95zM1630 1143l-161 -57c-19 59 -47 117 -109 189c-31 35 -67 67 -106 94c-79 54 -202 95 -338 95
c-180 0 -345 -77 -454 -197s-177 -286 -177 -461c0 -364 244 -665 635 -665c143 0 278 45 382 125s174 206 183 354h-670v156h849v-61c0 -203 -72 -385 -198 -517s-322 -214 -550 -214c-239 0 -448 89 -586 234s-220 351 -220 579c0 152 35 291 106 417
c71 125 168 224 293 297c124 73 262 109 413 109c189 0 356 -54 471 -145s193 -201 237 -332z" />
    <glyph glyph-name="gbreve" unicode="&#x11f;" horiz-adv-x="1379" 
d="M656 1276c-115 0 -214 47 -281 155c-33 53 -51 117 -54 190h126c7 -132 88 -217 209 -217c119 0 199 81 208 217h123c-3 -104 -36 -187 -99 -250s-141 -95 -232 -95zM1039 16v228c-99 -166 -241 -249 -424 -249c-101 0 -191 26 -270 78c-79 51 -139 119 -180 203
s-62 176 -62 276c0 96 21 187 63 272c41 85 102 154 181 208s169 81 268 81c103 0 193 -28 262 -76c68 -49 116 -102 164 -173v229h157v-1067c0 -187 -51 -329 -154 -427c-103 -97 -242 -146 -415 -146c-136 0 -252 36 -347 107c-96 72 -154 161 -175 268l147 49
c25 -112 126 -284 373 -284c116 0 212 31 289 96s123 179 123 327zM648 136c113 0 206 41 281 124c75 82 112 180 112 295c5 212 -173 420 -393 416c-117 0 -210 -40 -279 -119c-69 -80 -103 -181 -103 -303c-5 -224 147 -415 382 -413z" />
    <glyph glyph-name="Gdotaccent" unicode="&#x120;" horiz-adv-x="1756" 
d="M1021 1793c-50 -49 -121 -49 -171 0c-25 25 -38 54 -38 89c0 34 13 63 38 88s53 37 85 37s61 -12 86 -37s37 -54 37 -88c0 -35 -12 -64 -37 -89zM1626 1143l-161 -57c-19 59 -47 117 -109 189c-31 35 -67 67 -106 94c-79 54 -202 95 -338 95c-119 0 -227 -30 -324 -91
s-172 -142 -225 -242s-79 -208 -79 -325c0 -181 61 -348 168 -469s273 -196 464 -196c143 0 278 45 382 125s174 206 183 354h-670v156h849v-61c0 -203 -72 -385 -198 -517s-322 -214 -550 -214c-239 0 -447 89 -584 234s-218 351 -218 579c0 152 35 291 105 417
c70 125 167 224 291 297c123 73 261 109 412 109c189 0 356 -54 471 -145s193 -201 237 -332z" />
    <glyph glyph-name="gdotaccent" unicode="&#x121;" horiz-adv-x="1379" 
d="M737 1314c-50 -49 -121 -49 -171 0c-25 25 -38 54 -38 89c0 34 13 63 38 88s53 37 85 37s61 -12 86 -37s37 -54 37 -88c0 -35 -12 -64 -37 -89zM1039 16v228c-99 -166 -241 -249 -424 -249c-101 0 -191 26 -270 78c-79 51 -139 119 -180 203s-62 176 -62 276
c0 96 21 187 63 272c41 85 102 154 181 208s169 81 268 81c103 0 193 -28 262 -76c68 -49 116 -102 164 -173v229h157v-1067c0 -187 -51 -329 -154 -427c-103 -97 -242 -146 -415 -146c-136 0 -252 36 -347 107c-96 72 -154 161 -175 268l147 49c25 -112 126 -284 373 -284
c116 0 212 31 289 96s123 179 123 327zM648 136c113 0 206 41 281 124c75 82 112 180 112 295c5 212 -173 420 -393 416c-117 0 -210 -40 -279 -119c-69 -80 -103 -181 -103 -303c-5 -224 147 -415 382 -413z" />
    <glyph glyph-name="Gcommaaccent" unicode="&#x122;" horiz-adv-x="1756" 
d="M1626 1143l-161 -57c-19 59 -47 117 -109 189c-31 35 -67 67 -106 94c-79 54 -202 95 -338 95c-119 0 -227 -30 -324 -91s-172 -142 -225 -242s-79 -208 -79 -325c0 -181 61 -348 168 -469s273 -196 464 -196c143 0 278 45 382 125s174 206 183 354h-670v156h849v-61
c0 -203 -72 -385 -198 -517s-322 -214 -550 -214c-239 0 -447 89 -584 234s-218 351 -218 579c0 152 35 291 105 417c70 125 167 224 291 297c123 73 261 109 412 109c189 0 356 -54 471 -145s193 -201 237 -332zM773 -661v69c37 7 69 28 96 63s40 73 41 114
c-13 -7 -28 -11 -43 -11c-64 0 -109 48 -109 113c0 32 12 59 36 80c23 22 51 33 83 33c41 0 73 -16 96 -47s34 -67 34 -110c0 -77 -21 -145 -62 -203c-41 -57 -99 -91 -172 -101z" />
    <glyph glyph-name="gcommaaccent" unicode="&#x123;" horiz-adv-x="1379" 
d="M761 1718v-69c-37 -7 -68 -29 -95 -64s-41 -73 -42 -114c12 7 27 11 44 11c64 0 109 -49 109 -113c0 -32 -12 -59 -35 -80c-24 -21 -52 -32 -84 -32c-41 0 -73 16 -96 47s-35 67 -35 110c0 77 21 144 62 202s99 92 172 102zM1039 16v228c-99 -166 -241 -249 -424 -249
c-101 0 -191 26 -270 78c-79 51 -139 119 -180 203s-62 176 -62 276c0 96 21 187 63 272c41 85 102 154 181 208s169 81 268 81c103 0 193 -28 262 -76c68 -49 116 -102 164 -173v229h157v-1067c0 -187 -51 -329 -154 -427c-103 -97 -242 -146 -415 -146
c-136 0 -252 36 -347 107c-96 72 -154 161 -175 268l147 49c25 -112 126 -284 373 -284c116 0 212 31 289 96s123 179 123 327zM648 136c113 0 206 41 281 124c75 82 112 180 112 295c5 212 -173 420 -393 416c-117 0 -210 -40 -279 -119c-69 -80 -103 -181 -103 -303
c-5 -224 147 -415 382 -413z" />
    <glyph glyph-name="Hbar" unicode="&#x126;" horiz-adv-x="1712" 
d="M399 734v-734h-168v1190h-180v149h180v265h168v-265h914v265h168v-265h179v-149h-179v-1190h-168v734h-914zM1313 1190h-914v-296h914v296z" />
    <glyph glyph-name="hbar" unicode="&#x127;" horiz-adv-x="1295" 
d="M969 0v636c0 101 -26 181 -77 242c-52 60 -127 90 -226 90c-95 0 -173 -33 -234 -99s-92 -148 -92 -246v-623h-159v1298h-137v142h137v228h159v-228h399v-142h-399v-401c87 145 212 217 374 217c131 0 233 -40 306 -120c72 -81 108 -187 108 -318v-676h-159z" />
    <glyph glyph-name="Itilde" unicode="&#x128;" horiz-adv-x="614" 
d="M445 1792c66 0 114 22 145 65c30 43 46 100 47 169h-100c-15 -63 -45 -94 -90 -94c-81 -4 -184 102 -272 98c-66 0 -115 -22 -147 -66c-33 -45 -49 -101 -50 -170h116c11 65 38 98 82 98c48 0 98 -25 131 -50c32 -25 85 -50 138 -50zM223 0v1604h168v-1604h-168z" />
    <glyph glyph-name="itilde" unicode="&#x129;" horiz-adv-x="522" 
d="M398 1280c66 0 114 22 145 65c30 43 46 100 47 169h-100c-15 -63 -45 -94 -90 -94c-81 -4 -184 102 -272 98c-66 0 -115 -22 -147 -66c-32 -45 -48 -101 -49 -170h115c11 65 38 98 82 98c48 0 98 -25 131 -50c32 -25 85 -50 138 -50zM181 0v1093h160v-1093h-160z" />
    <glyph glyph-name="Imacron" unicode="&#x12a;" horiz-adv-x="614" 
d="M2 1810h610v145h-610v-145zM223 0v1604h168v-1604h-168z" />
    <glyph glyph-name="imacron" unicode="&#x12b;" horiz-adv-x="522" 
d="M-41 1311h605v144h-605v-144zM181 0v1093h160v-1093h-160z" />
    <glyph glyph-name="Ibreve" unicode="&#x12c;" horiz-adv-x="614" 
d="M308 1751c91 0 169 32 232 95s96 146 99 250h-123c-9 -136 -89 -217 -208 -217c-121 0 -200 85 -207 217h-126c5 -147 79 -259 176 -308c48 -25 100 -37 157 -37zM223 0v1604h168v-1604h-168z" />
    <glyph glyph-name="ibreve" unicode="&#x12d;" horiz-adv-x="522" 
d="M263 1276c91 0 169 32 232 95s96 146 99 250h-123c-9 -136 -89 -217 -208 -217c-121 0 -202 85 -209 217h-126c5 -147 80 -259 177 -308c48 -25 101 -37 158 -37zM181 0v1093h160v-1093h-160z" />
    <glyph glyph-name="Iogonek" unicode="&#x12e;" horiz-adv-x="614" 
d="M428 -371v-123c-16 -3 -36 -5 -59 -5c-75 0 -139 20 -192 59c-53 40 -80 96 -80 168c0 87 59 178 177 272h-51v1604h168v-1604c-37 -32 -70 -70 -98 -113s-42 -84 -42 -123c0 -93 59 -138 177 -135z" />
    <glyph glyph-name="iogonek" unicode="&#x12f;" horiz-adv-x="522" 
d="M346 1400c-23 -23 -52 -35 -85 -35s-62 12 -85 35s-35 52 -35 85s12 62 35 85s52 35 85 35s62 -12 85 -35s35 -52 35 -85s-12 -62 -35 -85zM201 -236c0 -93 59 -138 177 -135v-123c-16 -3 -36 -5 -59 -5c-75 0 -139 20 -192 59c-53 40 -80 96 -80 168
c0 87 59 178 177 272h-43v1093h160v-1093c-37 -32 -70 -70 -98 -113s-42 -84 -42 -123z" />
    <glyph glyph-name="Idot" unicode="&#x130;" horiz-adv-x="614" 
d="M393 1793c-50 -49 -121 -49 -171 0c-25 25 -38 54 -38 89c0 34 13 63 38 88s53 37 85 37s61 -12 86 -37s37 -54 37 -88c0 -35 -12 -64 -37 -89zM391 1604v-1604h-168v1604h168z" />
    <glyph glyph-name="dotlessi" unicode="&#x131;" horiz-adv-x="522" 
d="M341 1093v-1093h-160v1093h160z" />
    <glyph glyph-name="IJ" unicode="&#x132;" horiz-adv-x="1397" 
d="M1192 1604v-1104c0 -149 -46 -273 -137 -370c-92 -97 -209 -146 -351 -146c-153 0 -274 47 -365 140s-137 217 -137 372v75h169v-69c0 -121 40 -219 104 -275c63 -56 140 -85 224 -85c93 0 171 34 233 102c61 67 92 151 92 250v1110h168zM371 809h-169v795h169v-795z" />
    <glyph glyph-name="Kcommaaccent" unicode="&#x136;" horiz-adv-x="1387" 
d="M1121 1604h234l-786 -768l824 -836h-238l-752 772h-12v-772h-168v1604h168v-709h11zM608 -661v69c37 7 69 28 96 63s40 73 40 114c-12 -7 -26 -11 -43 -11c-64 0 -109 48 -109 113c0 32 12 59 36 80c23 22 51 33 83 33c41 0 74 -16 97 -47s34 -67 34 -110
c0 -77 -21 -145 -62 -203c-41 -57 -99 -91 -172 -101z" />
    <glyph glyph-name="kcommaaccent" unicode="&#x137;" horiz-adv-x="1116" 
d="M340 649l520 444h227l-576 -491l603 -602h-224l-543 547h-7v-547h-159v1669h159v-1020zM477 -661v69c37 7 69 28 96 63s40 73 40 114c-12 -7 -26 -11 -43 -11c-64 0 -109 48 -109 113c0 32 12 59 36 80c23 22 51 33 83 33c41 0 74 -16 97 -47s34 -67 34 -110
c0 -77 -21 -145 -62 -203c-41 -57 -99 -91 -172 -101z" />
    <glyph glyph-name="Lacute" unicode="&#x139;" horiz-adv-x="1194" 
d="M652 2103h-194l-222 -352h153zM1152 158v-158h-929v1604h168v-1446h761z" />
    <glyph glyph-name="lacute" unicode="&#x13a;" horiz-adv-x="523" 
d="M603 2163h-194l-223 -352h154zM181 0v1669h161v-1669h-161z" />
    <glyph glyph-name="Lcommaaccent" unicode="&#x13b;" horiz-adv-x="1194" 
d="M223 0v1604h168v-1446h761v-158h-929zM556 -661v69c37 7 69 28 96 63s40 73 41 114c-13 -7 -28 -11 -43 -11c-64 0 -109 48 -109 113c0 32 12 59 36 80c23 22 51 33 83 33c41 0 73 -16 96 -47s34 -67 34 -110c0 -77 -21 -145 -62 -203c-41 -57 -99 -91 -172 -101z" />
    <glyph glyph-name="lcommaaccent" unicode="&#x13c;" horiz-adv-x="522" 
d="M341 1669v-1669h-160v1669h160zM141 -661v69c37 7 69 28 96 63s40 73 40 114c-12 -7 -26 -11 -43 -11c-64 0 -109 48 -109 113c0 32 12 59 36 80c23 22 51 33 83 33c41 0 74 -16 97 -47s34 -67 34 -110c0 -77 -21 -145 -62 -203c-41 -57 -99 -91 -172 -101z" />
    <glyph glyph-name="Lcaron" unicode="&#x13d;" horiz-adv-x="1238" 
d="M1161 1649h-175l-30 -459h135zM1152 158v-158h-929v1604h168v-1446h761z" />
    <glyph glyph-name="lcaron" unicode="&#x13e;" horiz-adv-x="562" 
d="M341 1669v-1669h-160v1669h160zM490 1210h135l70 459h-175z" />
    <glyph glyph-name="Ldot" unicode="&#x13f;" horiz-adv-x="1227" 
d="M223 0v1604h168v-1446h761v-158h-929zM945 690c-23 23 -35 52 -35 85s12 62 35 85s52 35 85 35s62 -12 85 -35s35 -52 35 -85s-12 -62 -35 -85s-52 -35 -85 -35s-62 12 -85 35z" />
    <glyph glyph-name="ldot" unicode="&#x140;" horiz-adv-x="761" 
d="M341 1669v-1669h-160v1669h160zM551 690c-23 23 -35 52 -35 85s12 62 35 85s52 35 85 35s62 -12 85 -35s35 -52 35 -85s-12 -62 -35 -85s-52 -35 -85 -35s-62 12 -85 35z" />
    <glyph glyph-name="Lslash" unicode="&#x141;" horiz-adv-x="1229" 
d="M256 1604h168v-674l453 232v-163l-453 -232v-609h760v-158h-928v681l-214 -109v163l214 109v760z" />
    <glyph glyph-name="lslash" unicode="&#x142;" horiz-adv-x="729" 
d="M289 1669h161v-780l210 157v-168l-210 -154v-724h-161v604l-208 -156v169l208 153v899z" />
    <glyph glyph-name="Nacute" unicode="&#x143;" horiz-adv-x="1754" 
d="M891 2103h194l-263 -352h-153zM223 0v1604h195l947 -1348v1348h166v-1604h-184l-957 1365v-1365h-167z" />
    <glyph glyph-name="nacute" unicode="&#x144;" horiz-adv-x="1299" 
d="M801 1632h194l-263 -352h-153zM973 0v636c0 101 -26 181 -77 242c-52 60 -127 90 -226 90c-95 0 -173 -33 -236 -99s-94 -148 -94 -246v-623h-159v1093h156v-200c91 147 218 221 381 221c131 0 233 -40 306 -120c72 -81 108 -187 108 -318v-676h-159z" />
    <glyph glyph-name="Ncommaaccent" unicode="&#x145;" horiz-adv-x="1753" 
d="M223 0v1604h194l947 -1348v1348h166v-1604h-184l-957 1365v-1365h-166zM766 -661v69c37 7 69 28 96 63s40 73 41 114c-13 -7 -28 -11 -43 -11c-64 0 -109 48 -109 113c0 32 12 59 36 80c23 22 51 33 83 33c41 0 73 -16 96 -47s34 -67 34 -110c0 -77 -21 -145 -62 -203
c-41 -57 -99 -91 -172 -101z" />
    <glyph glyph-name="ncommaaccent" unicode="&#x146;" horiz-adv-x="1295" 
d="M969 0v636c0 101 -26 181 -77 242c-52 60 -127 90 -226 90c-95 0 -173 -33 -234 -99s-92 -148 -92 -246v-623h-159v1093h156v-200c87 147 212 221 377 221c131 0 233 -40 306 -120c72 -81 108 -187 108 -318v-676h-159zM544 -661v69c37 7 69 28 96 63s40 73 41 114
c-13 -7 -28 -11 -43 -11c-64 0 -109 48 -109 113c0 32 12 59 36 80c23 22 51 33 83 33c41 0 73 -16 96 -47s34 -67 34 -110c0 -77 -21 -145 -62 -203c-41 -57 -99 -91 -172 -101z" />
    <glyph glyph-name="Ncaron" unicode="&#x147;" horiz-adv-x="1754" 
d="M1064 2103h170l-282 -353h-159l-273 353h170l183 -242h5zM223 0v1604h195l947 -1348v1348h166v-1604h-184l-957 1365v-1365h-167z" />
    <glyph glyph-name="ncaron" unicode="&#x148;" horiz-adv-x="1299" 
d="M659 1391l186 242h170l-282 -353h-159l-276 353h173l183 -242h5zM973 0v636c0 101 -26 181 -77 242c-52 60 -127 90 -226 90c-95 0 -173 -33 -236 -99s-94 -148 -94 -246v-623h-159v1093h156v-200c91 147 218 221 381 221c131 0 233 -40 306 -120
c72 -81 108 -187 108 -318v-676h-159z" />
    <glyph glyph-name="Eng" unicode="&#x14a;" horiz-adv-x="1753" 
d="M1364 -3l-975 1371v-1368h-166v1604h194l947 -1331v1331h166v-1859c0 -88 -25 -159 -74 -212s-130 -79 -243 -79c-49 0 -90 6 -125 18v132c27 -5 60 -8 99 -8c118 0 177 51 177 154v247z" />
    <glyph glyph-name="eng" unicode="&#x14b;" horiz-adv-x="1295" 
d="M969 -250v886c0 101 -26 181 -77 242c-52 60 -127 90 -226 90c-95 0 -173 -33 -234 -99s-92 -148 -92 -246v-623h-159v1093h156v-200c87 147 212 221 377 221c131 0 233 -40 306 -120c72 -81 108 -187 108 -318v-931c0 -194 -103 -291 -310 -291c-49 0 -90 6 -125 18v132
c27 -5 60 -8 99 -8c118 0 177 51 177 154z" />
    <glyph glyph-name="Omacron" unicode="&#x14c;" horiz-adv-x="1834" 
d="M572 1811h690v144h-690v-144zM1724 806c0 -152 -35 -291 -104 -416c-70 -125 -167 -224 -291 -297s-262 -110 -414 -110c-113 0 -219 21 -319 64c-100 42 -185 99 -256 172c-71 72 -127 158 -168 259c-41 100 -62 206 -62 319c0 151 35 290 105 416
c70 125 167 225 291 298s262 109 414 109c113 0 219 -21 319 -63c100 -43 185 -100 256 -172c71 -73 127 -159 168 -259c41 -101 61 -207 61 -320zM1549 797c0 179 -66 348 -176 469c-110 120 -275 197 -458 197c-121 0 -229 -30 -326 -89c-97 -60 -171 -140 -224 -239
c-53 -100 -80 -210 -80 -329c0 -120 27 -230 80 -331s129 -182 227 -243c97 -61 207 -91 328 -91c120 0 228 30 325 89s172 139 225 239c53 99 79 209 79 328z" />
    <glyph glyph-name="omacron" unicode="&#x14d;" horiz-adv-x="1332" 
d="M1015 1311h-693v144h693v-144zM663 -19c-103 0 -198 25 -284 75c-87 50 -155 118 -204 204s-74 180 -74 283c0 161 54 297 163 406c108 109 242 164 403 164c310 6 570 -254 564 -562c6 -317 -254 -577 -568 -570zM667 123c115 0 211 41 287 123s114 181 114 297
c0 117 -38 218 -115 303c-77 84 -173 126 -290 126c-116 0 -211 -41 -286 -123s-113 -181 -113 -298c-5 -227 170 -432 403 -428z" />
    <glyph glyph-name="Ohungarumlaut" unicode="&#x150;" horiz-adv-x="1833" 
d="M886 2103h194l-263 -352h-152zM1239 2103h194l-263 -352h-152zM1723 806c0 -152 -35 -291 -104 -416c-70 -125 -167 -224 -291 -297s-262 -110 -414 -110c-113 0 -219 21 -319 64c-100 42 -185 99 -256 172c-71 72 -126 158 -167 259c-41 100 -62 206 -62 319
c0 151 35 290 105 416c69 125 166 225 290 298s262 109 414 109c113 0 219 -21 319 -63c100 -43 185 -100 256 -172c71 -73 127 -159 168 -259c41 -101 61 -207 61 -320zM1548 797c0 179 -66 348 -176 469c-110 120 -275 197 -458 197c-120 0 -228 -30 -325 -89
c-97 -60 -171 -140 -224 -239c-53 -100 -80 -210 -80 -329c0 -179 67 -348 177 -468s274 -197 457 -197c120 0 228 30 325 89s172 139 225 239c53 99 79 209 79 328z" />
    <glyph glyph-name="ohungarumlaut" unicode="&#x151;" horiz-adv-x="1332" 
d="M831 1632h-194l-221 -352h152zM1184 1632h-194l-221 -352h152zM663 -19c-103 0 -198 25 -284 75c-87 50 -155 118 -204 204s-74 180 -74 283c0 161 54 297 163 406c108 109 242 164 403 164c310 6 570 -254 564 -562c6 -317 -254 -577 -568 -570zM667 123
c115 0 211 41 287 123s114 181 114 297c0 117 -38 218 -115 303c-77 84 -173 126 -290 126c-116 0 -211 -41 -286 -123s-113 -181 -113 -298c-5 -227 170 -432 403 -428z" />
    <glyph glyph-name="OE" unicode="&#x152;" horiz-adv-x="2685" 
d="M915 -15c-113 0 -219 21 -319 63s-185 99 -256 171c-71 71 -126 157 -167 257c-41 99 -62 205 -62 316v17c0 111 21 217 64 317c42 100 99 186 171 258s158 129 258 172c100 42 205 63 316 63c263 0 472 -112 626 -337h3v322h1003v-156h-835v-555h764v-155h-764v-582h843
v-156h-1011v322h-4c-153 -225 -363 -337 -630 -337zM920 143c180 0 345 74 454 190s176 281 176 454v23c0 175 -67 340 -175 458c-109 118 -275 193 -456 193c-121 0 -231 -29 -328 -88s-172 -138 -225 -237s-80 -208 -80 -326v-15c0 -176 67 -341 177 -459
s274 -193 457 -193z" />
    <glyph glyph-name="oe" unicode="&#x153;" horiz-adv-x="2201" 
d="M2104 497h-883c5 -107 45 -196 119 -267s164 -107 271 -107c164 0 287 82 338 234l142 -45c-31 -103 -91 -184 -179 -243s-188 -88 -299 -88c-102 0 -194 25 -277 76s-148 119 -194 204c-50 -86 -117 -154 -200 -204c-84 -51 -177 -76 -279 -76c-103 0 -198 25 -284 75
c-87 50 -155 118 -204 204s-74 180 -74 283c0 161 54 297 163 406c108 109 242 164 403 164c102 0 195 -25 278 -75s150 -119 200 -207c44 87 105 156 183 207c78 50 165 75 262 75c109 0 204 -25 283 -74c79 -50 137 -117 176 -200c38 -84 57 -180 57 -288
c0 -12 -1 -30 -2 -54zM667 123c115 0 209 41 284 123c75 81 112 180 112 297c0 118 -38 219 -113 303s-171 126 -287 126s-211 -41 -286 -123s-113 -181 -113 -298c-5 -227 170 -432 403 -428zM1223 633h721c-11 102 -47 184 -109 246s-144 93 -245 93
c-93 0 -174 -33 -243 -99c-69 -67 -111 -147 -124 -240z" />
    <glyph glyph-name="Racute" unicode="&#x154;" horiz-adv-x="1475" 
d="M577 1751l222 352h194l-263 -352h-153zM223 1604h556c189 0 340 -53 429 -140c88 -88 134 -200 134 -328c0 -271 -202 -428 -440 -459l494 -677h-204l-474 649h-327v-649h-168v1604zM391 802h373c140 0 250 40 313 104c63 63 94 140 94 224c0 159 -98 316 -404 316h-376
v-644z" />
    <glyph glyph-name="racute" unicode="&#x155;" horiz-adv-x="778" 
d="M791 1632h-194l-222 -352h153zM340 534v-534h-159v1093h156v-216c53 108 141 182 225 212c41 15 84 22 128 22c25 0 43 -1 54 -4v-169c-19 3 -40 4 -62 4c-259 0 -342 -213 -342 -408z" />
    <glyph glyph-name="Rcommaaccent" unicode="&#x156;" horiz-adv-x="1475" 
d="M223 1604h556c189 0 340 -53 429 -140c88 -88 134 -200 134 -328c0 -271 -202 -428 -440 -459l494 -677h-204l-474 649h-327v-649h-168v1604zM391 802h373c140 0 250 40 313 104c63 63 94 140 94 224c0 159 -98 316 -404 316h-376v-644zM566 -661v69c37 7 69 28 96 63
s40 73 41 114c-13 -7 -28 -11 -43 -11c-64 0 -109 48 -109 113c0 32 12 59 36 80c23 22 51 33 83 33c41 0 73 -16 96 -47s34 -67 34 -110c0 -77 -21 -145 -62 -203c-41 -57 -99 -91 -172 -101z" />
    <glyph glyph-name="rcommaaccent" unicode="&#x157;" horiz-adv-x="778" 
d="M337 1093v-216c53 108 141 182 225 212c41 15 84 22 128 22c25 0 43 -1 54 -4v-169c-19 3 -40 4 -62 4c-259 0 -342 -213 -342 -408v-534h-159v1093h156zM181 -661v69c37 7 69 28 96 63s40 73 41 114c-13 -7 -28 -11 -44 -11c-64 0 -109 48 -109 113c0 32 12 59 36 80
c23 22 51 33 83 33c41 0 74 -16 97 -47s34 -67 34 -110c0 -77 -21 -145 -62 -203c-41 -57 -99 -91 -172 -101z" />
    <glyph glyph-name="Rcaron" unicode="&#x158;" horiz-adv-x="1475" 
d="M973 2107h170l-282 -353h-159l-274 353h171l183 -242h5zM223 1604h556c189 0 340 -53 429 -140c88 -88 134 -200 134 -328c0 -271 -202 -428 -440 -459l494 -677h-204l-474 649h-327v-649h-168v1604zM391 802h373c140 0 250 40 313 104c63 63 94 140 94 224
c0 159 -98 316 -404 316h-376v-644z" />
    <glyph glyph-name="rcaron" unicode="&#x159;" horiz-adv-x="778" 
d="M651 1633l-186 -242h-5l-183 242h-173l276 -353h159l282 353h-170zM340 534v-534h-159v1093h156v-216c53 108 141 182 225 212c41 15 84 22 128 22c25 0 43 -1 54 -4v-169c-19 3 -40 4 -62 4c-259 0 -342 -213 -342 -408z" />
    <glyph glyph-name="Sacute" unicode="&#x15a;" horiz-adv-x="1317" 
d="M665 2103h194l-263 -352h-153zM670 -16c-152 0 -298 57 -395 142s-163 199 -175 312l160 44c18 -95 66 -175 145 -241s167 -99 265 -99c93 0 179 24 248 71c68 47 112 126 112 222c0 113 -60 185 -135 229c-53 31 -99 44 -151 55l-213 42c-88 17 -197 63 -274 136
c-76 71 -114 164 -114 277c0 88 24 167 73 236s112 122 189 158c77 35 161 53 251 53c344 0 497 -212 529 -384l-153 -48c-28 114 -131 277 -380 277c-90 0 -169 -27 -236 -80s-101 -121 -101 -204c0 -124 78 -222 234 -253l204 -40c136 -27 240 -73 311 -140
c49 -46 85 -96 106 -149c21 -54 32 -103 32 -146c3 -283 -235 -475 -532 -470z" />
    <glyph glyph-name="sacute" unicode="&#x15b;" horiz-adv-x="1009" 
d="M635 1632h194l-263 -352h-152zM905 311c0 -97 -38 -176 -113 -237s-167 -92 -275 -92c-113 0 -212 34 -272 80c-30 23 -56 49 -78 79c-44 59 -62 114 -69 166l149 38c18 -100 94 -223 269 -223c62 0 115 16 160 49c45 32 67 76 67 131c0 43 -18 79 -53 106
c-36 27 -78 46 -126 57l-167 37c-183 41 -275 136 -275 285c0 113 57 206 136 254s162 72 237 72c166 -1 272 -66 328 -145c41 -55 58 -101 66 -148l-145 -41c-11 43 -28 80 -64 123c-37 43 -103 71 -184 71c-59 0 -109 -17 -150 -51s-61 -75 -61 -124
c0 -85 61 -125 158 -148l177 -40c143 -33 285 -124 285 -299z" />
    <glyph glyph-name="Scircumflex" unicode="&#x15c;" horiz-adv-x="1317" 
d="M727 2102h-159l-274 -353h171l183 242h5l186 -242h170zM670 -16c-152 0 -298 57 -395 142s-163 199 -175 312l160 44c18 -95 66 -175 145 -241s167 -99 265 -99c93 0 179 24 248 71c68 47 112 126 112 222c0 113 -60 185 -135 229c-53 31 -99 44 -151 55l-213 42
c-88 17 -197 63 -274 136c-76 71 -114 164 -114 277c0 88 24 167 73 236s112 122 189 158c77 35 161 53 251 53c344 0 497 -212 529 -384l-153 -48c-28 114 -131 277 -380 277c-90 0 -169 -27 -236 -80s-101 -121 -101 -204c0 -124 78 -222 234 -253l204 -40
c136 -27 240 -73 311 -140c49 -46 85 -96 106 -149c21 -54 32 -103 32 -146c3 -283 -235 -475 -532 -470z" />
    <glyph glyph-name="scircumflex" unicode="&#x15d;" horiz-adv-x="1009" 
d="M586 1633h-159l-276 -353h173l183 242h5l186 -242h170zM905 311c0 -97 -38 -176 -113 -237s-167 -92 -275 -92c-176 1 -291 73 -350 159c-44 59 -62 113 -69 166l149 38c18 -100 94 -223 269 -223c62 0 115 16 160 49c45 32 67 76 67 131c0 43 -18 79 -53 106
c-36 27 -78 46 -126 57l-167 37c-183 41 -275 136 -275 285c0 113 57 206 136 254s162 72 237 72c166 -1 272 -66 328 -145c41 -55 58 -101 66 -148l-145 -41c-11 43 -28 80 -64 123c-37 43 -103 71 -184 71c-59 0 -109 -17 -150 -51s-61 -75 -61 -124
c0 -85 61 -125 158 -148l177 -40c143 -33 285 -124 285 -299z" />
    <glyph glyph-name="Scedilla" unicode="&#x15e;" horiz-adv-x="1313" 
d="M820 -198c0 -93 -32 -166 -96 -220c-65 -54 -145 -81 -242 -81c-56 0 -107 8 -154 23v126c45 -12 92 -18 140 -18c133 0 208 71 208 194c0 59 -23 113 -68 161c-137 13 -253 63 -348 152s-149 188 -160 299l158 44c18 -95 66 -175 144 -241s166 -99 264 -99
c93 0 179 24 248 71c68 47 112 126 112 222c0 113 -60 185 -135 229c-53 31 -99 44 -151 55l-213 42c-43 9 -90 24 -140 47s-94 52 -132 89c-75 73 -112 165 -112 277c0 89 24 168 72 237s110 121 187 157c77 35 160 53 250 53c344 0 497 -212 529 -384l-153 -48
c-28 114 -131 277 -380 277c-170 4 -338 -117 -336 -284c0 -124 78 -222 233 -253l204 -40c136 -27 240 -73 311 -140c49 -46 85 -96 106 -149c21 -54 32 -103 32 -146c0 -128 -42 -234 -126 -317c-84 -84 -193 -134 -326 -149c44 -52 74 -123 74 -186z" />
    <glyph glyph-name="scedilla" unicode="&#x15f;" horiz-adv-x="1006" 
d="M667 -198c0 -93 -32 -166 -96 -220c-65 -54 -145 -81 -242 -81c-56 0 -107 8 -154 23v126c45 -12 91 -18 140 -18c133 0 208 71 208 194c0 59 -22 112 -66 159c-254 24 -345 208 -359 322l146 38c18 -100 94 -223 269 -223c62 0 115 16 160 49c45 32 67 76 67 131
c0 43 -18 79 -53 106c-36 27 -78 46 -126 57l-167 37c-181 40 -272 135 -272 285c0 113 57 206 135 254s160 72 235 72c166 -1 272 -66 328 -145c41 -55 58 -101 66 -148l-145 -41c-11 43 -28 80 -64 123c-37 43 -103 71 -184 71c-59 0 -109 -17 -150 -51s-61 -75 -61 -124
c0 -85 61 -125 158 -148l177 -40c143 -33 285 -124 285 -299c0 -85 -29 -156 -87 -213c-58 -58 -132 -95 -221 -110c44 -52 73 -123 73 -186z" />
    <glyph glyph-name="Scaron" unicode="&#x160;" horiz-adv-x="1313" 
d="M836 2107h170l-282 -353h-159l-273 353h170l183 -242h5zM666 -16c-152 0 -296 57 -392 142c-97 85 -162 199 -174 312l158 44c18 -95 66 -175 144 -241s166 -99 264 -99c93 0 179 24 248 71c68 47 112 126 112 222c0 113 -60 185 -135 229c-53 31 -99 44 -151 55l-213 42
c-43 9 -90 24 -140 47s-94 52 -132 89c-75 73 -112 165 -112 277c0 89 24 168 72 237s110 121 187 157c77 35 160 53 250 53c344 0 497 -212 529 -384l-153 -48c-28 114 -131 277 -380 277c-170 4 -338 -117 -336 -284c0 -124 78 -222 233 -253l204 -40
c134 -26 237 -73 310 -140c49 -46 85 -96 107 -150c21 -54 32 -102 32 -145c3 -283 -235 -475 -532 -470z" />
    <glyph glyph-name="scaron" unicode="&#x161;" horiz-adv-x="1007" 
d="M505 1391l186 242h170l-282 -353h-159l-275 353h171l184 -242h5zM903 311c0 -97 -38 -176 -113 -237s-167 -92 -275 -92c-176 1 -289 73 -348 159c-44 59 -62 113 -69 166l147 38c18 -100 94 -223 269 -223c62 0 115 16 160 49c45 32 67 76 67 131c0 43 -18 79 -53 106
c-36 27 -78 46 -126 57l-167 37c-75 16 -131 40 -186 83s-87 113 -87 202c0 240 234 326 371 326c166 -1 272 -66 328 -145c41 -55 58 -101 66 -148l-145 -41c-11 43 -28 80 -64 123c-37 43 -103 71 -184 71c-59 0 -109 -17 -150 -51s-61 -75 -61 -124
c0 -85 61 -125 158 -148l177 -40c143 -33 285 -124 285 -299z" />
    <glyph glyph-name="uni0162" unicode="&#x162;" horiz-adv-x="1332" 
d="M836 -198c0 -93 -32 -166 -96 -220c-65 -54 -145 -81 -242 -81c-55 0 -107 8 -155 23v126c47 -12 94 -18 141 -18c133 0 208 71 208 194c0 67 -27 125 -82 174h-26v1446h-540v158h1244v-158h-535v-1446c49 -52 83 -131 83 -198z" />
    <glyph glyph-name="uni0163" unicode="&#x163;" horiz-adv-x="779" 
d="M288 -368c135 0 208 71 208 194c0 70 -33 135 -98 195c-97 43 -145 130 -145 262v669h-202v141h202v316h159v-316h277v-141h-277v-665c0 -103 59 -154 177 -154c39 0 72 3 99 8v-132c-34 -12 -75 -18 -124 -18c45 -52 76 -126 76 -189c0 -93 -32 -166 -96 -220
c-65 -54 -145 -81 -241 -81c-38 0 -76 4 -114 12v129c37 -7 70 -10 99 -10z" />
    <glyph glyph-name="Tcaron" unicode="&#x164;" horiz-adv-x="1332" 
d="M1024 2108h-170l-186 -242h-5l-183 242h-171l274 -353h159zM753 1446v-1446h-169v1446h-540v158h1244v-158h-535z" />
    <glyph glyph-name="tcaron" unicode="&#x165;" horiz-adv-x="779" 
d="M581 1669h175l-70 -459h-135zM563 -9c-237 0 -310 132 -310 292v669h-202v141h202v316h159v-316h277v-141h-277v-665c0 -103 59 -154 177 -154c39 0 72 3 99 8v-132c-35 -12 -76 -18 -125 -18z" />
    <glyph glyph-name="Tbar" unicode="&#x166;" horiz-adv-x="1359" 
d="M292 737v156h303v553h-536v158h1240v-158h-535v-553h305v-156h-305v-737h-169v737h-303z" />
    <glyph glyph-name="tbar" unicode="&#x167;" horiz-adv-x="790" 
d="M667 677v-141h-246v-249c0 -103 59 -154 177 -154c39 0 72 3 99 8v-132c-35 -12 -76 -18 -125 -18c-237 0 -310 132 -310 292v253h-186v141h186v275h-202v141h202v316h159v-316h277v-141h-277v-275h246z" />
    <glyph glyph-name="Utilde" unicode="&#x168;" horiz-adv-x="1610" 
d="M942 1792c66 0 114 22 145 65c30 43 46 100 47 169h-100c-15 -63 -45 -94 -90 -94c-81 -4 -184 102 -272 98c-66 0 -115 -22 -147 -66c-32 -45 -48 -101 -49 -170h115c11 65 38 98 82 98c48 0 98 -25 131 -50c32 -25 85 -50 138 -50zM1240 615v989h168v-977
c0 -203 -53 -360 -158 -473c-106 -113 -254 -170 -445 -170s-340 57 -445 172c-105 114 -158 267 -158 460v988h169v-980c0 -169 47 -298 128 -372s185 -110 313 -110c137 0 243 41 317 124s111 199 111 349z" />
    <glyph glyph-name="utilde" unicode="&#x169;" horiz-adv-x="1295" 
d="M778 1280c-53 0 -106 25 -138 50c-33 25 -83 50 -131 50c-44 0 -71 -33 -82 -98h-115c1 69 17 125 49 170c32 44 81 66 147 66c88 4 191 -102 272 -98c45 0 75 31 90 94h100c-1 -69 -17 -126 -47 -169c-31 -43 -79 -65 -145 -65zM327 1093v-636c0 -101 26 -181 78 -241
c51 -61 126 -91 225 -91c95 0 173 33 234 99s92 148 92 246v623h158v-1093h-156v200c-87 -147 -212 -221 -376 -221c-131 0 -233 40 -306 121c-73 80 -109 186 -109 317v676h160z" />
    <glyph glyph-name="Umacron" unicode="&#x16a;" horiz-adv-x="1612" 
d="M461 1811h691v144h-691v-144zM1242 615v989h168v-977c0 -203 -53 -360 -158 -473c-106 -113 -254 -170 -445 -170c-192 0 -341 57 -446 172c-106 114 -159 267 -159 460v988h169v-980c0 -169 48 -298 129 -372s186 -110 314 -110c137 0 243 41 317 124s111 199 111 349z
" />
    <glyph glyph-name="umacron" unicode="&#x16b;" horiz-adv-x="1295" 
d="M985 1311h-690v144h690v-144zM327 1093v-636c0 -101 26 -181 78 -241c51 -61 126 -91 225 -91c95 0 173 33 234 99s92 148 92 246v623h158v-1093h-156v200c-87 -147 -212 -221 -376 -221c-131 0 -233 40 -306 121c-73 80 -109 186 -109 317v676h160z" />
    <glyph glyph-name="Uring" unicode="&#x16e;" horiz-adv-x="1612" 
d="M806 1708c80 0 148 27 204 80c55 53 83 118 83 194c0 75 -28 139 -83 192c-56 53 -124 80 -204 80c-78 0 -145 -27 -201 -80s-84 -117 -84 -192c0 -76 28 -141 84 -194s123 -80 201 -80zM806 2141c43 0 82 -16 115 -47c33 -32 50 -69 50 -112c0 -45 -16 -83 -48 -114
s-71 -47 -117 -47s-85 16 -116 47c-32 31 -48 69 -48 114s16 82 48 113c31 31 70 46 116 46zM1242 615v989h168v-977c0 -203 -53 -360 -158 -473c-106 -113 -254 -170 -445 -170c-192 0 -341 57 -446 172c-106 114 -159 267 -159 460v988h169v-980c0 -169 48 -298 129 -372
s186 -110 314 -110c137 0 243 41 317 124s111 199 111 349z" />
    <glyph glyph-name="uring" unicode="&#x16f;" horiz-adv-x="1295" 
d="M639 1237c-78 0 -145 27 -201 80s-84 118 -84 194c0 75 28 139 84 192s123 80 201 80c80 0 148 -27 204 -80c55 -53 83 -117 83 -192c0 -76 -28 -141 -83 -194c-56 -53 -124 -80 -204 -80zM639 1670c-46 0 -85 -15 -116 -46c-32 -31 -48 -68 -48 -113s16 -83 48 -114
c31 -31 70 -47 116 -47s85 16 117 47s48 69 48 114c0 43 -17 80 -50 112c-33 31 -72 47 -115 47zM327 1093v-636c0 -101 26 -181 78 -241c51 -61 126 -91 225 -91c95 0 173 33 234 99s92 148 92 246v623h158v-1093h-156v200c-87 -147 -212 -221 -376 -221
c-131 0 -233 40 -306 121c-73 80 -109 186 -109 317v676h160z" />
    <glyph glyph-name="Uhungarumlaut" unicode="&#x170;" horiz-adv-x="1609" 
d="M968 2103h-194l-221 -352h152zM1321 2103h-194l-221 -352h152zM1239 615v989h168v-977c0 -203 -53 -360 -158 -473c-106 -113 -254 -170 -445 -170s-339 57 -444 172c-105 114 -158 267 -158 460v988h168v-980c0 -169 47 -298 128 -372s185 -110 313 -110
c137 0 243 41 317 124s111 199 111 349z" />
    <glyph glyph-name="uhungarumlaut" unicode="&#x171;" horiz-adv-x="1294" 
d="M602 1632h194l-263 -352h-152zM955 1632h194l-263 -352h-152zM326 1093v-636c0 -101 26 -181 78 -241c51 -61 126 -91 225 -91c94 0 172 33 234 99c61 66 92 148 92 246v623h158v-1093h-156v200c-87 -147 -212 -221 -376 -221c-131 0 -233 40 -305 121
c-73 80 -109 186 -109 317v676h159z" />
    <glyph glyph-name="Uogonek" unicode="&#x172;" horiz-adv-x="1609" 
d="M1004 -371v-123c-17 -3 -36 -5 -59 -5c-75 0 -140 20 -193 59c-53 40 -80 96 -80 168c0 82 53 167 158 256h-26c-191 0 -339 57 -444 172c-105 114 -158 267 -158 460v988h168v-980c0 -169 47 -298 128 -372s185 -110 313 -110c137 0 243 41 317 124s111 199 111 349v989
h168v-977c0 -171 -38 -311 -114 -419c-77 -109 -185 -178 -326 -208c-37 -32 -70 -69 -98 -112c-29 -43 -43 -84 -43 -124c0 -100 74 -138 178 -135z" />
    <glyph glyph-name="uogonek" unicode="&#x173;" horiz-adv-x="1294" 
d="M973 -236c0 -100 73 -138 177 -135v-123c-16 -3 -36 -5 -59 -5c-75 0 -139 20 -192 59c-53 40 -80 96 -80 168c0 86 59 177 177 272h-39v200c-87 -147 -212 -221 -376 -221c-131 0 -233 40 -305 121c-73 80 -109 186 -109 317v676h159v-636c0 -101 26 -181 78 -241
c51 -61 126 -91 225 -91c94 0 172 33 234 99c61 66 92 148 92 246v623h158v-1093c-37 -32 -70 -70 -98 -113s-42 -84 -42 -123z" />
    <glyph glyph-name="Wcircumflex" unicode="&#x174;" horiz-adv-x="2349" 
d="M1092 2102h159l282 -353h-170l-186 242h-5l-183 -242h-171zM1081 1604h191l426 -1368h3l422 1368h170l-504 -1604h-187l-428 1377l-430 -1377h-185l-502 1604h177l420 -1361h4z" />
    <glyph glyph-name="wcircumflex" unicode="&#x175;" horiz-adv-x="1774" 
d="M803 1633h159l282 -353h-170l-186 242h-5l-183 -242h-170zM509 186l297 907h161l299 -908h1l290 908h165l-368 -1093h-178l-290 889h-1l-292 -889h-175l-366 1093h169l287 -907h1z" />
    <glyph glyph-name="Ycircumflex" unicode="&#x176;" horiz-adv-x="1518" 
d="M676 2102h159l282 -353h-170l-186 242h-5l-183 -242h-171zM674 676l-621 928h202l507 -767l511 767h193l-622 -927v-677h-170v676z" />
    <glyph glyph-name="ycircumflex" unicode="&#x177;" horiz-adv-x="1216" 
d="M535 1633h159l282 -353h-170l-186 242h-5l-183 -242h-170zM1007 1093h172l-748 -1632h-173l283 613l-497 1019h183l401 -845z" />
    <glyph glyph-name="Ydieresis" unicode="&#x178;" horiz-adv-x="1518" 
d="M639 1794c-49 -49 -119 -49 -168 0c-49 48 -49 124 0 173c49 48 119 48 168 0c49 -49 49 -125 0 -173zM1049 1794c-49 -49 -119 -49 -168 0c-49 48 -49 124 0 173c49 48 119 48 168 0c49 -49 49 -125 0 -173zM674 676l-621 928h202l507 -767l511 767h193l-622 -927v-677
h-170v676z" />
    <glyph glyph-name="Zacute" unicode="&#x179;" horiz-adv-x="1321" 
d="M668 2103h194l-263 -352h-153zM106 1604h1124v-155l-959 -1294h963v-155h-1160v155l959 1295h-927v154z" />
    <glyph glyph-name="zacute" unicode="&#x17a;" horiz-adv-x="1053" 
d="M851 1632h-194l-222 -352h153zM961 0h-876v137l684 819h-667v137h857v-135l-682 -821h684v-137z" />
    <glyph glyph-name="Zdotaccent" unicode="&#x17b;" horiz-adv-x="1321" 
d="M740 1793c25 25 37 54 37 89c0 34 -12 63 -37 88s-54 37 -86 37s-60 -12 -85 -37s-38 -54 -38 -88c0 -35 13 -64 38 -89s53 -37 85 -37s61 12 86 37zM74 0v155l959 1295h-926v154h1123v-155l-959 -1294h963v-155h-1160z" />
    <glyph glyph-name="zdotaccent" unicode="&#x17c;" horiz-adv-x="1053" 
d="M609 1314c-50 -49 -121 -49 -171 0c-25 25 -38 54 -38 89c0 34 13 63 38 88s53 37 85 37s61 -12 86 -37s37 -54 37 -88c0 -35 -12 -64 -37 -89zM102 956v137h857v-135l-682 -821h684v-137h-876v137l684 819h-667z" />
    <glyph glyph-name="Zcaron" unicode="&#x17d;" horiz-adv-x="1319" 
d="M840 2107h170l-282 -353h-159l-273 353h170l183 -242h5zM107 1604h1121v-155l-958 -1294h962v-155h-1158v155l957 1295h-924v154z" />
    <glyph glyph-name="zcaron" unicode="&#x17e;" horiz-adv-x="1052" 
d="M710 1633l-186 -242h-5l-183 242h-170l273 -353h159l282 353h-170zM960 0h-875v137l683 819h-667v137h857v-135l-682 -821h684v-137z" />
    <glyph glyph-name="florin" unicode="&#x192;" horiz-adv-x="1195" 
d="M586 1093l27 135c19 96 59 181 126 257s174 124 303 124c26 0 56 -2 90 -6v-138c-19 2 -39 3 -60 3c-169 0 -269 -95 -300 -256l-22 -119h283v-139h-310l-117 -597c-35 -180 -158 -375 -428 -375c-33 0 -64 2 -91 6v137c19 -2 39 -3 60 -3c169 0 269 96 300 256l113 576
h-237v139h263z" />
    <glyph glyph-name="uni01B5" unicode="&#x1b5;" horiz-adv-x="1330" 
d="M118 740v151h506l415 559h-927v154h1120v-155l-415 -558h411v-151h-522l-433 -585h963v-155h-1157v155l434 585h-395z" />
    <glyph glyph-name="uni01B6" unicode="&#x1b6;" horiz-adv-x="1056" 
d="M107 484v133h382l282 339h-670v137h858v-135l-289 -341h283v-133h-391l-292 -347h691v-137h-876v137l295 347h-273z" />
    <glyph glyph-name="uni01CD" unicode="&#x1cd;" horiz-adv-x="1588" 
d="M980 2106h170l-282 -353h-159l-273 353h170l183 -242h5zM889 1604l692 -1604h-178l-175 410h-873l-176 -410h-172l691 1604h191zM1163 563l-373 867l-372 -867h745z" />
    <glyph glyph-name="uni01CE" unicode="&#x1ce;" 
d="M558 1391l186 242h170l-282 -353h-159l-275 353h171l184 -242h5zM840 631v74c0 175 -97 265 -278 265c-88 0 -163 -28 -207 -72c-45 -45 -72 -95 -81 -151l-153 33c3 57 54 163 155 243c64 51 170 90 290 90c199 0 332 -75 398 -226c22 -50 33 -110 33 -181v-308
c0 -183 6 -316 18 -398h-160c-9 49 -14 113 -14 192h-1c-91 -141 -214 -211 -369 -211c-109 0 -198 30 -265 91c-68 61 -102 138 -102 231v12c0 237 238 316 433 316h303zM840 499h-305c-65 0 -123 -10 -178 -36c-56 -26 -92 -78 -92 -147c0 -60 22 -107 67 -142
c44 -35 100 -52 167 -52c98 0 179 32 244 95s97 145 97 244v38z" />
    <glyph glyph-name="uni01CF" unicode="&#x1cf;" horiz-adv-x="614" 
d="M664 2107h-170l-186 -242h-5l-183 242h-170l273 -353h159zM223 0v1604h168v-1604h-168z" />
    <glyph glyph-name="uni01D0" unicode="&#x1d0;" horiz-adv-x="522" 
d="M449 1633l-186 -242h-5l-184 242h-171l275 -353h159l282 353h-170zM181 0v1093h160v-1093h-160z" />
    <glyph glyph-name="uni01D1" unicode="&#x1d1;" horiz-adv-x="1833" 
d="M917 1860l186 242h170l-282 -353h-159l-273 353h170l183 -242h5zM1723 806c0 -152 -35 -291 -104 -416c-70 -125 -167 -224 -291 -297s-262 -110 -414 -110c-113 0 -219 21 -319 64c-100 42 -185 99 -256 172c-71 72 -126 158 -167 259c-41 100 -62 206 -62 319
c0 151 35 290 105 416c69 125 166 225 290 298s262 109 414 109c113 0 219 -21 319 -63c100 -43 185 -100 256 -172c71 -73 127 -159 168 -259c41 -101 61 -207 61 -320zM1548 797c0 179 -66 348 -176 469c-110 120 -275 197 -458 197c-120 0 -228 -30 -325 -89
c-97 -60 -171 -140 -224 -239c-53 -100 -80 -210 -80 -329c0 -179 67 -348 177 -468s274 -197 457 -197c120 0 228 30 325 89s172 139 225 239c53 99 79 209 79 328z" />
    <glyph glyph-name="uni01D2" unicode="&#x1d2;" horiz-adv-x="1332" 
d="M667 1391l186 242h170l-282 -353h-159l-273 353h170l183 -242h5zM663 -19c-103 0 -198 25 -284 75c-87 50 -155 118 -204 204s-74 180 -74 283c0 161 54 297 163 406c108 109 242 164 403 164c310 6 570 -254 564 -562c6 -317 -254 -577 -568 -570zM667 123
c115 0 211 41 287 123s114 181 114 297c0 117 -38 218 -115 303c-77 84 -173 126 -290 126c-116 0 -211 -41 -286 -123s-113 -181 -113 -298c-5 -227 170 -432 403 -428z" />
    <glyph glyph-name="uni01D3" unicode="&#x1d3;" horiz-adv-x="1610" 
d="M806 1860l186 242h170l-282 -353h-159l-273 353h170l183 -242h5zM1408 1604v-977c0 -203 -53 -360 -158 -473c-106 -113 -254 -170 -445 -170s-340 57 -445 172c-105 114 -158 267 -158 460v988h169v-980c0 -169 47 -298 128 -372s185 -110 313 -110
c137 0 243 41 317 124s111 199 111 349v989h168z" />
    <glyph glyph-name="uni01D4" unicode="&#x1d4;" horiz-adv-x="1294" 
d="M641 1391l186 242h170l-282 -353h-159l-273 353h170l183 -242h5zM326 1093v-636c0 -101 26 -181 78 -241c51 -61 126 -91 225 -91c94 0 172 33 234 99c61 66 92 148 92 246v623h158v-1093h-156v200c-87 -147 -212 -221 -376 -221c-131 0 -233 40 -305 121
c-73 80 -109 186 -109 317v676h159z" />
    <glyph glyph-name="uni01D5" unicode="&#x1d5;" horiz-adv-x="1609" 
d="M1407 1604v-977c0 -203 -53 -360 -158 -473c-106 -113 -254 -170 -445 -170s-339 57 -444 172c-105 114 -158 267 -158 460v988h168v-980c0 -169 47 -298 128 -372s185 -110 313 -110c137 0 243 41 317 124s111 199 111 349v989h168zM1151 2036h-690v145h690v-145z
M684 1702c-49 -49 -119 -49 -168 0c-25 24 -37 53 -37 86c0 34 12 63 37 87s53 36 84 36c32 0 60 -12 85 -36c24 -24 36 -53 36 -87c0 -33 -12 -62 -37 -86zM1094 1702c-49 -49 -119 -49 -168 0c-25 24 -37 53 -37 86c0 34 12 63 37 87c24 24 52 36 84 36
c31 0 59 -12 84 -36c24 -24 36 -53 36 -87c0 -33 -12 -62 -36 -86z" />
    <glyph glyph-name="uni01D6" unicode="&#x1d6;" horiz-adv-x="1294" 
d="M295 1630h690v144h-690v-144zM529 1284c49 48 49 124 0 173c-49 48 -119 48 -168 0c-49 -49 -49 -125 0 -173c49 -49 119 -49 168 0zM919 1284c49 48 49 124 0 173c-49 48 -119 48 -168 0c-49 -49 -49 -125 0 -173c49 -49 119 -49 168 0zM167 417v676h159v-636
c0 -101 26 -181 78 -241c51 -61 126 -91 225 -91c94 0 172 33 234 99c61 66 92 148 92 246v623h158v-1093h-156v200c-87 -147 -212 -221 -376 -221c-131 0 -233 40 -305 121c-73 80 -109 186 -109 317z" />
    <glyph glyph-name="uni01D7" unicode="&#x1d7;" horiz-adv-x="1609" 
d="M1407 1604v-977c0 -203 -53 -360 -158 -473c-106 -113 -254 -170 -445 -170s-339 57 -444 172c-105 114 -158 267 -158 460v988h168v-980c0 -169 47 -298 128 -372s185 -110 313 -110c137 0 243 41 317 124s111 199 111 349v989h168zM684 1702c-49 -49 -119 -49 -168 0
c-25 24 -37 53 -37 86c0 34 12 63 37 87s53 36 84 36c32 0 60 -12 85 -36c24 -24 36 -53 36 -87c0 -33 -12 -62 -37 -86zM1094 1702c-49 -49 -119 -49 -168 0c-25 24 -37 53 -37 86c0 34 12 63 37 87c24 24 52 36 84 36c31 0 59 -12 84 -36c24 -24 36 -53 36 -87
c0 -33 -12 -62 -36 -86zM938 2298h190l-247 -332h-150z" />
    <glyph glyph-name="uni01D8" unicode="&#x1d8;" horiz-adv-x="1294" 
d="M167 417v676h159v-636c0 -101 26 -181 78 -241c51 -61 126 -91 225 -91c94 0 172 33 234 99c61 66 92 148 92 246v623h158v-1093h-156v200c-87 -147 -212 -221 -376 -221c-131 0 -233 40 -305 121c-73 80 -109 186 -109 317zM444 1247c32 0 60 12 85 37
c24 24 36 53 36 86s-12 62 -36 87c-25 24 -53 36 -85 36c-31 0 -59 -12 -83 -36c-25 -25 -37 -54 -37 -87s12 -62 37 -86c25 -25 52 -37 83 -37zM836 1247c31 0 58 12 83 37c25 24 37 53 37 86s-12 62 -36 87c-25 24 -53 36 -84 36c-32 0 -60 -12 -84 -36
c-25 -25 -37 -54 -37 -87s12 -62 37 -86c24 -25 52 -37 84 -37zM979 1942h-195l-219 -353h150z" />
    <glyph glyph-name="uni01D9" unicode="&#x1d9;" horiz-adv-x="1609" 
d="M1407 1604v-977c0 -203 -53 -360 -158 -473c-106 -113 -254 -170 -445 -170s-339 57 -444 172c-105 114 -158 267 -158 460v988h168v-980c0 -169 47 -298 128 -372s185 -110 313 -110c137 0 243 41 317 124s111 199 111 349v989h168zM684 1702c-49 -49 -119 -49 -168 0
c-25 24 -37 53 -37 86c0 34 12 63 37 87s53 36 84 36c32 0 60 -12 85 -36c24 -24 36 -53 36 -87c0 -33 -12 -62 -37 -86zM1094 1702c-49 -49 -119 -49 -168 0c-25 24 -37 53 -37 86c0 34 12 63 37 87c24 24 52 36 84 36c31 0 59 -12 84 -36c24 -24 36 -53 36 -87
c0 -33 -12 -62 -36 -86zM811 2079l205 219h151l-282 -330h-158l-274 330h153l201 -219h4z" />
    <glyph glyph-name="uni01DA" unicode="&#x1da;" horiz-adv-x="1294" 
d="M167 417v676h159v-636c0 -101 26 -181 78 -241c51 -61 126 -91 225 -91c94 0 172 33 234 99c61 66 92 148 92 246v623h158v-1093h-156v200c-87 -147 -212 -221 -376 -221c-131 0 -233 40 -305 121c-73 80 -109 186 -109 317zM444 1247c32 0 60 12 85 37
c24 24 36 53 36 86s-12 62 -36 87c-25 24 -53 36 -85 36c-31 0 -59 -12 -83 -36c-25 -25 -37 -54 -37 -87s12 -62 37 -86c25 -25 52 -37 83 -37zM836 1247c31 0 58 12 83 37c25 24 37 53 37 86s-12 62 -36 87c-25 24 -53 36 -84 36c-32 0 -60 -12 -84 -36
c-25 -25 -37 -54 -37 -87s12 -62 37 -86c24 -25 52 -37 84 -37zM848 1944l-203 -242h-6l-199 242h-153l272 -353h160l282 353h-153z" />
    <glyph glyph-name="uni01DB" unicode="&#x1db;" horiz-adv-x="1609" 
d="M1407 1604v-977c0 -203 -53 -360 -158 -473c-106 -113 -254 -170 -445 -170s-339 57 -444 172c-105 114 -158 267 -158 460v988h168v-980c0 -169 47 -298 128 -372s185 -110 313 -110c137 0 243 41 317 124s111 199 111 349v989h168zM885 1966h-150l-248 332h191z
M926 1702c49 -49 119 -49 168 0c24 24 36 53 36 86c0 34 -12 63 -36 87c-25 24 -53 36 -84 36c-32 0 -60 -12 -84 -36c-25 -24 -37 -53 -37 -87c0 -33 12 -62 37 -86zM516 1702c49 -49 119 -49 168 0c25 24 37 53 37 86c0 34 -12 63 -36 87c-25 24 -53 36 -85 36
c-31 0 -59 -12 -84 -36s-37 -53 -37 -87c0 -33 12 -62 37 -86z" />
    <glyph glyph-name="uni01DC" unicode="&#x1dc;" horiz-adv-x="1294" 
d="M167 417v676h159v-636c0 -101 26 -181 78 -241c51 -61 126 -91 225 -91c94 0 172 33 234 99c61 66 92 148 92 246v623h158v-1093h-156v200c-87 -147 -212 -221 -376 -221c-131 0 -233 40 -305 121c-73 80 -109 186 -109 317zM567 1589h148l-219 353h-195zM836 1247
c-32 0 -60 12 -84 37c-25 24 -37 53 -37 86s12 62 37 87c24 24 52 36 84 36c31 0 59 -12 84 -36c24 -25 36 -54 36 -87s-12 -62 -37 -86c-25 -25 -52 -37 -83 -37zM444 1247c-31 0 -58 12 -83 37c-25 24 -37 53 -37 86s12 62 37 87c24 24 52 36 83 36c32 0 60 -12 85 -36
c24 -25 36 -54 36 -87s-12 -62 -36 -86c-25 -25 -53 -37 -85 -37z" />
    <glyph glyph-name="Gcaron" unicode="&#x1e6;" horiz-adv-x="1760" 
d="M1112 2107h170l-282 -353h-159l-273 353h170l183 -242h5zM1630 1143l-161 -57c-19 59 -47 117 -109 189c-31 35 -67 67 -106 94c-79 54 -202 95 -338 95c-180 0 -345 -77 -454 -197s-177 -286 -177 -461c0 -364 244 -665 635 -665c143 0 278 45 382 125s174 206 183 354
h-670v156h849v-61c0 -203 -72 -385 -198 -517s-322 -214 -550 -214c-239 0 -448 89 -586 234s-220 351 -220 579c0 152 35 291 106 417c71 125 168 224 293 297c124 73 262 109 413 109c189 0 356 -54 471 -145s193 -201 237 -332z" />
    <glyph glyph-name="gcaron" unicode="&#x1e7;" horiz-adv-x="1379" 
d="M656 1391l186 242h170l-282 -353h-159l-275 353h171l184 -242h5zM1039 16v228c-99 -166 -241 -249 -424 -249c-101 0 -191 26 -270 78c-79 51 -139 119 -180 203s-62 176 -62 276c0 96 21 187 63 272c41 85 102 154 181 208s169 81 268 81c103 0 193 -28 262 -76
c68 -49 116 -102 164 -173v229h157v-1067c0 -187 -51 -329 -154 -427c-103 -97 -242 -146 -415 -146c-136 0 -252 36 -347 107c-96 72 -154 161 -175 268l147 49c25 -112 126 -284 373 -284c116 0 212 31 289 96s123 179 123 327zM648 136c113 0 206 41 281 124
c75 82 112 180 112 295c5 212 -173 420 -393 416c-117 0 -210 -40 -279 -119c-69 -80 -103 -181 -103 -303c-5 -224 147 -415 382 -413z" />
    <glyph glyph-name="uni01E8" unicode="&#x1e8;" horiz-adv-x="1388" 
d="M995 2107h170l-282 -353h-159l-273 353h170l183 -242h5zM1122 1604h234l-786 -768l824 -836h-238l-752 772h-12v-772h-169v1604h169v-709h11z" />
    <glyph glyph-name="uni01E9" unicode="&#x1e9;" horiz-adv-x="1116" 
d="M340 649l520 444h227l-576 -491l603 -602h-224l-543 547h-7v-547h-159v1669h159v-1020zM900 1280l282 353h-170l-186 -242h-5l-183 242h-170l273 -353h159z" />
    <glyph glyph-name="uni01F4" unicode="&#x1f4;" horiz-adv-x="1760" 
d="M1061 2103h194l-263 -352h-153zM1630 1143l-161 -57c-19 59 -47 117 -109 189c-31 35 -67 67 -106 94c-79 54 -202 95 -338 95c-180 0 -345 -77 -454 -197s-177 -286 -177 -461c0 -364 244 -665 635 -665c143 0 278 45 382 125s174 206 183 354h-670v156h849v-61
c0 -203 -72 -385 -198 -517s-322 -214 -550 -214c-239 0 -448 89 -586 234s-220 351 -220 579c0 152 35 291 106 417c71 125 168 224 293 297c124 73 262 109 413 109c189 0 356 -54 471 -145s193 -201 237 -332z" />
    <glyph glyph-name="uni01F5" unicode="&#x1f5;" horiz-adv-x="1379" 
d="M799 1632h194l-263 -352h-155zM1039 16v228c-99 -166 -241 -249 -424 -249c-101 0 -191 26 -270 78c-79 51 -139 119 -180 203s-62 176 -62 276c0 96 21 187 63 272c41 85 102 154 181 208s169 81 268 81c103 0 193 -28 262 -76c68 -49 116 -102 164 -173v229h157v-1067
c0 -187 -51 -329 -154 -427c-103 -97 -242 -146 -415 -146c-136 0 -252 36 -347 107c-96 72 -154 161 -175 268l147 49c25 -112 126 -284 373 -284c116 0 212 31 289 96s123 179 123 327zM648 136c113 0 206 41 281 124c75 82 112 180 112 295c5 212 -173 420 -393 416
c-117 0 -210 -40 -279 -119c-69 -80 -103 -181 -103 -303c-5 -224 147 -415 382 -413z" />
    <glyph glyph-name="Aringacute" unicode="&#x1fa;" horiz-adv-x="1588" 
d="M857 2002l155 246h194l-228 -305c66 -54 99 -122 99 -205c0 -100 -56 -190 -143 -238l647 -1500h-178l-175 410h-873l-176 -410h-172l645 1497c-89 48 -147 138 -147 241c0 74 28 138 84 192c56 53 123 80 201 80c22 0 44 -3 67 -8zM790 1896c-46 0 -85 -15 -116 -45
c-32 -31 -48 -68 -48 -113s16 -83 48 -114c31 -32 70 -48 116 -48s85 16 117 48c32 31 48 69 48 114c0 42 -16 79 -49 111c-33 31 -72 47 -116 47zM790 1430l-372 -867h745z" />
    <glyph glyph-name="aringacute" unicode="&#x1fb;" 
d="M632 1532l156 246h194l-229 -306c66 -54 99 -122 99 -205c0 -73 -27 -137 -80 -190c89 -37 153 -100 192 -190c22 -50 33 -110 33 -181v-308c0 -183 6 -316 18 -398h-160c-9 49 -14 113 -14 192h-1c-91 -141 -214 -211 -369 -211c-109 0 -198 30 -265 91
c-68 61 -102 138 -102 231v12c0 237 238 316 433 316h303v74c0 175 -97 265 -278 265c-88 0 -163 -28 -207 -72c-45 -45 -72 -95 -81 -151l-153 33c5 53 33 122 110 202c38 39 83 70 134 92c-57 53 -85 117 -85 193c0 75 28 139 84 192s123 80 202 80c19 0 41 -2 66 -7z
M566 1426c-47 0 -86 -15 -117 -46c-32 -31 -48 -68 -48 -113s16 -83 48 -114s71 -47 117 -47s85 16 117 47c31 31 47 69 47 114c0 42 -16 79 -49 111s-72 48 -115 48zM840 499h-305c-65 0 -123 -10 -178 -36c-56 -26 -92 -78 -92 -147c0 -60 22 -107 67 -142
c44 -35 100 -52 167 -52c98 0 179 32 244 95s97 145 97 244v38z" />
    <glyph glyph-name="AEacute" unicode="&#x1fc;" horiz-adv-x="2145" 
d="M1403 2103h194l-263 -352h-153zM2013 1448h-836v-555h764v-155h-764v-582h844l-1 -156h-1009v410h-613l-233 -410h-183l921 1604h1109zM989 1453l-505 -890h527v890h-22z" />
    <glyph glyph-name="aeacute" unicode="&#x1fd;" horiz-adv-x="1981" 
d="M1110 1632h194l-263 -352h-153zM844 630v75c0 175 -98 265 -279 265c-89 0 -157 -21 -205 -64s-77 -96 -88 -157l-151 31c2 57 55 163 156 243c64 51 171 90 291 90c197 0 335 -89 386 -228c43 69 102 125 177 166s155 62 242 62c163 0 290 -52 379 -156
c89 -105 134 -240 134 -406c0 -12 -1 -30 -2 -54h-887c3 -104 43 -192 120 -265c76 -73 167 -109 274 -109c164 0 287 82 338 234l142 -45c-31 -103 -91 -184 -180 -243s-189 -88 -300 -88c-99 0 -188 23 -269 69s-145 108 -194 187c-99 -171 -246 -256 -443 -256h-6
c-111 0 -202 30 -271 91s-104 138 -104 231v12c0 113 57 200 145 247c87 47 184 68 288 68h307zM998 633h727c-9 101 -44 183 -107 246c-63 62 -146 93 -248 93c-93 0 -176 -34 -248 -101c-73 -68 -114 -147 -124 -238zM844 499h-309c-65 0 -123 -10 -178 -36
c-56 -26 -92 -78 -92 -147c0 -60 23 -107 68 -142s101 -52 169 -52c98 0 180 32 245 95s97 145 97 244v38z" />
    <glyph glyph-name="Oslashacute" unicode="&#x1fe;" horiz-adv-x="1844" 
d="M1056 2103h194l-263 -352h-153zM1734 1581l-208 -228c129 -145 203 -338 203 -547c0 -152 -35 -291 -104 -416c-70 -125 -167 -224 -291 -297s-262 -110 -414 -110c-187 0 -351 54 -492 163l-210 -228l-104 100l207 227c-131 147 -205 340 -205 552c0 151 35 290 105 416
c69 125 166 225 290 298s262 109 414 109c187 0 352 -56 496 -168l209 229zM291 806c0 -167 49 -311 146 -434l873 956c-111 90 -241 135 -390 135c-120 0 -228 -30 -325 -89c-97 -60 -171 -140 -224 -239c-53 -100 -80 -210 -80 -329zM1554 797c0 164 -48 307 -144 429
l-872 -955c111 -87 240 -130 387 -130c120 0 228 30 325 89s172 139 225 239c53 99 79 209 79 328z" />
    <glyph glyph-name="oslashacute" unicode="&#x1ff;" horiz-adv-x="1340" 
d="M816 1632h194l-263 -352h-153zM1237 1071l-139 -152c91 -104 137 -227 137 -368c6 -317 -253 -577 -568 -570c-122 0 -232 35 -329 106l-138 -151l-94 87l138 150c-92 106 -138 229 -138 370c0 159 62 306 162 407c99 100 244 163 403 163c123 0 233 -36 332 -108
l140 153zM267 551c0 -97 27 -185 82 -263l555 607c-69 52 -147 78 -236 78c-233 3 -406 -195 -401 -422zM1074 543c0 97 -27 184 -82 261l-556 -606c69 -51 147 -77 235 -77c115 0 211 41 288 124c77 82 115 181 115 298z" />
    <glyph glyph-name="Scommaaccent" unicode="&#x218;" horiz-adv-x="1313" 
d="M666 -16c-152 0 -296 57 -392 142c-97 85 -162 199 -174 312l158 44c18 -95 66 -175 144 -241s166 -99 264 -99c93 0 179 24 248 71c68 47 112 126 112 222c0 113 -60 185 -135 229c-53 31 -99 44 -151 55l-213 42c-43 9 -90 24 -140 47s-94 52 -132 89
c-75 73 -112 165 -112 277c0 89 24 168 72 237s110 121 187 157c77 35 160 53 250 53c344 0 497 -212 529 -384l-153 -48c-28 114 -131 277 -380 277c-170 4 -338 -117 -336 -284c0 -124 78 -222 233 -253l204 -40c136 -27 240 -73 311 -140c49 -46 85 -96 106 -149
c21 -54 32 -103 32 -146c3 -283 -235 -475 -532 -470zM557 -661v69c37 7 69 28 96 63s40 73 41 114c-13 -7 -28 -11 -43 -11c-64 0 -109 48 -109 113c0 32 12 59 36 80c23 22 51 33 83 33c41 0 73 -16 96 -47s34 -67 34 -110c0 -77 -21 -145 -62 -203
c-41 -57 -99 -91 -172 -101z" />
    <glyph glyph-name="scommaaccent" unicode="&#x219;" horiz-adv-x="1006" 
d="M902 311c0 -97 -38 -176 -113 -237s-167 -92 -275 -92c-176 1 -289 72 -348 159c-44 60 -61 113 -68 166l146 38c18 -100 94 -223 269 -223c62 0 115 16 160 49c45 32 67 76 67 131c0 43 -18 79 -53 106c-36 27 -78 46 -126 57l-167 37c-181 40 -272 135 -272 285
c0 113 57 206 135 254s160 72 235 72c166 -1 272 -66 328 -145c41 -55 58 -101 66 -148l-145 -41c-11 43 -28 80 -64 123c-37 43 -103 71 -184 71c-59 0 -109 -17 -150 -51s-61 -75 -61 -124c0 -85 61 -125 158 -148l177 -40c143 -33 285 -124 285 -299zM402 -661v69
c37 7 69 28 96 63s40 73 41 114c-13 -7 -28 -11 -43 -11c-64 0 -109 48 -109 113c0 32 12 59 36 80c23 22 51 33 83 33c41 0 73 -16 96 -47s34 -67 34 -110c0 -77 -21 -145 -62 -203c-41 -57 -99 -91 -172 -101z" />
    <glyph glyph-name="uni021A" unicode="&#x21a;" horiz-adv-x="1328" 
d="M1284 1604v-158h-535v-1446h-169v1446h-536v158h1240zM555 -661v69c37 7 68 28 95 63s40 73 41 114c-13 -7 -28 -11 -43 -11c-64 0 -109 48 -109 113c0 32 12 59 36 80c23 22 51 33 83 33c41 0 73 -16 96 -47s34 -67 34 -110c0 -77 -20 -145 -61 -203
c-41 -57 -99 -91 -172 -101z" />
    <glyph glyph-name="uni021B" unicode="&#x21b;" horiz-adv-x="779" 
d="M563 -9c-237 0 -310 132 -310 292v669h-202v141h202v316h159v-316h277v-141h-277v-665c0 -103 59 -154 177 -154c39 0 72 3 99 8v-132c-35 -12 -76 -18 -125 -18zM311 -661v69c37 7 69 28 96 63s40 73 41 114c-13 -7 -28 -11 -43 -11c-64 0 -109 48 -109 113
c0 32 12 59 36 80c23 22 51 33 83 33c41 0 73 -16 96 -47s34 -67 34 -110c0 -77 -21 -145 -62 -203c-41 -57 -99 -91 -172 -101z" />
    <glyph glyph-name="uni0237" unicode="&#x237;" horiz-adv-x="538" 
d="M357 1093v-1327c0 -203 -107 -312 -311 -312c-25 0 -59 5 -102 16v132c24 -5 50 -7 79 -7c112 0 174 63 174 175v1323h160z" />
    <glyph glyph-name="gravecomb" unicode="&#x300;" horiz-adv-x="0" 
d="M208 1280h-153l-263 352h194z" />
    <glyph glyph-name="acutecomb" unicode="&#x301;" horiz-adv-x="0" 
d="M14 1632h194l-263 -352h-153z" />
    <glyph glyph-name="uni0302" unicode="&#x302;" horiz-adv-x="0" 
d="M-84 1633h159l282 -353h-170l-186 242h-5l-183 -242h-170z" />
    <glyph glyph-name="tildecomb" unicode="&#x303;" horiz-adv-x="0" 
d="M137 1280c-53 0 -106 25 -139 50c-32 25 -82 50 -130 50c-44 0 -71 -33 -82 -98h-115c1 69 17 125 49 170c32 44 81 66 147 66c88 4 191 -102 272 -98c45 0 75 31 90 94h100c-1 -69 -17 -126 -47 -169c-31 -43 -79 -65 -145 -65z" />
    <glyph glyph-name="uni0304" unicode="&#x304;" horiz-adv-x="0" 
d="M345 1311h-690v144h690v-144z" />
    <glyph glyph-name="uni0306" unicode="&#x306;" horiz-adv-x="0" 
d="M1 1276c-113 0 -214 47 -280 155c-33 53 -50 117 -53 190h126c7 -132 86 -217 207 -217c119 0 199 81 208 217h123c-3 -104 -36 -187 -99 -250s-141 -95 -232 -95z" />
    <glyph glyph-name="uni0307" unicode="&#x307;" horiz-adv-x="0" 
d="M86 1314c-50 -49 -122 -49 -172 0c-25 25 -37 54 -37 89c0 34 12 63 37 88s54 37 86 37s61 -12 86 -37s37 -54 37 -88c0 -35 -12 -64 -37 -89z" />
    <glyph glyph-name="uni0308" unicode="&#x308;" horiz-adv-x="0" 
d="M-111 1314c-49 -49 -119 -49 -168 0c-49 48 -49 124 0 173c49 48 119 48 168 0c49 -49 49 -125 0 -173zM279 1314c-49 -49 -119 -49 -168 0c-49 48 -49 124 0 173c49 48 119 48 168 0c49 -49 49 -125 0 -173z" />
    <glyph glyph-name="uni030A" unicode="&#x30a;" horiz-adv-x="0" 
d="M-1 1237c-78 0 -145 27 -201 80s-84 118 -84 194c0 75 28 139 84 192s123 80 201 80c80 0 148 -27 204 -80c55 -53 83 -117 83 -192c0 -76 -28 -141 -83 -194c-56 -53 -124 -80 -204 -80zM-1 1670c-46 0 -85 -15 -117 -46c-31 -31 -47 -68 -47 -113s16 -83 47 -114
c32 -31 71 -47 117 -47s85 16 117 47s48 69 48 114c0 43 -17 80 -50 112c-33 31 -72 47 -115 47z" />
    <glyph glyph-name="uni030B" unicode="&#x30b;" horiz-adv-x="0" 
d="M-163 1632h194l-263 -352h-152zM190 1632h194l-263 -352h-152z" />
    <glyph glyph-name="uni030C" unicode="&#x30c;" horiz-adv-x="0" 
d="M1 1391l186 242h170l-282 -353h-159l-273 353h170l183 -242h5z" />
    <glyph glyph-name="uni0312" unicode="&#x312;" horiz-adv-x="0" 
d="M109 1718v-69c-37 -7 -68 -29 -95 -64c-28 -35 -41 -73 -41 -114c11 7 26 11 43 11c64 0 109 -48 109 -113c0 -32 -12 -59 -35 -80c-24 -21 -52 -32 -84 -32c-41 0 -74 16 -97 47s-34 67 -34 110c0 77 21 144 62 202s99 92 172 102z" />
    <glyph glyph-name="uni0326" unicode="&#x326;" horiz-adv-x="0" 
d="M-109 -661v69c37 7 68 28 95 63c28 35 41 73 41 114c-12 -7 -26 -11 -43 -11c-64 0 -109 48 -109 113c0 32 12 59 35 80c24 22 52 33 84 33c41 0 74 -16 97 -47s34 -67 34 -110c0 -77 -21 -145 -62 -203c-41 -57 -99 -91 -172 -101z" />
    <glyph glyph-name="uni0327" unicode="&#x327;" horiz-adv-x="0" 
d="M246 -198c0 -93 -32 -166 -96 -220c-65 -54 -145 -81 -242 -81c-56 0 -107 8 -154 23v126c45 -12 91 -18 140 -18c133 0 208 71 208 194c0 67 -27 125 -82 174h142c51 -52 84 -130 84 -198z" />
    <glyph glyph-name="uni0328" unicode="&#x328;" horiz-adv-x="0" 
d="M166 -371v-123c-17 -3 -36 -5 -59 -5c-75 0 -140 20 -193 59c-53 40 -80 96 -80 168c0 87 59 177 178 272h117c-37 -32 -70 -69 -98 -112c-29 -43 -43 -84 -43 -124c0 -100 74 -138 178 -135z" />
    <glyph glyph-name="Theta" unicode="&#x398;" horiz-adv-x="1833" 
d="M1723 806c0 -152 -35 -291 -104 -416c-70 -125 -167 -224 -291 -297s-262 -110 -414 -110c-113 0 -219 21 -319 64c-100 42 -185 99 -256 172c-71 72 -126 158 -167 259c-41 100 -62 206 -62 319c0 151 35 290 105 416c69 125 166 225 290 298s262 109 414 109
c113 0 219 -21 319 -63c100 -43 185 -100 256 -172c71 -73 127 -159 168 -259c41 -101 61 -207 61 -320zM1548 797c0 179 -66 348 -176 469c-110 120 -275 197 -458 197c-120 0 -228 -30 -325 -89c-97 -60 -171 -140 -224 -239c-53 -100 -80 -210 -80 -329
c0 -179 67 -348 177 -468s274 -197 457 -197c120 0 228 30 325 89s172 139 225 239c53 99 79 209 79 328zM1368 893h-903v-155h903v155z" />
    <glyph glyph-name="uni03A9" unicode="&#x3a9;" horiz-adv-x="1786" 
d="M1012 0v334c145 16 274 98 354 203c79 105 126 234 126 353c0 103 -26 198 -78 286c-52 87 -124 157 -216 209s-193 78 -304 78s-213 -25 -305 -76s-164 -121 -216 -208s-78 -184 -78 -289c0 -123 47 -251 127 -355c79 -105 208 -185 353 -201v-334h-640v148h491v84
c-153 56 -278 147 -350 238c-36 45 -66 94 -89 147c-48 104 -62 191 -62 279c0 101 21 197 62 287c41 89 96 165 165 228c139 125 334 202 542 202c209 0 405 -77 542 -202s224 -311 224 -515c0 -88 -14 -175 -61 -279c-23 -53 -53 -102 -89 -147
c-73 -91 -197 -182 -350 -238v-84h492v-148h-640z" />
    <glyph glyph-name="theta" unicode="&#x3b8;" horiz-adv-x="1485" 
d="M740 -19c-168 0 -313 69 -409 177c-49 54 -90 117 -123 190c-67 144 -96 305 -96 474c-2 249 74 506 222 671c97 109 244 180 413 180c168 0 313 -69 409 -177c48 -54 89 -117 122 -190c67 -145 96 -306 96 -474c2 -249 -73 -504 -221 -670c-97 -110 -244 -181 -413 -181
zM742 1533c-196 -2 -320 -120 -387 -284c-49 -112 -70 -223 -77 -346h931c-8 121 -31 234 -80 346c-25 56 -54 105 -88 146c-68 82 -174 138 -299 138zM1210 762h-932c7 -123 28 -235 76 -349c24 -57 53 -107 87 -149c68 -84 175 -141 303 -141s236 57 304 141
c34 42 63 91 87 148c48 113 70 227 75 350z" />
    <glyph glyph-name="pi" unicode="&#x3c0;" horiz-adv-x="1427" 
d="M1054 949v-662c0 -100 60 -154 177 -154c39 0 72 3 99 8v-132c-35 -12 -76 -18 -125 -18c-206 0 -309 97 -309 292v666h-415v-949h-159v949h-288v144h1296v-144h-276z" />
    <glyph glyph-name="uni0401" unicode="&#x401;" horiz-adv-x="1359" 
d="M603 1794c-49 -49 -119 -49 -168 0c-49 48 -49 124 0 173c49 48 119 48 168 0c49 -49 49 -125 0 -173zM1013 1794c-49 -49 -119 -49 -168 0c-49 48 -49 124 0 173c49 48 119 48 168 0c49 -49 49 -125 0 -173zM1155 893v-155h-764v-582h843v-156h-1011v1604h1003v-156
h-835v-555h764z" />
    <glyph glyph-name="uni0402" unicode="&#x402;" horiz-adv-x="1735" 
d="M1651 517c0 -177 -47 -315 -142 -413s-220 -147 -375 -147c-80 0 -158 15 -233 45l38 147c54 -23 112 -35 175 -35c88 0 171 30 243 90s120 171 120 311c0 113 -34 207 -101 280c-68 73 -156 109 -265 109c-189 0 -356 -67 -502 -201v-703h-168v1448h-396v156h1113v-156
h-549v-567c93 69 180 117 263 143c82 26 167 39 256 39c157 0 283 -48 379 -143s144 -230 144 -403z" />
    <glyph glyph-name="uni0403" unicode="&#x403;" horiz-adv-x="1190" 
d="M991 2102h-194l-222 -352h153zM223 0v1604h919v-156h-751v-1448h-168z" />
    <glyph glyph-name="uni0404" unicode="&#x404;" horiz-adv-x="1728" 
d="M1480 571l160 -56c-31 -102 -93 -230 -213 -341c-114 -106 -288 -193 -516 -191c-220 0 -423 85 -566 226c-72 70 -129 156 -171 258s-63 212 -63 330c0 119 22 230 65 334c43 103 102 191 175 262s158 126 257 167s202 61 311 61c168 0 321 -50 426 -121
c52 -36 99 -78 140 -125c82 -95 127 -188 150 -281l-160 -56c-9 36 -22 74 -53 131c-32 56 -68 107 -128 160c-87 75 -208 133 -379 133c-159 0 -297 -53 -414 -158c-117 -106 -186 -243 -206 -411h768v-155h-770c14 -175 79 -318 194 -429s258 -167 429 -167
c107 0 204 25 273 61s132 93 172 143s76 116 94 159c9 21 17 43 25 66z" />
    <glyph glyph-name="uni0405" unicode="&#x405;" horiz-adv-x="1313" 
d="M666 -16c-152 0 -296 57 -392 142c-97 85 -162 199 -174 312l158 44c18 -95 66 -175 144 -241s166 -99 264 -99c93 0 179 24 248 71c68 47 112 126 112 222c0 113 -60 185 -135 229c-53 31 -99 44 -151 55l-213 42c-43 9 -90 24 -140 47s-94 52 -132 89
c-75 73 -112 165 -112 277c0 89 24 168 72 237s110 121 187 157c77 35 160 53 250 53c344 0 497 -212 529 -384l-153 -48c-28 114 -131 277 -380 277c-170 4 -338 -117 -336 -284c0 -124 78 -222 233 -253l204 -40c136 -27 240 -73 311 -140c49 -46 85 -96 106 -149
c21 -54 32 -103 32 -146c3 -283 -235 -475 -532 -470z" />
    <glyph glyph-name="uni0406" unicode="&#x406;" horiz-adv-x="614" 
d="M391 1604v-1604h-168v1604h168z" />
    <glyph glyph-name="uni0407" unicode="&#x407;" horiz-adv-x="614" 
d="M186 1794c-49 -49 -119 -49 -168 0c-49 48 -49 124 0 173c49 48 119 48 168 0c49 -49 49 -125 0 -173zM596 1794c-49 -49 -119 -49 -168 0c-49 48 -49 124 0 173c49 48 119 48 168 0c49 -49 49 -125 0 -173zM391 1604v-1604h-168v1604h168z" />
    <glyph glyph-name="uni0408" unicode="&#x408;" horiz-adv-x="1275" 
d="M902 1604h168v-1104c0 -149 -46 -273 -137 -370s-208 -146 -350 -146c-153 0 -274 46 -365 139s-136 217 -136 373v158h167v-152c0 -121 40 -219 104 -275c63 -56 140 -85 224 -85c93 0 171 34 233 102c61 67 92 151 92 250v1110z" />
    <glyph glyph-name="uni0409" unicode="&#x409;" horiz-adv-x="2469" 
d="M1420 978h359c117 0 224 -15 336 -59c55 -23 103 -51 144 -85c80 -68 137 -184 137 -327s-51 -267 -146 -359c-96 -93 -252 -148 -444 -148h-555v1448h-627l-87 -817c-13 -128 -35 -234 -86 -349c-26 -58 -56 -107 -91 -148c-70 -81 -182 -139 -318 -139h-8v155
c93 0 171 53 219 122c23 34 44 75 61 123c35 95 49 172 58 260l101 949h947v-626zM1420 156h380c79 0 148 9 227 41c39 15 73 36 102 61c57 50 99 137 99 246c0 99 -38 177 -114 234s-185 86 -326 86h-368v-668z" />
    <glyph glyph-name="uni040A" unicode="&#x40a;" horiz-adv-x="2521" 
d="M391 943h912v661h170v-661h398c116 0 220 -16 322 -60c51 -23 95 -51 132 -84c75 -68 124 -176 124 -311c0 -146 -49 -264 -147 -353c-99 -90 -238 -135 -418 -135h-581v785h-912v-785h-168v1604h168v-661zM1473 156h392c80 0 146 8 222 37c38 14 71 33 98 57
c54 47 93 130 93 237c0 192 -141 305 -422 305h-383v-636z" />
    <glyph glyph-name="uni040B" unicode="&#x40b;" horiz-adv-x="1762" 
d="M1116 886c-189 0 -358 -69 -507 -206v-680h-167v1448h-397v156h1113v-156h-549l1 -586c94 70 182 118 264 145c81 26 166 39 254 39c157 0 284 -42 380 -126c95 -85 143 -206 143 -363v-557h-166v515c0 111 -34 201 -101 269c-68 68 -157 102 -268 102z" />
    <glyph glyph-name="uni040C" unicode="&#x40c;" horiz-adv-x="1387" 
d="M862 2102h194l-263 -352h-153zM1121 1604h234l-786 -768l824 -836h-238l-752 772h-12v-772h-168v1604h168v-709h11z" />
    <glyph glyph-name="uni040E" unicode="&#x40e;" horiz-adv-x="1424" 
d="M947 1832c-61 -54 -133 -81 -218 -81s-157 27 -217 81c-61 54 -99 124 -115 211l114 22c35 -123 108 -185 218 -185s183 62 218 185l114 -22c-16 -87 -54 -157 -114 -211zM1433 1604l-595 -1195c-27 -53 -50 -98 -71 -133c-21 -36 -45 -71 -71 -104
c-27 -33 -54 -60 -81 -79c-87 -62 -200 -96 -372 -93h-115v156h106c25 0 44 0 57 1c13 0 34 2 61 5c54 7 80 18 132 43c71 36 127 101 183 214l-643 1185h191l539 -1012l494 1012h185z" />
    <glyph glyph-name="uni040F" unicode="&#x40f;" horiz-adv-x="1686" 
d="M223 0v1604h168v-1448h904v1448h168v-1604h-536v-335h-168v335h-536z" />
    <glyph glyph-name="uni0410" unicode="&#x410;" horiz-adv-x="1588" 
d="M889 1604l692 -1604h-178l-175 410h-873l-176 -410h-172l691 1604h191zM1163 563l-373 867l-372 -867h745z" />
    <glyph glyph-name="uni0411" unicode="&#x411;" horiz-adv-x="1475" 
d="M391 948h387c116 0 222 -14 332 -58c55 -23 102 -51 142 -85c80 -69 136 -184 136 -327c0 -145 -50 -261 -151 -348s-245 -130 -432 -130h-582v1604h1048v-156h-880v-500zM391 156h393c80 0 148 7 229 36c41 14 76 33 105 57c58 47 101 132 101 241
c0 195 -158 306 -445 306h-383v-640z" />
    <glyph glyph-name="uni0412" unicode="&#x412;" horiz-adv-x="1501" 
d="M223 1604h576c291 4 517 -146 516 -403c0 -37 -2 -71 -21 -131c-10 -31 -23 -59 -39 -85c-33 -53 -99 -114 -184 -151c112 -29 203 -98 249 -175s67 -152 67 -219c0 -149 -64 -267 -170 -336s-242 -104 -397 -104h-597v1604zM390 891h382c125 0 219 27 280 82
c61 54 92 123 92 208c0 196 -176 269 -359 269h-395v-559zM390 154h434c174 0 390 70 390 298c0 137 -85 214 -193 253c-76 27 -148 36 -228 36h-403v-587z" />
    <glyph glyph-name="uni0413" unicode="&#x413;" horiz-adv-x="1190" 
d="M1142 1604v-156h-751v-1448h-168v1604h919z" />
    <glyph glyph-name="uni0414" unicode="&#x414;" horiz-adv-x="1738" 
d="M190 -336h-158v496h4c120 -3 207 106 263 233c39 84 64 190 80 274c8 41 14 82 19 122l93 815h975v-1448h173v-492h-158v336h-1291v-336zM640 1448l-80 -711c-13 -113 -38 -222 -75 -327c-37 -106 -90 -191 -157 -254h970v1292h-658z" />
    <glyph glyph-name="uni0415" unicode="&#x415;" horiz-adv-x="1359" 
d="M1155 893v-155h-764v-582h843v-156h-1011v1604h1003v-156h-835v-555h764z" />
    <glyph glyph-name="uni0416" unicode="&#x416;" horiz-adv-x="2048" 
d="M1300 821l750 -821h-229l-701 779h-12v-779h-168v779h-12l-701 -779h-229l750 821l-717 783h220l678 -752h11v752h168v-752h11l678 752h220z" />
    <glyph glyph-name="uni0417" unicode="&#x417;" horiz-adv-x="1336" 
d="M655 -17c-160 0 -305 57 -401 145s-159 203 -174 323l163 30c12 -113 82 -223 206 -291c62 -34 131 -51 206 -51c145 -1 396 92 396 345c0 92 -36 166 -107 223c-72 57 -165 85 -279 85c-69 0 -125 -8 -168 -24l-79 133l549 549h-849v154h1064v-147l-510 -512
c129 5 265 -32 358 -97c119 -83 191 -213 191 -358c0 -159 -71 -295 -190 -387c-105 -80 -230 -120 -376 -120z" />
    <glyph glyph-name="uni0418" unicode="&#x418;" horiz-adv-x="1723" 
d="M417 0h-194v1604h168v-1378l913 1378h196v-1604h-166v1385z" />
    <glyph glyph-name="uni0419" unicode="&#x419;" horiz-adv-x="1723" 
d="M862 1751c84 0 156 27 217 81s99 124 115 211l-114 22c-37 -123 -109 -185 -218 -185c-110 0 -183 62 -218 185l-114 -22c16 -87 54 -157 115 -211c60 -54 132 -81 217 -81zM1500 1604v-1604h-166v1385l-917 -1385h-194v1604h168v-1378l913 1378h196z" />
    <glyph glyph-name="uni041A" unicode="&#x41a;" horiz-adv-x="1387" 
d="M1121 1604h234l-786 -768l824 -836h-238l-752 772h-12v-772h-168v1604h168v-709h11z" />
    <glyph glyph-name="uni041B" unicode="&#x41b;" horiz-adv-x="1662" 
d="M624 1448l-87 -817c-13 -128 -35 -234 -86 -349c-26 -58 -56 -107 -91 -148c-70 -81 -182 -139 -318 -139h-8v155c93 0 172 53 219 122c23 34 44 75 62 123c35 95 48 171 57 259l101 950h966v-1604h-168v1448h-647z" />
    <glyph glyph-name="uni041C" unicode="&#x41c;" horiz-adv-x="2120" 
d="M1132 0h-150l-592 1364h-1v-1364h-166v1604h238l600 -1375l594 1375h242v-1604h-167v1375h-1z" />
    <glyph glyph-name="uni041D" unicode="&#x41d;" horiz-adv-x="1696" 
d="M391 1604v-710h914v710h168v-1604h-168v734h-914v-734h-168v1604h168z" />
    <glyph glyph-name="uni041E" unicode="&#x41e;" horiz-adv-x="1833" 
d="M1723 806c0 -152 -35 -291 -104 -416c-70 -125 -167 -224 -291 -297s-262 -110 -414 -110c-113 0 -219 21 -319 64c-100 42 -185 99 -256 172c-71 72 -126 158 -167 259c-41 100 -62 206 -62 319c0 151 35 290 105 416c69 125 166 225 290 298s262 109 414 109
c113 0 219 -21 319 -63c100 -43 185 -100 256 -172c71 -73 127 -159 168 -259c41 -101 61 -207 61 -320zM1548 797c0 179 -66 348 -176 469c-110 120 -275 197 -458 197c-120 0 -228 -30 -325 -89c-97 -60 -171 -140 -224 -239c-53 -100 -80 -210 -80 -329
c0 -179 67 -348 177 -468s274 -197 457 -197c120 0 228 30 325 89s172 139 225 239c53 99 79 209 79 328z" />
    <glyph glyph-name="uni041F" unicode="&#x41f;" horiz-adv-x="1677" 
d="M223 1604h1231v-1604h-168v1448h-895v-1448h-168v1604z" />
    <glyph glyph-name="uni0420" unicode="&#x420;" horiz-adv-x="1394" 
d="M223 1604h536c391 1 563 -233 563 -481c0 -139 -52 -260 -148 -350c-97 -90 -253 -146 -442 -146h-341v-627h-168v1604zM391 783h347c141 0 254 42 318 107c63 64 95 143 95 227c0 157 -91 329 -405 329h-355v-663z" />
    <glyph glyph-name="uni0421" unicode="&#x421;" horiz-adv-x="1719" 
d="M910 -17c-220 0 -423 85 -566 226c-72 70 -129 156 -170 258c-42 102 -63 212 -63 330c0 119 22 230 65 334c43 103 101 191 174 262c147 142 351 228 568 228c168 0 322 -50 427 -122c52 -36 99 -77 140 -124c82 -94 126 -189 149 -282l-161 -57c-13 52 -34 110 -94 194
c-30 42 -64 79 -103 112s-91 61 -154 84s-133 35 -208 35c-169 0 -329 -68 -442 -181s-186 -284 -186 -473c0 -125 27 -239 81 -340s129 -181 226 -238c96 -57 204 -86 323 -86c147 0 275 51 352 112c38 30 73 67 104 110s53 80 68 111c14 31 27 63 38 97l162 -58
c-25 -87 -66 -173 -148 -272c-41 -49 -88 -93 -140 -130c-105 -75 -265 -130 -442 -130z" />
    <glyph glyph-name="uni0422" unicode="&#x422;" horiz-adv-x="1326" 
d="M1283 1604v-158h-535v-1446h-169v1446h-536v158h1240z" />
    <glyph glyph-name="uni0423" unicode="&#x423;" horiz-adv-x="1424" 
d="M1433 1604l-595 -1195c-27 -53 -50 -98 -71 -133c-21 -36 -45 -71 -71 -104c-27 -33 -54 -60 -81 -79c-87 -62 -200 -96 -372 -93h-115v156h106c25 0 44 0 57 1c13 0 34 2 61 5c54 7 80 18 132 43c71 36 127 101 183 214l-643 1185h191l539 -1012l494 1012h185z" />
    <glyph glyph-name="uni0424" unicode="&#x424;" horiz-adv-x="1946" 
d="M889 -50v185c-249 1 -445 62 -586 185c-141 122 -212 287 -212 496c-2 430 318 683 798 678v160h168v-160c481 5 800 -248 798 -678c0 -209 -71 -374 -212 -496c-141 -123 -337 -184 -586 -185v-185h-168zM889 292v1047c-197 0 -350 -45 -459 -135
c-109 -91 -164 -221 -164 -390c0 -171 54 -301 163 -389c109 -89 262 -133 460 -133zM1057 1339v-1047c198 0 351 44 460 133c109 88 163 218 163 389c0 169 -54 299 -163 390c-109 90 -263 135 -460 135z" />
    <glyph glyph-name="uni0425" unicode="&#x425;" horiz-adv-x="1464" 
d="M240 1604l495 -661l490 661h196l-587 -781l614 -823h-196l-521 701l-518 -701h-197l615 821l-588 783h197z" />
    <glyph glyph-name="uni0426" unicode="&#x426;" horiz-adv-x="1735" 
d="M1463 1604v-1448h172v-492h-158v336h-1254v1604h168v-1448h904v1448h168z" />
    <glyph glyph-name="uni0427" unicode="&#x427;" horiz-adv-x="1509" 
d="M1117 0v684c-69 -41 -151 -76 -245 -107c-95 -31 -175 -47 -241 -47c-148 0 -297 39 -398 145c-65 68 -109 180 -109 317v612h167v-592c0 -170 101 -322 351 -322c75 0 155 15 240 44c84 29 162 65 235 108v762h169v-1604h-169z" />
    <glyph glyph-name="uni0428" unicode="&#x428;" horiz-adv-x="2463" 
d="M1147 1604h168v-1448h757v1448h168v-1604h-2017v1604h168v-1448h756v1448z" />
    <glyph glyph-name="uni0429" unicode="&#x429;" horiz-adv-x="2512" 
d="M1315 1604v-1448h757v1448h168v-1448h172v-492h-158v336h-2031v1604h168v-1448h756v1448h168z" />
    <glyph glyph-name="uni042A" unicode="&#x42a;" horiz-adv-x="1644" 
d="M594 978h359c117 0 224 -15 336 -59c55 -23 103 -51 144 -85c81 -68 138 -184 138 -327s-51 -267 -147 -359c-96 -93 -252 -148 -444 -148h-554v1448h-390v156h558v-626zM594 156h380c79 0 148 9 227 41c39 15 73 36 102 61c57 50 99 137 99 246c0 99 -38 177 -113 234
c-76 57 -185 86 -327 86h-368v-668z" />
    <glyph glyph-name="uni042B" unicode="&#x42b;" horiz-adv-x="1920" 
d="M391 978h359c117 0 224 -15 336 -59c55 -23 103 -51 144 -85c81 -68 138 -184 138 -327s-51 -267 -147 -359c-96 -93 -252 -148 -444 -148h-554v1604h168v-626zM1529 1604v-1604h168v1604h-168zM391 156h380c79 0 148 9 227 41c39 15 73 36 102 61c57 50 99 137 99 246
c0 99 -38 177 -113 234c-76 57 -185 86 -327 86h-368v-668z" />
    <glyph glyph-name="uni042C" unicode="&#x42c;" horiz-adv-x="1441" 
d="M391 978h359c117 0 224 -15 336 -59c55 -23 103 -51 144 -85c81 -68 138 -184 138 -327s-51 -267 -147 -359c-96 -93 -252 -148 -444 -148h-554v1604h168v-626zM391 156h380c79 0 148 9 227 41c39 15 73 36 102 61c57 50 99 137 99 246c0 99 -38 177 -113 234
c-76 57 -185 86 -327 86h-368v-668z" />
    <glyph glyph-name="uni042D" unicode="&#x42d;" horiz-adv-x="1728" 
d="M828 1621c223 0 422 -84 562 -224c140 -141 226 -352 226 -591c0 -241 -86 -454 -228 -596s-347 -227 -572 -227c-453 0 -672 333 -729 532l160 56c16 -45 31 -84 66 -143c35 -60 73 -107 134 -159c87 -74 207 -127 373 -127c170 0 312 56 425 167s176 254 189 429h-769
v155h767c-33 335 -295 574 -611 569c-151 0 -284 -53 -364 -118c-41 -33 -76 -70 -107 -111c-61 -84 -85 -143 -98 -195l-159 56c30 134 139 295 307 406c109 72 264 121 428 121z" />
    <glyph glyph-name="uni042E" unicode="&#x42e;" horiz-adv-x="2351" 
d="M1465 1620c275 1 503 -130 634 -329c91 -134 140 -304 140 -485c0 -228 -80 -437 -214 -584c-134 -148 -336 -239 -564 -239c-213 0 -405 81 -536 214c-132 133 -216 321 -232 532h-302v-729h-168v1604h168v-720h302c17 208 103 393 235 525c132 131 324 211 537 211z
M1465 140c120 0 226 30 319 90c92 59 162 139 210 238s72 209 72 329c0 181 -58 348 -160 469s-261 198 -445 198c-183 0 -340 -76 -440 -198s-158 -288 -158 -468c0 -179 59 -342 161 -462c102 -121 260 -196 441 -196z" />
    <glyph glyph-name="uni042F" unicode="&#x42f;" horiz-adv-x="1479" 
d="M83 0l491 666c-130 17 -236 66 -319 148c-83 81 -124 186 -124 314c0 331 272 476 571 476h554v-1604h-168v641h-331l-472 -641h-202zM1088 1450h-375c-109 0 -205 -25 -284 -76s-127 -141 -127 -254c0 -230 207 -335 413 -335h373v665z" />
    <glyph glyph-name="uni0430" unicode="&#x430;" 
d="M840 631v74c0 175 -97 265 -278 265c-88 0 -163 -28 -207 -72c-45 -45 -72 -95 -81 -151l-153 33c3 57 54 163 155 243c64 51 170 90 290 90c199 0 332 -75 398 -226c22 -50 33 -110 33 -181v-308c0 -183 6 -316 18 -398h-160c-9 49 -14 113 -14 192h-1
c-91 -141 -214 -211 -369 -211c-109 0 -198 30 -265 91c-68 61 -102 138 -102 231v12c0 237 238 316 433 316h303zM840 499h-305c-65 0 -123 -10 -178 -36c-56 -26 -92 -78 -92 -147c0 -60 22 -107 67 -142c44 -35 100 -52 167 -52c98 0 179 32 244 95s97 145 97 244v38z
" />
    <glyph glyph-name="uni0431" unicode="&#x431;" horiz-adv-x="1344" 
d="M288 845h2c88 173 233 260 436 260c136 0 263 -53 358 -145s156 -237 156 -402c0 -174 -51 -313 -154 -418s-236 -158 -398 -158c-156 0 -286 51 -386 155c-100 103 -159 276 -159 499c0 67 1 122 3 163c1 41 6 92 14 153c7 61 19 111 34 151c15 39 36 83 65 132
c57 96 134 156 258 218c62 31 133 56 212 76l413 104l43 -134l-392 -103c-124 -33 -223 -75 -291 -117s-118 -104 -146 -152c-28 -46 -50 -130 -56 -181c-4 -27 -8 -60 -12 -101zM307 548c0 -126 36 -229 107 -308c71 -80 163 -120 277 -120s207 40 280 121
c73 80 109 182 109 307c0 128 -36 230 -109 307c-73 76 -166 114 -279 114s-206 -38 -277 -113c-72 -76 -108 -179 -108 -308z" />
    <glyph glyph-name="uni0432" unicode="&#x432;" horiz-adv-x="1237" 
d="M181 1093h536c175 0 358 -77 358 -273c0 -115 -61 -199 -183 -252c162 -43 243 -133 243 -269c0 -217 -206 -299 -398 -299h-556v1093zM340 621h353c48 0 92 9 141 33c48 23 81 76 81 148c0 60 -31 104 -78 125c-47 20 -92 28 -141 28h-356v-334zM340 138h381
c59 0 112 10 165 36c52 26 87 78 87 150c0 64 -33 111 -87 135c-54 23 -114 33 -187 33h-359v-354z" />
    <glyph glyph-name="uni0433" unicode="&#x433;" horiz-adv-x="953" 
d="M913 952h-573v-952h-159v1093h732v-141z" />
    <glyph glyph-name="uni0434" unicode="&#x434;" horiz-adv-x="1357" 
d="M60 138h3c95 0 152 77 190 193c26 81 39 160 51 263l57 499h767v-952h128v-479h-154v338h-887v-338h-155v476zM502 952l-42 -371c-27 -230 -79 -377 -156 -440h665v811h-467z" />
    <glyph glyph-name="uni0435" unicode="&#x435;" horiz-adv-x="1244" 
d="M1147 497h-885c6 -107 46 -196 121 -267c74 -71 164 -107 271 -107c164 0 287 82 338 234l142 -45c-31 -103 -91 -184 -179 -243s-188 -88 -299 -88c-104 0 -199 25 -284 76s-152 119 -199 206c-48 87 -72 182 -72 285c0 99 23 191 68 278c45 86 109 155 192 208
c82 53 173 79 272 79c109 0 204 -25 283 -74c79 -50 137 -117 176 -200c38 -84 57 -180 57 -288c0 -12 -1 -30 -2 -54zM264 633h723c-11 102 -47 184 -109 246s-144 93 -245 93c-93 0 -174 -33 -244 -99c-70 -67 -112 -147 -125 -240z" />
    <glyph glyph-name="uni0436" unicode="&#x436;" horiz-adv-x="1673" 
d="M1112 563l534 -563h-217l-498 531h-15v-531h-159v531h-15l-498 -531h-217l534 563l-522 530h205l497 -504h16v504h159v-504h16l497 504h205z" />
    <glyph glyph-name="uni0437" unicode="&#x437;" horiz-adv-x="1083" 
d="M535 -19c-105 0 -200 29 -286 86s-142 135 -168 236l146 44c19 -72 57 -128 114 -169s124 -61 200 -61c125 0 277 64 277 211c0 45 -15 83 -45 115c-30 31 -65 53 -105 66s-82 19 -125 19c-49 0 -88 -5 -118 -14l-74 115l402 327h-643v137h838v-136l-376 -303
c133 -3 260 -52 343 -151c41 -50 62 -107 62 -171c0 -109 -45 -196 -134 -261c-83 -60 -186 -90 -308 -90z" />
    <glyph glyph-name="uni0438" unicode="&#x438;" horiz-adv-x="1322" 
d="M342 0h-161v1093h159v-874l640 874h161v-1093h-159v867h-1z" />
    <glyph glyph-name="uni0439" unicode="&#x439;" horiz-adv-x="1322" 
d="M878 1357c-60 -54 -132 -81 -217 -81s-157 27 -217 81c-61 54 -99 124 -115 211l114 22c35 -123 108 -185 218 -185s183 62 218 185l114 -22c-17 -87 -55 -157 -115 -211zM342 0h-161v1093h159v-874l639 874h162v-1093h-160v867h-1z" />
    <glyph glyph-name="uni043A" unicode="&#x43a;" horiz-adv-x="1135" 
d="M340 612h12l531 481h220l-600 -529l630 -564h-224l-557 510h-12v-510h-159v1093h159v-481z" />
    <glyph glyph-name="uni043B" unicode="&#x43b;" horiz-adv-x="1297" 
d="M492 952l-60 -526c-24 -209 -136 -445 -376 -432l-6 1v141c75 0 134 45 167 113s50 132 58 204l73 640h768v-1093h-159v952h-465z" />
    <glyph glyph-name="uni043C" unicode="&#x43c;" horiz-adv-x="1650" 
d="M338 924v-924h-157v1093h234l411 -886l408 886h235v-1093h-160v927h-3l-430 -927h-103l-431 924h-4z" />
    <glyph glyph-name="uni043D" unicode="&#x43d;" horiz-adv-x="1309" 
d="M340 1093v-460h629v460h159v-1093h-159v491h-629v-491h-159v1093h159z" />
    <glyph glyph-name="uni043E" unicode="&#x43e;" horiz-adv-x="1332" 
d="M663 -19c-103 0 -198 25 -284 75c-87 50 -155 118 -204 204s-74 180 -74 283c0 161 54 297 163 406c108 109 242 164 403 164c310 6 570 -254 564 -562c6 -317 -254 -577 -568 -570zM667 123c115 0 211 41 287 123s114 181 114 297c0 117 -38 218 -115 303
c-77 84 -173 126 -290 126c-116 0 -211 -41 -286 -123s-113 -181 -113 -298c-5 -227 170 -432 403 -428z" />
    <glyph glyph-name="uni043F" unicode="&#x43f;" horiz-adv-x="1299" 
d="M959 952h-619v-952h-159v1093h937v-1093h-159v952z" />
    <glyph glyph-name="uni0440" unicode="&#x440;" horiz-adv-x="1378" 
d="M1276 548c0 -199 -85 -377 -244 -484c-80 -53 -170 -80 -271 -80c-179 0 -319 80 -421 241v-764h-159v1632h156v-237c112 171 253 257 424 257c152 0 288 -69 376 -175c87 -106 139 -247 139 -390zM730 124c117 0 210 40 279 121c69 80 104 180 104 299
c0 153 -59 287 -177 367c-59 39 -128 59 -206 59c-221 4 -398 -203 -392 -420c0 -115 37 -215 111 -299c74 -85 168 -127 281 -127z" />
    <glyph glyph-name="uni0441" unicode="&#x441;" horiz-adv-x="1259" 
d="M264 552c0 -153 63 -288 185 -368c61 -41 131 -61 211 -61c92 0 174 31 224 68c25 19 47 41 68 67c41 52 57 87 73 128l148 -50c-25 -85 -83 -168 -167 -238s-211 -117 -348 -117c-312 -6 -562 240 -557 562c0 108 26 206 77 294c51 87 119 155 205 204
c85 48 179 72 282 72c123 0 232 -34 326 -102c94 -69 153 -151 176 -247l-147 -48c-24 86 -135 255 -361 255c-114 0 -208 -41 -283 -122s-112 -180 -112 -297z" />
    <glyph glyph-name="uni0442" unicode="&#x442;" horiz-adv-x="1018" 
d="M978 1093v-141h-389v-952h-160v952h-389v141h938z" />
    <glyph glyph-name="uni0443" unicode="&#x443;" horiz-adv-x="1216" 
d="M1007 1093h172l-748 -1632h-173l283 613l-497 1019h183l401 -845z" />
    <glyph glyph-name="uni0444" unicode="&#x444;" horiz-adv-x="1800" 
d="M819 -500v593c-86 -73 -176 -110 -270 -110c-95 0 -176 26 -243 78c-68 51 -118 119 -150 203s-48 179 -48 286c-5 320 167 566 441 563c113 0 191 -45 270 -118v609h160v-609c80 73 156 118 269 118c184 0 325 -108 393 -277c34 -85 51 -181 51 -290
c0 -155 -39 -291 -111 -395s-190 -168 -334 -168c-116 0 -188 38 -268 110v-593h-160zM819 229v635c-67 71 -146 106 -236 106c-112 0 -196 -48 -243 -128c-47 -81 -68 -179 -68 -299c0 -230 73 -420 311 -420c89 0 168 35 236 106zM979 864v-635c68 -71 147 -106 238 -106
c238 0 311 195 311 424s-83 423 -312 423c-91 0 -170 -35 -237 -106z" />
    <glyph glyph-name="uni0445" unicode="&#x445;" horiz-adv-x="1129" 
d="M242 1093l324 -424l322 424h186l-415 -535l432 -558h-190l-338 445l-339 -445h-186l432 556l-416 537h188z" />
    <glyph glyph-name="uni0446" unicode="&#x446;" horiz-adv-x="1339" 
d="M181 1093h159v-952h611v952h159v-952h128v-479h-154v338h-903v1093z" />
    <glyph glyph-name="uni0447" unicode="&#x447;" 
d="M261 1093v-392c0 -136 86 -209 222 -209c59 0 120 10 182 29s115 43 159 74v498h159v-1093h-159v451c-44 -25 -100 -48 -169 -68c-69 -21 -133 -31 -193 -31c-107 0 -193 28 -260 83s-100 136 -100 243v415h159z" />
    <glyph glyph-name="uni0448" unicode="&#x448;" horiz-adv-x="1882" 
d="M181 1093h159v-952h521v952h159v-952h521v952h160v-1093h-1520v1093z" />
    <glyph glyph-name="uni0449" unicode="&#x449;" horiz-adv-x="1930" 
d="M181 1093h159v-952h521v952h159v-952h521v952h160v-952h129v-479h-154v338h-1495v1093z" />
    <glyph glyph-name="uni044A" unicode="&#x44a;" horiz-adv-x="1376" 
d="M521 695h348c221 0 438 -85 438 -333c0 -247 -197 -363 -419 -362h-526v952h-320v141h479v-398zM521 141h352c133 0 273 50 273 217c0 155 -144 199 -280 199h-345v-416z" />
    <glyph glyph-name="uni044B" unicode="&#x44b;" horiz-adv-x="1718" 
d="M340 695h347c222 0 439 -85 439 -333c0 -247 -198 -363 -419 -362h-526v1093h159v-398zM1377 1093v-1093h160v1093h-160zM340 141h352c133 0 273 50 273 217c0 155 -144 199 -280 199h-345v-416z" />
    <glyph glyph-name="uni044C" unicode="&#x44c;" horiz-adv-x="1195" 
d="M340 695h347c222 0 439 -85 439 -333c0 -247 -198 -363 -419 -362h-526v1093h159v-398zM340 141h352c133 0 273 50 273 217c0 155 -144 199 -280 199h-345v-416z" />
    <glyph glyph-name="uni044D" unicode="&#x44d;" horiz-adv-x="1257" 
d="M606 1113c101 0 193 -23 276 -70s150 -114 199 -200s74 -183 74 -290c5 -326 -241 -577 -557 -572c-140 0 -267 47 -350 117c-84 70 -140 152 -165 237l144 49c16 -40 33 -77 76 -128c21 -26 45 -48 72 -67c52 -38 135 -69 227 -69c111 0 201 36 271 107
c69 71 109 160 120 268h-519v139h514c-17 98 -61 179 -132 243s-155 96 -254 96c-109 0 -206 -40 -264 -96s-91 -110 -106 -159l-141 47c23 94 84 176 183 245s209 103 332 103z" />
    <glyph glyph-name="uni044E" unicode="&#x44e;" horiz-adv-x="1769" 
d="M1121 1113c309 6 551 -250 546 -568c6 -310 -241 -570 -548 -564c-145 0 -267 47 -368 142s-159 214 -173 359h-238v-482h-159v1093h159v-476h239c16 143 74 261 175 355s223 141 367 141zM1121 122c112 0 204 41 275 123c71 81 106 181 106 298c0 119 -36 221 -107 305
c-72 84 -164 126 -277 126c-230 3 -385 -206 -380 -430c0 -116 36 -215 109 -298c72 -83 163 -124 274 -124z" />
    <glyph glyph-name="uni044F" unicode="&#x44f;" horiz-adv-x="1201" 
d="M81 0l320 427c-83 19 -150 56 -201 113c-52 56 -78 127 -78 213c0 163 113 340 412 340h486v-1093h-159v397h-300l-287 -397h-193zM861 952h-319c-127 0 -261 -53 -261 -206c0 -60 22 -110 67 -151s111 -62 198 -62h315v419z" />
    <glyph glyph-name="uni0451" unicode="&#x451;" horiz-adv-x="1244" 
d="M520 1314c-49 -49 -119 -49 -168 0c-49 48 -49 124 0 173c49 48 119 48 168 0c49 -49 49 -125 0 -173zM910 1314c-49 -49 -119 -49 -168 0c-49 48 -49 124 0 173c49 48 119 48 168 0c49 -49 49 -125 0 -173zM1147 497h-885c6 -107 46 -196 121 -267
c74 -71 164 -107 271 -107c164 0 287 82 338 234l142 -45c-31 -103 -91 -184 -179 -243s-188 -88 -299 -88c-104 0 -199 25 -284 76s-152 119 -199 206c-48 87 -72 182 -72 285c0 99 23 191 68 278c45 86 109 155 192 208c82 53 173 79 272 79c109 0 204 -25 283 -74
c79 -50 137 -117 176 -200c38 -84 57 -180 57 -288c0 -12 -1 -30 -2 -54zM264 633h723c-11 102 -47 184 -109 246s-144 93 -245 93c-93 0 -174 -33 -244 -99c-70 -67 -112 -147 -125 -240z" />
    <glyph glyph-name="uni0452" unicode="&#x452;" horiz-adv-x="1261" 
d="M1136 675v-789c0 -127 -37 -230 -110 -309c-73 -78 -174 -117 -301 -117c-75 0 -145 10 -211 30l32 137c7 -2 59 -14 71 -16c15 -3 48 -7 79 -7c81 0 148 29 201 88s80 136 80 232v710c0 101 -26 182 -78 243c-53 61 -128 91 -227 91c-95 0 -174 -34 -237 -101
s-95 -150 -95 -248v-619h-159v1298h-137v142h137v228h159v-228h400v-142h-400v-405c89 147 216 221 381 221c131 0 233 -40 306 -121s109 -187 109 -318z" />
    <glyph glyph-name="uni0453" unicode="&#x453;" horiz-adv-x="953" 
d="M834 1632h-194l-222 -352h153zM181 1093h732v-141h-573v-952h-159v1093z" />
    <glyph glyph-name="uni0454" unicode="&#x454;" horiz-adv-x="1259" 
d="M1030 384l145 -49c-25 -85 -81 -167 -164 -237s-211 -117 -355 -117c-158 0 -290 53 -395 158c-106 105 -159 239 -159 401c-5 327 251 579 565 573c121 0 229 -34 324 -102c94 -69 153 -151 176 -246l-141 -47c-15 49 -47 103 -103 159c-57 56 -153 96 -262 96
c-99 0 -184 -32 -257 -96s-118 -145 -136 -243h515v-139h-519c12 -108 54 -197 125 -268s162 -107 273 -107c92 0 174 31 225 69c25 19 48 41 69 67c41 52 58 87 74 128z" />
    <glyph glyph-name="uni0455" unicode="&#x455;" horiz-adv-x="1006" 
d="M902 311c0 -97 -38 -176 -113 -237s-167 -92 -275 -92c-176 1 -289 72 -348 159c-44 60 -61 113 -68 166l146 38c18 -100 94 -223 269 -223c62 0 115 16 160 49c45 32 67 76 67 131c0 43 -18 79 -53 106c-36 27 -78 46 -126 57l-167 37c-181 40 -272 135 -272 285
c0 113 57 206 135 254s160 72 235 72c166 -1 272 -66 328 -145c41 -55 58 -101 66 -148l-145 -41c-11 43 -28 80 -64 123c-37 43 -103 71 -184 71c-59 0 -109 -17 -150 -51s-61 -75 -61 -124c0 -85 61 -125 158 -148l177 -40c143 -33 285 -124 285 -299z" />
    <glyph glyph-name="uni0456" unicode="&#x456;" horiz-adv-x="522" 
d="M176 1400c-23 23 -35 52 -35 85s12 62 35 85s52 35 85 35s62 -12 85 -35s35 -52 35 -85s-12 -62 -35 -85s-52 -35 -85 -35s-62 12 -85 35zM341 1093v-1093h-160v1093h160z" />
    <glyph glyph-name="uni0457" unicode="&#x457;" horiz-adv-x="522" 
d="M155 1314c-49 -49 -119 -49 -168 0c-49 48 -49 124 0 173c49 48 119 48 168 0c49 -49 49 -125 0 -173zM536 1314c-49 -49 -119 -49 -168 0c-49 48 -49 124 0 173c49 48 119 48 168 0c49 -49 49 -125 0 -173zM341 1093v-1093h-160v1093h160z" />
    <glyph glyph-name="uni0458" unicode="&#x458;" horiz-adv-x="538" 
d="M157 1485c0 66 54 120 120 120c33 0 62 -12 85 -35s35 -52 35 -85s-12 -62 -35 -85s-52 -35 -85 -35s-61 12 -84 36c-24 23 -36 51 -36 84zM357 1093v-1327c0 -203 -107 -312 -311 -312c-25 0 -59 5 -102 16v132c24 -5 50 -7 79 -7c112 0 174 63 174 175v1323h160z" />
    <glyph glyph-name="uni0459" unicode="&#x459;" horiz-adv-x="1971" 
d="M1116 695h348c221 0 438 -85 438 -333c0 -247 -197 -363 -419 -362h-526v952h-466l-59 -526c-12 -111 -47 -212 -106 -298c-60 -86 -156 -141 -271 -134l-5 1v141c75 0 134 45 167 113s50 132 58 204l72 640h769v-398zM1116 141h352c133 0 273 50 273 217
c0 75 -34 129 -89 158c-56 29 -118 41 -191 41h-345v-416z" />
    <glyph glyph-name="uni045A" unicode="&#x45a;" horiz-adv-x="1981" 
d="M340 685h629v408h159v-408h351c221 0 433 -84 433 -328s-192 -357 -414 -357h-529v546h-629v-546h-159v1093h159v-408zM1128 141h355c132 0 270 49 270 213c0 73 -33 126 -88 154s-116 39 -189 39h-348v-406z" />
    <glyph glyph-name="uni045B" unicode="&#x45b;" horiz-adv-x="1295" 
d="M969 0v636c0 101 -26 181 -77 242c-52 60 -127 90 -226 90c-95 0 -173 -33 -234 -99s-92 -148 -92 -246v-623h-159v1298h-137v142h137v228h159v-228h399v-142h-399v-401c87 145 212 217 374 217c131 0 233 -40 306 -120c72 -81 108 -187 108 -318v-676h-159z" />
    <glyph glyph-name="uni045C" unicode="&#x45c;" horiz-adv-x="1136" 
d="M924 1632h-194l-222 -352h153zM341 1093v-481h12l531 481h220l-600 -529l630 -564h-224l-557 510h-12v-510h-160v1093h160z" />
    <glyph glyph-name="uni045E" unicode="&#x45e;" horiz-adv-x="1216" 
d="M830 1357c-61 -54 -133 -81 -218 -81s-157 27 -217 81c-61 54 -99 124 -115 211l114 22c35 -123 108 -185 218 -185s183 62 218 185l114 -22c-16 -87 -54 -157 -114 -211zM1007 1093h172l-748 -1632h-173l283 613l-497 1019h183l401 -845z" />
    <glyph glyph-name="uni045F" unicode="&#x45f;" horiz-adv-x="1291" 
d="M181 0v1093h159v-952h611v952h159v-1093h-388v-338h-154v338h-387z" />
    <glyph glyph-name="uni0490" unicode="&#x490;" horiz-adv-x="1189" 
d="M1142 1912v-463l-751 -1v-1448h-168v1604h760v308h159z" />
    <glyph glyph-name="uni0491" unicode="&#x491;" horiz-adv-x="953" 
d="M758 1388h155v-436h-573v-952h-159v1093h577v295z" />
    <glyph glyph-name="uni0496" unicode="&#x496;" horiz-adv-x="2082" 
d="M1907 156h143v-492h-158v336h-71l-701 779h-12v-779h-168v779h-12l-701 -779h-229l750 821l-717 783h220l678 -752h11v752h168v-752h11l678 752h220l-717 -783z" />
    <glyph glyph-name="uni0497" unicode="&#x497;" horiz-adv-x="1702" 
d="M1492 -338v338h-63l-498 531h-15v-531h-159v531h-15l-498 -531h-217l534 563l-522 530h205l497 -504h16v504h159v-504h16l497 504h205l-522 -530l400 -422h134v-479h-154z" />
    <glyph glyph-name="uni0498" unicode="&#x498;" horiz-adv-x="1336" 
d="M572 -335v323c-91 11 -173 40 -246 87s-129 103 -170 168s-67 135 -76 208l163 30c12 -113 82 -223 206 -291c62 -34 131 -51 206 -51c145 -1 396 92 396 345c0 92 -36 166 -107 223c-72 57 -165 85 -279 85c-69 0 -125 -8 -168 -24l-79 133l549 549h-849v154h1064v-147
l-510 -512c129 5 265 -32 358 -97c119 -83 191 -213 191 -358c0 -159 -71 -295 -190 -387c-81 -62 -178 -100 -291 -115v-323h-168z" />
    <glyph glyph-name="uni0499" unicode="&#x499;" horiz-adv-x="1083" 
d="M465 -338v324c-91 12 -172 46 -243 101s-118 127 -141 216l146 44c19 -72 57 -128 114 -169s124 -61 200 -61c125 0 277 64 277 211c0 45 -15 83 -45 115c-30 31 -65 53 -105 66s-82 19 -125 19c-49 0 -88 -5 -118 -14l-74 115l402 327h-643v137h838v-136l-376 -303
c133 -3 260 -52 343 -151c41 -50 62 -107 62 -171c0 -109 -45 -196 -134 -261c-61 -44 -136 -72 -224 -84v-325h-154z" />
    <glyph glyph-name="uni049A" unicode="&#x49a;" horiz-adv-x="1423" 
d="M402 895l719 709h234l-786 -768l670 -680h154v-492h-158v336h-80l-752 772h-12v-772h-168v1604h168v-709h11z" />
    <glyph glyph-name="uni049B" unicode="&#x49b;" horiz-adv-x="1168" 
d="M979 -338v338h-70l-557 510h-12v-510h-159v1093h159v-481h12l531 481h220l-600 -529l472 -423h158v-479h-154z" />
    <glyph glyph-name="uni04A2" unicode="&#x4a2;" horiz-adv-x="1744" 
d="M1486 0h-181v734h-914v-734h-168v1604h168v-710h914v710h168v-1448h171v-492h-158v336z" />
    <glyph glyph-name="uni04A3" unicode="&#x4a3;" horiz-adv-x="1357" 
d="M1102 -338v338h-133v491h-629v-491h-159v1093h159v-460h629v460h159v-952h128v-479h-154z" />
    <glyph glyph-name="uni04AA" unicode="&#x4aa;" horiz-adv-x="1719" 
d="M832 -335v322c-201 17 -384 108 -513 247s-208 340 -208 563c0 119 22 230 65 334c43 103 102 191 175 262s158 126 257 167s202 61 311 61c168 0 321 -50 426 -122c52 -36 99 -77 140 -124c82 -94 126 -189 149 -282l-161 -57c-13 52 -34 110 -94 194
c-30 42 -64 79 -103 112s-91 61 -154 84s-132 35 -207 35c-169 0 -328 -68 -442 -181s-186 -284 -186 -473c-6 -374 272 -671 629 -664c147 0 275 51 352 112c38 30 73 67 104 110s53 80 68 111c14 31 27 63 38 97l162 -58c-23 -81 -60 -161 -132 -253
c-37 -47 -78 -88 -123 -125c-92 -73 -232 -134 -385 -149v-323h-168z" />
    <glyph glyph-name="uni04AB" unicode="&#x4ab;" horiz-adv-x="1259" 
d="M582 -338v324c-141 17 -256 77 -346 180c-90 102 -135 228 -135 377c0 108 26 206 77 294c51 87 119 155 205 204c85 48 179 72 281 72c124 0 233 -34 327 -102c94 -69 153 -151 176 -247l-147 -48c-24 86 -135 255 -362 255c-114 0 -208 -41 -282 -122
c-75 -81 -112 -180 -112 -297c0 -153 62 -288 184 -368c61 -41 131 -61 211 -61c92 0 174 31 224 68c25 19 47 41 68 67c41 52 57 87 73 128l148 -50c-25 -83 -75 -158 -152 -226s-171 -109 -284 -124v-324h-154z" />
    <glyph glyph-name="uni04AC" unicode="&#x4ac;" horiz-adv-x="1334" 
d="M762 0h-183v1446h-536v158h1240v-158h-535v-1290h172v-492h-158v336z" />
    <glyph glyph-name="uni04AD" unicode="&#x4ad;" horiz-adv-x="1025" 
d="M40 1093h938v-141h-389v-811h128v-479h-154v338h-134v952h-389v141z" />
    <glyph glyph-name="uni04B2" unicode="&#x4b2;" horiz-adv-x="1531" 
d="M1331 156h172v-492h-158v336h-93l-521 701l-518 -701h-197l615 821l-588 783h197l495 -661l490 661h196l-587 -781z" />
    <glyph glyph-name="uni04B3" unicode="&#x4b3;" horiz-adv-x="1155" 
d="M937 -338v338h-36l-338 445l-339 -445h-186l432 556l-416 537h188l324 -424l322 424h186l-415 -535l323 -417h109v-479h-154z" />
    <glyph glyph-name="uni04B6" unicode="&#x4b6;" horiz-adv-x="1557" 
d="M1299 0h-182v684c-69 -41 -151 -76 -245 -107c-95 -31 -175 -47 -241 -47c-148 0 -297 39 -398 145c-65 68 -109 180 -109 317v612h167v-592c0 -170 101 -322 351 -322c75 0 155 15 240 44c84 29 162 65 235 108v762h169v-1448h171v-492h-158v336z" />
    <glyph glyph-name="uni04B7" unicode="&#x4b7;" horiz-adv-x="1212" 
d="M957 -338v338h-133v451c-44 -25 -100 -48 -169 -68c-69 -21 -133 -31 -193 -31c-107 0 -193 28 -260 83s-100 136 -100 243v415h159v-392c0 -136 86 -209 222 -209c59 0 120 10 182 29s115 43 159 74v498h159v-952h128v-479h-154z" />
    <glyph glyph-name="uni04C0" unicode="&#x4c0;" horiz-adv-x="614" 
d="M391 1604v-1604h-168v1604h168z" />
    <glyph glyph-name="uni04C1" unicode="&#x4c1;" horiz-adv-x="2048" 
d="M1024 1751c-85 0 -157 27 -217 81c-61 54 -99 124 -115 211l114 22c35 -123 108 -185 218 -185c109 0 181 62 218 185l114 -22c-16 -87 -54 -157 -115 -211s-133 -81 -217 -81zM1300 821l750 -821h-229l-701 779h-12v-779h-168v779h-12l-701 -779h-229l750 821l-717 783
h220l678 -752h11v752h168v-752h11l678 752h220z" />
    <glyph glyph-name="uni04C2" unicode="&#x4c2;" horiz-adv-x="1673" 
d="M1055 1357c-61 -54 -133 -81 -218 -81s-157 27 -217 81c-61 54 -99 124 -115 211l114 22c35 -123 108 -185 218 -185s183 62 218 185l114 -22c-16 -87 -54 -157 -114 -211zM1112 563l534 -563h-217l-498 531h-15v-531h-159v531h-15l-498 -531h-217l534 563l-522 530h205
l497 -504h16v504h159v-504h16l497 504h205z" />
    <glyph glyph-name="uni04CF" unicode="&#x4cf;" horiz-adv-x="522" 
d="M341 1093v-1093h-160v1093h160z" />
    <glyph glyph-name="uni04D0" unicode="&#x4d0;" horiz-adv-x="1588" 
d="M790 1751c-85 0 -157 27 -217 81c-61 54 -99 124 -115 211l114 22c35 -123 108 -185 218 -185c109 0 181 62 218 185l114 -22c-16 -87 -54 -157 -115 -211s-133 -81 -217 -81zM889 1604l692 -1604h-178l-175 410h-873l-176 -410h-172l691 1604h191zM1163 563l-373 867
l-372 -867h745z" />
    <glyph glyph-name="uni04D1" unicode="&#x4d1;" 
d="M784 1357c-61 -54 -133 -81 -218 -81s-157 27 -217 81c-61 54 -99 124 -115 211l114 22c35 -123 108 -185 218 -185s183 62 218 185l114 -22c-16 -87 -54 -157 -114 -211zM840 631v74c0 175 -97 265 -278 265c-88 0 -163 -28 -207 -72c-45 -45 -72 -95 -81 -151l-153 33
c3 57 54 163 155 243c64 51 170 90 290 90c199 0 332 -75 398 -226c22 -50 33 -110 33 -181v-308c0 -183 6 -316 18 -398h-160c-9 49 -14 113 -14 192h-1c-91 -141 -214 -211 -369 -211c-109 0 -198 30 -265 91c-68 61 -102 138 -102 231v12c0 237 238 316 433 316h303z
M840 499h-305c-65 0 -123 -10 -178 -36c-56 -26 -92 -78 -92 -147c0 -60 22 -107 67 -142c44 -35 100 -52 167 -52c98 0 179 32 244 95s97 145 97 244v38z" />
    <glyph glyph-name="uni04D2" unicode="&#x4d2;" horiz-adv-x="1588" 
d="M669 1794c-49 -49 -119 -49 -168 0c-49 48 -49 124 0 173c49 48 119 48 168 0c49 -49 49 -125 0 -173zM1079 1794c-49 -49 -119 -49 -168 0c-49 48 -49 124 0 173c49 48 119 48 168 0c49 -49 49 -125 0 -173zM889 1604l692 -1604h-178l-175 410h-873l-176 -410h-172
l691 1604h191zM1163 563l-373 867l-372 -867h745z" />
    <glyph glyph-name="uni04D3" unicode="&#x4d3;" 
d="M457 1314c49 48 49 124 0 173c-49 48 -119 48 -168 0c-49 -49 -49 -125 0 -173c49 -49 119 -49 168 0zM847 1314c49 48 49 124 0 173c-49 48 -119 48 -168 0c-49 -49 -49 -125 0 -173c49 -49 119 -49 168 0zM537 631h303v74c0 175 -97 265 -278 265
c-88 0 -163 -28 -207 -72c-45 -45 -72 -95 -81 -151l-153 33c3 57 54 163 155 243c64 51 170 90 290 90c199 0 332 -75 398 -226c22 -50 33 -110 33 -181v-308c0 -183 6 -316 18 -398h-160c-9 49 -14 113 -14 192h-1c-91 -141 -214 -211 -369 -211c-109 0 -198 30 -265 91
c-68 61 -102 138 -102 231v12c0 237 238 316 433 316zM840 461v38h-305c-65 0 -123 -10 -178 -36c-56 -26 -92 -78 -92 -147c0 -60 22 -107 67 -142c44 -35 100 -52 167 -52c98 0 179 32 244 95s97 145 97 244z" />
    <glyph glyph-name="uni04D4" unicode="&#x4d4;" horiz-adv-x="2145" 
d="M2013 1448h-836v-555h764v-155h-764v-582h844l-1 -156h-1009v410h-613l-233 -410h-183l921 1604h1109zM989 1453l-505 -890h527v890h-22z" />
    <glyph glyph-name="uni04D5" unicode="&#x4d5;" horiz-adv-x="1981" 
d="M844 630v75c0 175 -98 265 -279 265c-89 0 -157 -21 -205 -64s-77 -96 -88 -157l-151 31c2 57 55 163 156 243c64 51 171 90 291 90c197 0 335 -89 386 -228c43 69 102 125 177 166s155 62 242 62c163 0 290 -52 379 -156c89 -105 134 -240 134 -406c0 -12 -1 -30 -2 -54
h-887c3 -104 43 -192 120 -265c76 -73 167 -109 274 -109c164 0 287 82 338 234l142 -45c-31 -103 -91 -184 -180 -243s-189 -88 -300 -88c-99 0 -188 23 -269 69s-145 108 -194 187c-99 -171 -246 -256 -443 -256h-6c-111 0 -202 30 -271 91s-104 138 -104 231v12
c0 113 57 200 145 247c87 47 184 68 288 68h307zM998 633h727c-9 101 -44 183 -107 246c-63 62 -146 93 -248 93c-93 0 -176 -34 -248 -101c-73 -68 -114 -147 -124 -238zM844 499h-309c-65 0 -123 -10 -178 -36c-56 -26 -92 -78 -92 -147c0 -60 23 -107 68 -142
s101 -52 169 -52c98 0 180 32 245 95s97 145 97 244v38z" />
    <glyph glyph-name="uni04D6" unicode="&#x4d6;" horiz-adv-x="1359" 
d="M729 1751c-85 0 -157 27 -217 81c-61 54 -99 124 -115 211l114 22c35 -123 108 -185 218 -185c109 0 181 62 218 185l114 -22c-16 -87 -54 -157 -115 -211s-133 -81 -217 -81zM1155 893v-155h-764v-582h843v-156h-1011v1604h1003v-156h-835v-555h764z" />
    <glyph glyph-name="uni04D7" unicode="&#x4d7;" horiz-adv-x="1244" 
d="M853 1357c-61 -54 -133 -81 -218 -81s-157 27 -217 81c-61 54 -99 124 -115 211l114 22c35 -123 108 -185 218 -185s183 62 218 185l114 -22c-16 -87 -54 -157 -114 -211zM1147 497h-885c6 -107 46 -196 121 -267c74 -71 164 -107 271 -107c164 0 287 82 338 234l142 -45
c-31 -103 -91 -184 -179 -243s-188 -88 -299 -88c-104 0 -199 25 -284 76s-152 119 -199 206c-48 87 -72 182 -72 285c0 99 23 191 68 278c45 86 109 155 192 208c82 53 173 79 272 79c109 0 204 -25 283 -74c79 -50 137 -117 176 -200c38 -84 57 -180 57 -288
c0 -12 -1 -30 -2 -54zM264 633h723c-11 102 -47 184 -109 246s-144 93 -245 93c-93 0 -174 -33 -244 -99c-70 -67 -112 -147 -125 -240z" />
    <glyph glyph-name="uni04DC" unicode="&#x4dc;" horiz-adv-x="2048" 
d="M913 1794c-49 -49 -119 -49 -168 0c-49 48 -49 124 0 173c49 48 119 48 168 0c49 -49 49 -125 0 -173zM1303 1794c-49 -49 -119 -49 -168 0c-49 48 -49 124 0 173c49 48 119 48 168 0c49 -49 49 -125 0 -173zM1300 821l750 -821h-229l-701 779h-12v-779h-168v779h-12
l-701 -779h-229l750 821l-717 783h220l678 -752h11v752h168v-752h11l678 752h220z" />
    <glyph glyph-name="uni04DD" unicode="&#x4dd;" horiz-adv-x="1673" 
d="M726 1314c-49 -49 -119 -49 -168 0c-49 48 -49 124 0 173c49 48 119 48 168 0c49 -49 49 -125 0 -173zM1116 1314c-49 -49 -119 -49 -168 0c-49 48 -49 124 0 173c49 48 119 48 168 0c49 -49 49 -125 0 -173zM1112 563l534 -563h-217l-498 531h-15v-531h-159v531h-15
l-498 -531h-217l534 563l-522 530h205l497 -504h16v504h159v-504h16l497 504h205z" />
    <glyph glyph-name="uni04DE" unicode="&#x4de;" horiz-adv-x="1336" 
d="M530 1794c-49 -49 -119 -49 -168 0c-49 48 -49 124 0 173c49 48 119 48 168 0c49 -49 49 -125 0 -173zM940 1794c-49 -49 -119 -49 -168 0c-49 48 -49 124 0 173c49 48 119 48 168 0c49 -49 49 -125 0 -173zM655 -17c-160 0 -305 57 -401 145s-159 203 -174 323l163 30
c12 -113 82 -223 206 -291c62 -34 131 -51 206 -51c145 -1 396 92 396 345c0 92 -36 166 -107 223c-72 57 -165 85 -279 85c-69 0 -125 -8 -168 -24l-79 133l549 549h-849v154h1064v-147l-510 -512c129 5 265 -32 358 -97c119 -83 191 -213 191 -358
c0 -159 -71 -295 -190 -387c-105 -80 -230 -120 -376 -120z" />
    <glyph glyph-name="uni04DF" unicode="&#x4df;" horiz-adv-x="1083" 
d="M418 1314c-49 -49 -119 -49 -168 0c-49 48 -49 124 0 173c49 48 119 48 168 0c49 -49 49 -125 0 -173zM808 1314c-49 -49 -119 -49 -168 0c-49 48 -49 124 0 173c49 48 119 48 168 0c49 -49 49 -125 0 -173zM535 -19c-105 0 -200 29 -286 86s-142 135 -168 236l146 44
c19 -72 57 -128 114 -169s124 -61 200 -61c125 0 277 64 277 211c0 45 -15 83 -45 115c-30 31 -65 53 -105 66s-82 19 -125 19c-49 0 -88 -5 -118 -14l-74 115l402 327h-643v137h838v-136l-376 -303c133 -3 260 -52 343 -151c41 -50 62 -107 62 -171
c0 -109 -45 -196 -134 -261c-83 -60 -186 -90 -308 -90z" />
    <glyph glyph-name="uni04E2" unicode="&#x4e2;" horiz-adv-x="1723" 
d="M1207 1811h-691v144h691v-144zM417 0h-194v1604h168v-1378l913 1378h196v-1604h-166v1385z" />
    <glyph glyph-name="uni04E3" unicode="&#x4e3;" horiz-adv-x="1322" 
d="M1005 1311h-690v144h690v-144zM342 0h-161v1093h159v-874l640 874h161v-1093h-159v867h-1z" />
    <glyph glyph-name="uni04E4" unicode="&#x4e4;" horiz-adv-x="1723" 
d="M741 1794c-49 -49 -119 -49 -168 0c-49 48 -49 124 0 173c49 48 119 48 168 0c49 -49 49 -125 0 -173zM1151 1794c-49 -49 -119 -49 -168 0c-49 48 -49 124 0 173c49 48 119 48 168 0c49 -49 49 -125 0 -173zM417 0h-194v1604h168v-1378l913 1378h196v-1604h-166v1385z
" />
    <glyph glyph-name="uni04E5" unicode="&#x4e5;" horiz-adv-x="1322" 
d="M550 1314c-49 -49 -119 -49 -168 0c-49 48 -49 124 0 173c49 48 119 48 168 0c49 -49 49 -125 0 -173zM940 1314c-49 -49 -119 -49 -168 0c-49 48 -49 124 0 173c49 48 119 48 168 0c49 -49 49 -125 0 -173zM342 0h-161v1093h159v-874l640 874h161v-1093h-159v867h-1z
" />
    <glyph glyph-name="uni04E6" unicode="&#x4e6;" horiz-adv-x="1833" 
d="M798 1794c49 48 49 124 0 173c-49 48 -119 48 -168 0c-49 -49 -49 -125 0 -173c49 -49 119 -49 168 0zM1208 1794c49 48 49 124 0 173c-49 48 -119 48 -168 0c-49 -49 -49 -125 0 -173c49 -49 119 -49 168 0zM1723 806c0 -152 -35 -291 -104 -416
c-70 -125 -167 -224 -291 -297s-262 -110 -414 -110c-113 0 -219 21 -319 64c-100 42 -185 99 -256 172c-71 72 -126 158 -167 259c-41 100 -62 206 -62 319c0 151 35 290 105 416c69 125 166 225 290 298s262 109 414 109c113 0 219 -21 319 -63c100 -43 185 -100 256 -172
c71 -73 127 -159 168 -259c41 -101 61 -207 61 -320zM1548 797c0 179 -66 348 -176 469c-110 120 -275 197 -458 197c-120 0 -228 -30 -325 -89c-97 -60 -171 -140 -224 -239c-53 -100 -80 -210 -80 -329c0 -179 67 -348 177 -468s274 -197 457 -197c120 0 228 30 325 89
s172 139 225 239c53 99 79 209 79 328z" />
    <glyph glyph-name="uni04E7" unicode="&#x4e7;" horiz-adv-x="1332" 
d="M556 1314c-49 -49 -119 -49 -168 0c-49 48 -49 124 0 173c49 48 119 48 168 0c49 -49 49 -125 0 -173zM946 1314c-49 -49 -119 -49 -168 0c-49 48 -49 124 0 173c49 48 119 48 168 0c49 -49 49 -125 0 -173zM663 -19c-103 0 -198 25 -284 75c-87 50 -155 118 -204 204
s-74 180 -74 283c0 161 54 297 163 406c108 109 242 164 403 164c310 6 570 -254 564 -562c6 -317 -254 -577 -568 -570zM667 123c115 0 211 41 287 123s114 181 114 297c0 117 -38 218 -115 303c-77 84 -173 126 -290 126c-116 0 -211 -41 -286 -123s-113 -181 -113 -298
c-5 -227 170 -432 403 -428z" />
    <glyph glyph-name="uni04E8" unicode="&#x4e8;" horiz-adv-x="1833" 
d="M914 -17c-113 0 -219 21 -319 64c-100 42 -185 99 -256 172c-71 72 -126 158 -167 259c-41 100 -62 206 -62 319c0 151 35 290 105 416c69 125 166 225 290 298s262 109 414 109c113 0 219 -21 319 -63c100 -43 185 -100 256 -172c71 -73 127 -159 168 -259
c41 -101 61 -207 61 -320c0 -152 -35 -291 -104 -416c-70 -125 -167 -224 -291 -297s-262 -110 -414 -110zM1218 1388c-92 51 -193 76 -304 76s-212 -25 -303 -76c-183 -102 -298 -283 -323 -495h1256c-28 212 -143 393 -326 495zM1548 738h-1262c15 -164 87 -315 196 -423
s266 -175 437 -175s327 67 436 175c108 107 180 258 193 423z" />
    <glyph glyph-name="uni04E9" unicode="&#x4e9;" horiz-adv-x="1332" 
d="M663 -19c-103 0 -198 25 -284 75c-87 50 -155 118 -204 204s-74 180 -74 283c0 161 54 297 163 406c108 109 242 164 403 164c310 6 570 -254 564 -562c6 -317 -254 -577 -568 -570zM663 974c-104 0 -192 -33 -265 -100s-117 -150 -132 -251h799
c-17 100 -63 184 -136 251c-74 67 -163 100 -266 100zM1068 487h-803c14 -104 58 -191 132 -261s164 -105 270 -105s196 35 271 105c74 70 117 157 130 261z" />
    <glyph glyph-name="uni04EA" unicode="&#x4ea;" horiz-adv-x="1833" 
d="M798 1967c49 -49 49 -125 0 -173c-49 -49 -119 -49 -168 0c-49 48 -49 124 0 173c49 48 119 48 168 0zM1208 1967c49 -49 49 -125 0 -173c-49 -49 -119 -49 -168 0c-49 48 -49 124 0 173c49 48 119 48 168 0zM914 -17c-113 0 -219 21 -319 64c-100 42 -185 99 -256 172
c-71 72 -126 158 -167 259c-41 100 -62 206 -62 319c0 151 35 290 105 416c69 125 166 225 290 298s262 109 414 109c113 0 219 -21 319 -63c100 -43 185 -100 256 -172c71 -73 127 -159 168 -259c41 -101 61 -207 61 -320c0 -152 -35 -291 -104 -416
c-70 -125 -167 -224 -291 -297s-262 -110 -414 -110zM1218 1388c-92 51 -193 76 -304 76s-212 -25 -303 -76c-183 -102 -298 -283 -323 -495h1256c-28 212 -143 393 -326 495zM1548 738h-1262c15 -164 87 -315 196 -423s266 -175 437 -175s327 67 436 175
c108 107 180 258 193 423z" />
    <glyph glyph-name="uni04EB" unicode="&#x4eb;" horiz-adv-x="1332" 
d="M556 1487c49 -49 49 -125 0 -173c-49 -49 -119 -49 -168 0c-49 48 -49 124 0 173c49 48 119 48 168 0zM946 1487c49 -49 49 -125 0 -173c-49 -49 -119 -49 -168 0c-49 48 -49 124 0 173c49 48 119 48 168 0zM663 -19c-103 0 -198 25 -284 75c-87 50 -155 118 -204 204
s-74 180 -74 283c0 161 54 297 163 406c108 109 242 164 403 164c310 6 570 -254 564 -562c6 -317 -254 -577 -568 -570zM663 974c-104 0 -192 -33 -265 -100s-117 -150 -132 -251h799c-17 100 -63 184 -136 251c-74 67 -163 100 -266 100zM1068 487h-803
c14 -104 58 -191 132 -261s164 -105 270 -105s196 35 271 105c74 70 117 157 130 261z" />
    <glyph glyph-name="uni04EC" unicode="&#x4ec;" horiz-adv-x="1728" 
d="M729 1794c-49 -49 -119 -49 -168 0c-49 48 -49 124 0 173c49 48 119 48 168 0c49 -49 49 -125 0 -173zM1139 1794c-49 -49 -119 -49 -168 0c-49 48 -49 124 0 173c49 48 119 48 168 0c49 -49 49 -125 0 -173zM828 1621c223 0 422 -84 562 -224
c140 -141 226 -352 226 -591c0 -241 -86 -454 -228 -596s-347 -227 -572 -227c-453 0 -672 333 -729 532l160 56c16 -45 31 -84 66 -143c35 -60 73 -107 134 -159c87 -74 207 -127 373 -127c170 0 312 56 425 167s176 254 189 429h-769v155h767c-33 335 -295 574 -611 569
c-151 0 -284 -53 -364 -118c-41 -33 -76 -70 -107 -111c-61 -84 -85 -143 -98 -195l-159 56c30 134 139 295 307 406c109 72 264 121 428 121z" />
    <glyph glyph-name="uni04ED" unicode="&#x4ed;" horiz-adv-x="1257" 
d="M508 1314c-49 -49 -119 -49 -168 0c-49 48 -49 124 0 173c49 48 119 48 168 0c49 -49 49 -125 0 -173zM898 1314c-49 -49 -119 -49 -168 0c-49 48 -49 124 0 173c49 48 119 48 168 0c49 -49 49 -125 0 -173zM606 1113c101 0 193 -23 276 -70s150 -114 199 -200
s74 -183 74 -290c5 -326 -241 -577 -557 -572c-140 0 -267 47 -350 117c-84 70 -140 152 -165 237l144 49c16 -40 33 -77 76 -128c21 -26 45 -48 72 -67c52 -38 135 -69 227 -69c111 0 201 36 271 107c69 71 109 160 120 268h-519v139h514c-17 98 -61 179 -132 243
s-155 96 -254 96c-109 0 -206 -40 -264 -96s-91 -110 -106 -159l-141 47c23 94 84 176 183 245s209 103 332 103z" />
    <glyph glyph-name="uni04EE" unicode="&#x4ee;" horiz-adv-x="1424" 
d="M1082 1811h-690v144h690v-144zM1433 1604l-595 -1195c-27 -53 -50 -98 -71 -133c-21 -36 -45 -71 -71 -104c-27 -33 -54 -60 -81 -79c-87 -62 -200 -96 -372 -93h-115v156h106c25 0 44 0 57 1c13 0 34 2 61 5c54 7 80 18 132 43c71 36 127 101 183 214l-643 1185h191
l539 -1012l494 1012h185z" />
    <glyph glyph-name="uni04EF" unicode="&#x4ef;" horiz-adv-x="1216" 
d="M958 1311h-690v144h690v-144zM1007 1093h172l-748 -1632h-173l283 613l-497 1019h183l401 -845z" />
    <glyph glyph-name="uni04F0" unicode="&#x4f0;" horiz-adv-x="1424" 
d="M638 1794c-49 -49 -119 -49 -168 0c-49 48 -49 124 0 173c49 48 119 48 168 0c49 -49 49 -125 0 -173zM1048 1794c-49 -49 -119 -49 -168 0c-49 48 -49 124 0 173c49 48 119 48 168 0c49 -49 49 -125 0 -173zM1433 1604l-595 -1195c-27 -53 -50 -98 -71 -133
c-21 -36 -45 -71 -71 -104c-27 -33 -54 -60 -81 -79c-87 -62 -200 -96 -372 -93h-115v156h106c25 0 44 0 57 1c13 0 34 2 61 5c54 7 80 18 132 43c71 36 127 101 183 214l-643 1185h191l539 -1012l494 1012h185z" />
    <glyph glyph-name="uni04F1" unicode="&#x4f1;" horiz-adv-x="1216" 
d="M509 1314c49 48 49 124 0 173c-49 48 -119 48 -168 0c-49 -49 -49 -125 0 -173c49 -49 119 -49 168 0zM899 1314c49 48 49 124 0 173c-49 48 -119 48 -168 0c-49 -49 -49 -125 0 -173c49 -49 119 -49 168 0zM431 -539h-173l283 613l-497 1019h183l401 -845l379 845h172z
" />
    <glyph glyph-name="uni04F2" unicode="&#x4f2;" horiz-adv-x="1424" 
d="M701 2103h194l-263 -352h-152zM1054 2103h194l-263 -352h-152zM1433 1604l-595 -1195c-27 -53 -50 -98 -71 -133c-21 -36 -45 -71 -71 -104c-27 -33 -54 -60 -81 -79c-87 -62 -200 -96 -372 -93h-115v156h106c25 0 44 0 57 1c13 0 34 2 61 5c54 7 80 18 132 43
c71 36 127 101 183 214l-643 1185h191l539 -1012l494 1012h185z" />
    <glyph glyph-name="uni04F3" unicode="&#x4f3;" horiz-adv-x="1216" 
d="M591 1632h194l-263 -352h-152zM944 1632h194l-263 -352h-152zM1007 1093h172l-748 -1632h-173l283 613l-497 1019h183l401 -845z" />
    <glyph glyph-name="uni04F4" unicode="&#x4f4;" horiz-adv-x="1509" 
d="M584 1794c-49 -49 -119 -49 -168 0c-49 48 -49 124 0 173c49 48 119 48 168 0c49 -49 49 -125 0 -173zM994 1794c-49 -49 -119 -49 -168 0c-49 48 -49 124 0 173c49 48 119 48 168 0c49 -49 49 -125 0 -173zM1117 0v684c-69 -41 -151 -76 -245 -107
c-95 -31 -175 -47 -241 -47c-148 0 -297 39 -398 145c-65 68 -109 180 -109 317v612h167v-592c0 -170 101 -322 351 -322c75 0 155 15 240 44c84 29 162 65 235 108v762h169v-1604h-169z" />
    <glyph glyph-name="uni04F5" unicode="&#x4f5;" 
d="M432 1314c-49 -49 -119 -49 -168 0c-49 48 -49 124 0 173c49 48 119 48 168 0c49 -49 49 -125 0 -173zM822 1314c-49 -49 -119 -49 -168 0c-49 48 -49 124 0 173c49 48 119 48 168 0c49 -49 49 -125 0 -173zM261 1093v-392c0 -136 86 -209 222 -209c59 0 120 10 182 29
s115 43 159 74v498h159v-1093h-159v451c-44 -25 -100 -48 -169 -68c-69 -21 -133 -31 -193 -31c-107 0 -193 28 -260 83s-100 136 -100 243v415h159z" />
    <glyph glyph-name="uni04F8" unicode="&#x4f8;" horiz-adv-x="1920" 
d="M839 1794c-49 -49 -119 -49 -168 0c-49 48 -49 124 0 173c49 48 119 48 168 0c49 -49 49 -125 0 -173zM1249 1794c-49 -49 -119 -49 -168 0c-49 48 -49 124 0 173c49 48 119 48 168 0c49 -49 49 -125 0 -173zM391 978h359c117 0 224 -15 336 -59c55 -23 103 -51 144 -85
c81 -68 138 -184 138 -327s-51 -267 -147 -359c-96 -93 -252 -148 -444 -148h-554v1604h168v-626zM1529 1604v-1604h168v1604h-168zM391 156h380c79 0 148 9 227 41c39 15 73 36 102 61c57 50 99 137 99 246c0 99 -38 177 -113 234c-76 57 -185 86 -327 86h-368v-668z" />
    <glyph glyph-name="uni04F9" unicode="&#x4f9;" horiz-adv-x="1718" 
d="M749 1314c-49 -49 -119 -49 -168 0c-49 48 -49 124 0 173c49 48 119 48 168 0c49 -49 49 -125 0 -173zM1139 1314c-49 -49 -119 -49 -168 0c-49 48 -49 124 0 173c49 48 119 48 168 0c49 -49 49 -125 0 -173zM340 695h347c222 0 439 -85 439 -333
c0 -247 -198 -363 -419 -362h-526v1093h159v-398zM1377 1093v-1093h160v1093h-160zM340 141h352c133 0 273 50 273 217c0 155 -144 199 -280 199h-345v-416z" />
    <glyph glyph-name="uni0E3F" unicode="&#xe3f;" horiz-adv-x="1504" 
d="M1071 834c112 -29 203 -98 249 -175s67 -152 67 -219c0 -149 -64 -267 -170 -336s-242 -104 -397 -104h-5v-209h-140v209h-452v1604h452v221h140v-221c283 -2 501 -150 500 -403c0 -37 -2 -71 -21 -131c-10 -31 -23 -59 -39 -85c-33 -53 -99 -114 -184 -151zM676 891v559
h-286v-559h286zM1144 1181c0 187 -153 261 -330 269v-558c112 6 195 36 249 89s81 120 81 200zM676 154v587h-286v-587h286zM814 154h10c174 0 390 70 390 298c0 131 -79 208 -181 248c-72 28 -142 38 -219 41v-587z" />
    <glyph glyph-name="uni1E20" unicode="&#x1e20;" horiz-adv-x="1760" 
d="M1270 1811h-690v144h690v-144zM1630 1143l-161 -57c-19 59 -47 117 -109 189c-31 35 -67 67 -106 94c-79 54 -202 95 -338 95c-180 0 -345 -77 -454 -197s-177 -286 -177 -461c0 -364 244 -665 635 -665c143 0 278 45 382 125s174 206 183 354h-670v156h849v-61
c0 -203 -72 -385 -198 -517s-322 -214 -550 -214c-239 0 -448 89 -586 234s-220 351 -220 579c0 152 35 291 106 417c71 125 168 224 293 297c124 73 262 109 413 109c189 0 356 -54 471 -145s193 -201 237 -332z" />
    <glyph glyph-name="uni1E21" unicode="&#x1e21;" horiz-adv-x="1379" 
d="M1000 1311h-692v144h692v-144zM1039 16v228c-99 -166 -241 -249 -424 -249c-101 0 -191 26 -270 78c-79 51 -139 119 -180 203s-62 176 -62 276c0 96 21 187 63 272c41 85 102 154 181 208s169 81 268 81c103 0 193 -28 262 -76c68 -49 116 -102 164 -173v229h157v-1067
c0 -187 -51 -329 -154 -427c-103 -97 -242 -146 -415 -146c-136 0 -252 36 -347 107c-96 72 -154 161 -175 268l147 49c25 -112 126 -284 373 -284c116 0 212 31 289 96s123 179 123 327zM648 136c113 0 206 41 281 124c75 82 112 180 112 295c5 212 -173 420 -393 416
c-117 0 -210 -40 -279 -119c-69 -80 -103 -181 -103 -303c-5 -224 147 -415 382 -413z" />
    <glyph glyph-name="uni1E30" unicode="&#x1e30;" horiz-adv-x="1390" 
d="M873 2103h194l-263 -352h-153zM1124 1604h234l-786 -768l824 -836h-238l-752 772h-12v-772h-171v1604h171v-709h11z" />
    <glyph glyph-name="uni1E31" unicode="&#x1e31;" horiz-adv-x="1116" 
d="M340 649l520 444h227l-576 -491l603 -602h-224l-543 547h-7v-547h-159v1669h159v-1020zM552 1280h153l263 352h-194z" />
    <glyph glyph-name="uni1E60" unicode="&#x1e60;" horiz-adv-x="1317" 
d="M737 1793c25 25 37 54 37 89c0 34 -12 63 -37 88s-54 37 -86 37s-60 -12 -85 -37s-38 -54 -38 -88c0 -35 13 -64 38 -89s53 -37 85 -37s61 12 86 37zM670 -16c-152 0 -298 57 -395 142s-163 199 -175 312l160 44c18 -95 66 -175 145 -241s167 -99 265 -99
c93 0 179 24 248 71c68 47 112 126 112 222c0 113 -60 185 -135 229c-53 31 -99 44 -151 55l-213 42c-88 17 -197 63 -274 136c-76 71 -114 164 -114 277c0 88 24 167 73 236s112 122 189 158c77 35 161 53 251 53c344 0 497 -212 529 -384l-153 -48
c-28 114 -131 277 -380 277c-90 0 -169 -27 -236 -80s-101 -121 -101 -204c0 -124 78 -222 234 -253l204 -40c136 -27 240 -73 311 -140c49 -46 85 -96 106 -149c21 -54 32 -103 32 -146c3 -283 -235 -475 -532 -470z" />
    <glyph glyph-name="uni1E61" unicode="&#x1e61;" horiz-adv-x="1007" 
d="M499 1277c32 0 61 12 86 37s37 54 37 89c0 34 -12 63 -37 88s-54 37 -86 37c-33 0 -61 -12 -86 -37s-37 -54 -37 -88c0 -35 12 -64 37 -89s53 -37 86 -37zM903 311c0 -97 -38 -176 -113 -237s-167 -92 -275 -92c-176 1 -289 73 -348 159c-44 59 -62 113 -69 166l147 38
c18 -100 94 -223 269 -223c62 0 115 16 160 49c45 32 67 76 67 131c0 43 -18 79 -53 106c-36 27 -78 46 -126 57l-167 37c-75 16 -131 40 -186 83s-87 113 -87 202c0 240 234 326 371 326c166 -1 272 -66 328 -145c41 -55 58 -101 66 -148l-145 -41c-11 43 -28 80 -64 123
c-37 43 -103 71 -184 71c-59 0 -109 -17 -150 -51s-61 -75 -61 -124c0 -85 61 -125 158 -148l177 -40c143 -33 285 -124 285 -299z" />
    <glyph glyph-name="Wgrave" unicode="&#x1e80;" horiz-adv-x="2349" 
d="M1253 1751h-153l-263 352h194zM1081 1604h191l426 -1368h3l422 1368h170l-504 -1604h-187l-428 1377l-430 -1377h-185l-502 1604h177l420 -1361h4z" />
    <glyph glyph-name="wgrave" unicode="&#x1e81;" horiz-adv-x="1774" 
d="M963 1280h-153l-263 352h194zM509 186l297 907h161l299 -908h1l290 908h165l-368 -1093h-178l-290 889h-1l-292 -889h-175l-366 1093h169l287 -907h1z" />
    <glyph glyph-name="Wacute" unicode="&#x1e82;" horiz-adv-x="2349" 
d="M1099 1751l222 352h194l-263 -352h-153zM1081 1604h191l426 -1368h3l422 1368h170l-504 -1604h-187l-428 1377l-430 -1377h-185l-502 1604h177l420 -1361h4z" />
    <glyph glyph-name="wacute" unicode="&#x1e83;" horiz-adv-x="1774" 
d="M1033 1632h194l-263 -352h-153zM509 186l297 907h161l299 -908h1l290 908h165l-368 -1093h-178l-290 889h-1l-292 -889h-175l-366 1093h169l287 -907h1z" />
    <glyph glyph-name="Wdieresis" unicode="&#x1e84;" horiz-adv-x="2349" 
d="M1064 1794c-49 -49 -119 -49 -168 0c-49 48 -49 124 0 173c49 48 119 48 168 0c49 -49 49 -125 0 -173zM1454 1794c-49 -49 -119 -49 -168 0c-49 48 -49 124 0 173c49 48 119 48 168 0c49 -49 49 -125 0 -173zM1081 1604h191l426 -1368h3l422 1368h170l-504 -1604h-187
l-428 1377l-430 -1377h-185l-502 1604h177l420 -1361h4z" />
    <glyph glyph-name="wdieresis" unicode="&#x1e85;" horiz-adv-x="1774" 
d="M776 1314c-49 -49 -119 -49 -168 0c-49 48 -49 124 0 173c49 48 119 48 168 0c49 -49 49 -125 0 -173zM1166 1314c-49 -49 -119 -49 -168 0c-49 48 -49 124 0 173c49 48 119 48 168 0c49 -49 49 -125 0 -173zM509 186l297 907h161l299 -908h1l290 908h165l-368 -1093
h-178l-290 889h-1l-292 -889h-175l-366 1093h169l287 -907h1z" />
    <glyph glyph-name="uni1E90" unicode="&#x1e90;" horiz-adv-x="1321" 
d="M730 2105h-159l-274 -353h171l183 242h5l186 -242h170zM74 0v155l959 1295h-926v154h1123v-155l-959 -1294h963v-155h-1160z" />
    <glyph glyph-name="uni1E91" unicode="&#x1e91;" horiz-adv-x="1053" 
d="M439 1633h159l282 -353h-170l-186 242h-5l-183 -242h-170zM102 956v137h857v-135l-682 -821h684v-137h-876v137l684 819h-667z" />
    <glyph glyph-name="uni1EBC" unicode="&#x1ebc;" horiz-adv-x="1360" 
d="M866 1792c66 0 114 22 145 65c30 43 46 100 47 169h-100c-15 -63 -45 -94 -90 -94c-81 -4 -184 102 -272 98c-66 0 -115 -22 -147 -66c-32 -45 -48 -101 -49 -170h115c11 65 38 98 82 98c48 0 98 -25 131 -50c32 -25 85 -50 138 -50zM392 1448v-555h764v-155h-764v-582
h843v-156h-1012v1604h1004v-156h-835z" />
    </font>
</defs>
</svg>
